<svg width="800" height="400" viewBox="0 0 800 400" fill="none" xmlns="http://www.w3.org/2000/svg">
<rect x="13.5" y="15.5" width="772" height="371" rx="18.5" stroke="none" stroke-width="5"/>
<path d="M375.115 190.727H378.479L386.388 210.045H386.661L394.57 190.727H397.933V214H395.297V196.318H395.07L387.797 214H385.251L377.979 196.318H377.751V214H375.115V190.727ZM404.538 214H401.584L410.129 190.727H413.038L421.584 214H418.629L411.675 194.409H411.493L404.538 214ZM405.629 204.909H417.538V207.409H405.629V204.909ZM425.209 214V190.727H433.072C434.898 190.727 436.391 191.057 437.55 191.716C438.716 192.367 439.58 193.25 440.141 194.364C440.701 195.477 440.982 196.72 440.982 198.091C440.982 199.462 440.701 200.708 440.141 201.83C439.588 202.951 438.732 203.845 437.572 204.511C436.413 205.17 434.929 205.5 433.118 205.5H427.482V203H433.027C434.277 203 435.281 202.784 436.038 202.352C436.796 201.92 437.345 201.337 437.686 200.602C438.035 199.86 438.209 199.023 438.209 198.091C438.209 197.159 438.035 196.326 437.686 195.591C437.345 194.856 436.792 194.28 436.027 193.864C435.262 193.439 434.247 193.227 432.982 193.227H428.027V214H425.209Z" fill="#C084FC"/>
</svg>
