<?xml version="1.0" encoding="UTF-8" standalone="no"?><!DOCTYPE svg PUBLIC "-//W3C//DTD SVG 1.1//EN" "http://www.w3.org/Graphics/SVG/1.1/DTD/svg11.dtd"><svg width="100%" height="100%" viewBox="0 0 506 284" version="1.1" xmlns="http://www.w3.org/2000/svg" xmlns:xlink="http://www.w3.org/1999/xlink" xml:space="preserve" xmlns:serif="http://www.serif.com/" style="fill-rule:evenodd;clip-rule:evenodd;stroke-linecap:round;stroke-linejoin:round;stroke-miterlimit:10;"><rect id="Artboard1" x="0" y="0" width="505.44" height="283.92" style="fill:none;"/><clipPath id="_clip1"><rect x="0" y="0" width="505.44" height="283.92"/></clipPath><g clip-path="url(#_clip1)"><g id="WALLS-ELEV-STAIRS" serif:id="WALLS ELEV STAIRS"><path d="M505.535,22.68l-43.055,-0.72l0,165.24l-46.56,0l0,44.16l-86.88,1.68l0.24,50.64l175.92,0l0.335,-261Z" style="fill:none;"/><g><g id="WALLS-" serif:id="WALLS?"><path d="M239.88,280.32l36.84,0l0,40.56l-36.84,0l0,-40.56Z" style="fill:none;stroke:#c0c0c0;stroke-width:0.72px;"/><path d="M331.56,280.32l36.84,0l-0,40.56l-36.84,0l0,-40.56Z" style="fill:none;stroke:#c0c0c0;stroke-width:0.72px;"/><path d="M331.56,278.76l0,-40.68l36.24,0l0,2.64l0.6,0l0,38.04l-36.84,0Z" style="fill:none;fill-rule:nonzero;stroke:#c0c0c0;stroke-width:0.72px;"/><path d="M333,553.2l0,-14.52m-83.64,-150.96l0,7.56m83.64,129l0,-7.2m0,-1.2l0,-1.2m-94.56,-146.16l-7.2,0m0,-9.6l7.2,0m138.96,-120.84l0,4.8m52.32,151.44l0,2.4" style="fill:none;fill-rule:nonzero;stroke:#e1c1ff;stroke-width:0.72px;"/><g><path d="M462.36,281.52l-1.2,0l0,-5.88" style="fill:none;fill-rule:nonzero;stroke:#e1c1ff;stroke-width:0.72px;"/><path d="M462.36,281.52l0,78.24" style="fill:none;fill-rule:nonzero;stroke:#e1c1ff;stroke-width:0.72px;"/><path d="M462.36,368.04l0,26.28m-185.64,-124.8l-36.84,0m38.28,-1.44l-39.72,0m1.44,9.72l0,-8.28m-1.44,89.4l0,-90.84m15.24,127.2l0,1.44m23.04,-32.4l0,30.96m139.68,156.48l-82.08,0m82.08,5.52l0,-4.08m11.16,0l0,4.08m-50.76,-320.52l77.28,-0" style="fill:none;fill-rule:nonzero;stroke:#e1c1ff;stroke-width:0.72px;"/><path d="M366,236.76l0,-4.2l10.8,0l0,4.2" style="fill:none;fill-rule:nonzero;stroke:#e1c1ff;stroke-width:0.72px;"/><path d="M421.2,547.2l0,-32.64m-144.48,-234.24l-36.84,-0" style="fill:none;fill-rule:nonzero;stroke:#e1c1ff;stroke-width:0.72px;"/><path d="M239.88,277.8l0,1.2l36.84,0" style="fill:none;fill-rule:nonzero;stroke:#e1c1ff;stroke-width:0.72px;"/><path d="M463.56,497.76l0,11.76m0,1.68l-0,12m0,16.68l0,11.88m-0.36,-286.68l0,9m-94.8,152.28l0,83.16m94.8,-258.72l0,-8.76m1.56,8.76l0,-18.24m-94.92,41.52l0,-36.36m-121.92,126.6l-5.16,0m273.96,62.28l0,12.36m0,16.8l0,25.44m0,16.68l0,25.56m0,16.68l-0,11.64m-53.16,-42.24l-38.64,0m129.96,-78.24l0,116.16m-315,-267.12l0,79.8m156.96,35.16l0,-12.84m23.16,133.32l0,31.44m132.48,4.56l-35.76,0m-53.16,0l-37.44,0m-2.52,-38.52l0,33.96m-55.2,-186.6l0,-119.88m-120.48,147l0,7.56m-7.92,-26.76l2.76,0m33.96,-5.64l0,-82.56m146.64,170.4l0,16.68" style="fill:none;fill-rule:nonzero;stroke:#e1c1ff;stroke-width:0.72px;"/><path d="M331.56,364.44l35.04,0m-0.6,-127.68l-35.76,-0m37.8,126.36l-36.48,0" style="fill:none;fill-rule:nonzero;stroke:#e1c1ff;stroke-width:0.72px;"/><path d="M462.36,394.32l-32.64,0m35.04,-143.52l-1.56,0m1.56,14.28l-1.56,0m-54.12,28.44l-36.12,-15.48m36.12,-2.52l-39.24,0m41.4,121.2l0,-7.68m-79.68,6.24l65.28,0" style="fill:none;fill-rule:nonzero;stroke:#e1c1ff;stroke-width:0.72px;"/><path d="M278.16,268.08l0,128.64l-10.2,0" style="fill:none;fill-rule:nonzero;stroke:#e1c1ff;stroke-width:0.72px;"/></g><path d="M372.96,296.64l21.96,61.68m1.92,24.12l1.56,0m-149.04,12.84l4.32,0m-13.68,0l7.92,0m5.76,1.44l-15.24,0m91.68,-159.96l-0,159.96m183.96,143.4l0,13.08" style="fill:none;fill-rule:nonzero;stroke:#e1c1ff;stroke-width:0.72px;"/><path d="M398.4,368.04l0,-73.08l12.12,0l0,-19.32" style="fill:none;fill-rule:nonzero;stroke:#e1c1ff;stroke-width:0.72px;"/><path d="M238.44,396.72l0,-28.2m1.56,26.76l0,-26.76m173.64,25.8l0,-10.32m-136.92,-114.48l0,9.48m120.12,89.04l1.56,0m-64.08,147.72l0,8.52" style="fill:none;fill-rule:nonzero;stroke:#e1c1ff;stroke-width:0.72px;"/><rect x="372.96" y="278.04" width="36.12" height="15.48" style="fill:none;stroke:#e1c1ff;stroke-width:0.72px;"/><path d="M369.84,514.56l51.36,0m-89.64,-151.44l0,-125.04m0,157.2l0,-30.84m1.44,159.84l1.32,0m64.08,-141.84l0,1.56" style="fill:none;fill-rule:nonzero;stroke:#e1c1ff;stroke-width:0.72px;"/><path d="M372,274.08l0,-36.36m-0.12,274.08l8.4,-85.44m0.72,85.44l-9.12,-85.44m-132,-147.36l36.84,-9.48m0,9.48l-36.84,-9.48" style="fill:none;fill-rule:nonzero;stroke:#e1c1ff;stroke-width:0.72px;"/><g id="STAIRS"><path d="M447.84,238.68l0.36,-0.12l0.24,-0.48" style="fill:none;fill-rule:nonzero;stroke:#e1c1ff;stroke-width:0.72px;"/><path d="M447.84,239.28l0.6,-0.12l0.48,-0.48l0.12,-0.6" style="fill:none;fill-rule:nonzero;stroke:#e1c1ff;stroke-width:0.72px;"/><path d="M439.92,245.88l-0.6,0.24l-0.48,0.36l-0.12,0.6l0.12,0.6l0.48,0.48l0.6,0.12l0.6,-0.12l0.36,-0.48l0.24,-0.6l-0.24,-0.6l-0.36,-0.36l-0.6,-0.24Z" style="fill:none;fill-rule:nonzero;stroke:#e1c1ff;stroke-width:0.72px;"/><path d="M443.64,249.36l1.8,0l0.24,-0.12l0.24,-0.24l0.12,-0.24l0,-0.24l-0.12,-0.36l-0.48,-0.24l-1.8,0" style="fill:none;fill-rule:nonzero;stroke:#e1c1ff;stroke-width:0.72px;"/><path d="M446.04,247.08l-2.4,0l0,-0.96l0.12,-0.24l0.12,-0.12l0.24,-0.12l0.36,0l0.24,0.12l0.12,0.12l0.12,0.24l0,0.96" style="fill:none;fill-rule:nonzero;stroke:#e1c1ff;stroke-width:0.72px;"/><path d="M439.92,257.28l0.6,-0.12l0.36,-0.48l0.24,-0.6l-0.24,-0.6l-0.36,-0.36l-0.6,-0.24" style="fill:none;fill-rule:nonzero;stroke:#e1c1ff;stroke-width:0.72px;"/><path d="M439.92,256.68l0.36,-0.12l0.24,-0.48l-0.24,-0.36l-0.36,-0.24" style="fill:none;fill-rule:nonzero;stroke:#e1c1ff;stroke-width:0.72px;"/><path d="M434.64,264l-0.48,0.12l-0.48,0.36l-0.12,0.6l0.12,0.6l0.48,0.48l0.48,0.12l0.6,-0.12l0.48,-0.48l0.12,-0.6l-0.12,-0.6l-0.48,-0.36l-0.6,-0.12Z" style="fill:none;fill-rule:nonzero;stroke:#e1c1ff;stroke-width:0.72px;"/><path d="M440.28,267.12l-2.4,0l0,-0.72l0.24,-0.48l0.24,-0.12l0.36,-0.12l0.6,0l0.36,0.12l0.24,0.12l0.24,0.24l0.12,0.24l0,0.72Z" style="fill:none;fill-rule:nonzero;stroke:#e1c1ff;stroke-width:0.72px;"/><path d="M440.28,264.96l-2.4,0l2.4,-1.44l-2.4,0" style="fill:none;fill-rule:nonzero;stroke:#e1c1ff;stroke-width:0.72px;"/><path d="M439.92,238.68l0,-0.6m0,16.8l0,-15.6m2.28,7.8l-22.92,0m-0.96,7.8l21.6,0m0,0.6l-21.24,-0m21.24,0.36l-48.96,0m0,0.6l48.96,0m-48.96,0.24l48.96,0m0,0.6l-48.96,-0m48.96,-0.84l0,-0.96m-4.44,-0.6l0,-15.6m-0.84,17.4l0,-0.24m0,16.56l0,-15.72m2.4,7.8l-50.04,0m-4.08,7.92l55.32,0" style="fill:none;fill-rule:nonzero;stroke:#e1c1ff;stroke-width:0.72px;"/><path d="M439.44,274.08l-0.12,-0.48l-0.48,-0.48l-0.6,-0.12" style="fill:none;fill-rule:nonzero;stroke:#e1c1ff;stroke-width:0.72px;"/><path d="M438.84,274.08l-0.12,-0.36l-0.48,-0.12l-55.32,0" style="fill:none;fill-rule:nonzero;stroke:#e1c1ff;stroke-width:0.72px;"/><path d="M434.64,274.08l0,-0.48m13.2,-34.92l-38.88,0m38.88,0.6l-38.64,0m21.12,33.72l0,-15.72m-4.44,15.72l0,-15.72m-4.32,15.72l0,-15.72m-4.32,15.72l0,-15.72m-4.44,15.72l0,-15.72m-4.32,15.72l0,-15.72m-4.44,15.72l0,-15.72m27.12,-2.4l0,-15.6m-4.44,15.6l0,-15.6m-4.32,15.6l0,-15.6" style="fill:none;fill-rule:nonzero;stroke:#e1c1ff;stroke-width:0.72px;"/><path d="M420.96,248.76l-1.68,-1.68l1.68,-1.68" style="fill:none;fill-rule:nonzero;stroke:#e1c1ff;stroke-width:0.72px;"/><path d="M417.96,254.4l0,-15.12m-4.32,7.44l0,-7.44m-5.04,-1.2l10.2,17.76m-12.36,-17.76l10.2,17.76m-3,-0.96l0,-4.32m-22.68,4.32l25.2,0m0.36,0.6l-25.56,0m18.24,-0.6l0,-11.88" style="fill:none;fill-rule:nonzero;stroke:#e1c1ff;stroke-width:0.72px;"/><path d="M405.72,248.76l1.68,-1.68l-1.68,-1.68" style="fill:none;fill-rule:nonzero;stroke:#e1c1ff;stroke-width:0.72px;"/><path d="M390.96,254.88l-0.6,0.24l-0.48,0.36l-0.12,0.6l0.12,0.6l0.48,0.48l0.6,0.12" style="fill:none;fill-rule:nonzero;stroke:#e1c1ff;stroke-width:0.72px;"/><path d="M390.96,255.48l-0.48,0.24l-0.12,0.36l0.12,0.48l0.48,0.12" style="fill:none;fill-rule:nonzero;stroke:#e1c1ff;stroke-width:0.72px;"/><path d="M386.88,238.08l0.24,0.6l0.36,0.48l0.6,0.12" style="fill:none;fill-rule:nonzero;stroke:#e1c1ff;stroke-width:0.72px;"/><path d="M387.48,238.08l0.24,0.48l0.36,0.12" style="fill:none;fill-rule:nonzero;stroke:#e1c1ff;stroke-width:0.72px;"/><path d="M382.92,273l-0.6,0.12l-0.36,0.48l-0.24,0.48" style="fill:none;fill-rule:nonzero;stroke:#e1c1ff;stroke-width:0.72px;"/><path d="M382.92,273.6l-0.36,0.12l-0.24,0.36" style="fill:none;fill-rule:nonzero;stroke:#e1c1ff;stroke-width:0.72px;"/><path d="M407.4,247.08l-20.4,0l0,18" style="fill:none;fill-rule:nonzero;stroke:#e1c1ff;stroke-width:0.72px;"/><path d="M404.88,254.88l0,-15.6m-16.8,-0.6l18.72,0m0.36,0.6l-19.08,-0m11.64,33.72l0,-15.72m0.72,-2.4l0,-15.6" style="fill:none;fill-rule:nonzero;stroke:#e1c1ff;stroke-width:0.72px;"/></g><path d="M331.56,322.44l36.84,0m-36.84,-42.12l36.84,0m29.88,116.4l-68.16,-0" style="fill:none;fill-rule:nonzero;stroke:#e1c1ff;stroke-width:0.72px;"/><path d="M373.2,242.88l0,31.2" style="fill:none;fill-rule:nonzero;stroke:#e1c1ff;stroke-width:0.72px;"/><path d="M454.08,236.76l0,-4.2l10.68,0" style="fill:none;fill-rule:nonzero;stroke:#e1c1ff;stroke-width:0.72px;"/><path d="M461.16,275.64l-50.64,0" style="fill:none;fill-rule:nonzero;stroke:#e1c1ff;stroke-width:0.72px;"/><path d="M396.12,254.88l0,-15.6m-0.84,33.72l0,-15.72m-4.32,15.72l0,-15.72m0.72,-2.4l0,-15.6m-0.72,17.4l0,-1.2m0.72,-16.8l0,-0.6m-0.72,36l0,-0.48" style="fill:none;fill-rule:nonzero;stroke:#e1c1ff;stroke-width:0.72px;"/><path d="M331.56,278.76l36.84,0m3.6,-4.68l-2.16,0m0,19.44l0,-18m-93.12,45.36l-36.84,0m36.84,-40.56l-36.84,0m133.32,-6.24l90,0m1.56,122.64l0,-131.64m-94.92,98.52l0,-68.64m0,131.4l12.48,0m-139.56,-62.04l0,4.2m125.64,141l0,3.84m1.44,-2.4l0,3.6m28.44,-117.84l0,-7.68m-25.32,-95.52l36.12,-15.48m10.92,237.72l-85.68,0m226.92,-84.48l-6.36,0m-161.76,-4.8l0,8.76m-15.72,-192.36l-4.2,0m4.2,-4.8l76.68,0" style="fill:none;fill-rule:nonzero;stroke:#e1c1ff;stroke-width:0.72px;"/><path d="M463.2,242.04l-9.12,0l0,-3.96" style="fill:none;fill-rule:nonzero;stroke:#e1c1ff;stroke-width:0.72px;"/><path d="M464.76,396.72l-35.04,0m-14.28,0l-4.2,0m-2.16,-118.68l0,-2.52m-36.12,82.8l21.96,-61.68m1.92,-1.68l-27,0m3.12,-1.44l-3.12,0m-93.12,70.8l-27.36,0" style="fill:none;fill-rule:nonzero;stroke:#e1c1ff;stroke-width:0.72px;"/><path d="M331.56,238.08l36.24,0m6.72,125.04l22.32,0m-0.48,95.52l-12.6,0m-15.36,-33.6l29.16,0m-120.84,-102.6l-36.84,0m91.68,-1.56l36.84,0" style="fill:none;fill-rule:nonzero;stroke:#e1c1ff;stroke-width:0.72px;"/><path d="M464.76,275.28l0.36,0l0,5.04l-0.36,0l0,-5.04Z" style="fill:none;stroke:#e1c1ff;stroke-width:0.72px;"/><path d="M464.76,275.52l-2.4,0l0,4.56l2.4,0" style="fill:none;fill-rule:nonzero;stroke:#e1c1ff;stroke-width:0.72px;"/><g id="WINDOWS"><path d="M22.08,217.08l-0,21.84m-0.48,-21.84l-0,21.84m0.48,-46.2l-0,22.08m-0.48,-22.08l-0,22.08" style="fill:none;fill-rule:nonzero;stroke:#e1c1ff;stroke-width:0.72px;"/><path d="M23.64,214.8l-3.12,0l-0.72,0.72l0,0.84l0.72,0.72l3.12,0l0,-1.08l-0.24,0l0,-0.12l0.24,0l0,-1.08Z" style="fill:none;fill-rule:nonzero;stroke:#e1c1ff;stroke-width:0.72px;"/><path d="M23.64,192.72l-0,46.2m-4.2,0l0,-46.2m2.64,96l0,21.84m-0.48,-21.84l-0,21.84m0.48,-46.2l0,22.08m-0.48,-22.08l0,22.08" style="fill:none;fill-rule:nonzero;stroke:#e1c1ff;stroke-width:0.72px;"/><path d="M23.64,264.36l-0,46.2m0,19.68l0,5.76m-4.2,0l0,-71.64m2.64,95.88l0,21.96m-0.48,-21.96l-0,21.96m0.48,-46.2l0,22.08m-0.48,-22.08l0,22.08" style="fill:none;fill-rule:nonzero;stroke:#e1c1ff;stroke-width:0.72px;"/><path d="M565.8,20.4l-13.08,0m13.08,-0.36l-13.08,0m13.08,1.92l-13.08,-0m0,-4.2l13.08,0m-62.88,2.64l-21.84,-0m21.84,-0.36l-21.84,-0m46.08,0.36l-22.08,-0m22.08,-0.36l-22.08,-0" style="fill:none;fill-rule:nonzero;stroke:#e1c1ff;stroke-width:0.72px;"/><path d="M505.08,21.96l0,-3l-0.6,-0.84l-0.96,0l-0.6,0.84l0,3l0.96,0l0,-0.12l0.24,0l0,0.12l0.96,0Z" style="fill:none;fill-rule:nonzero;stroke:#e1c1ff;stroke-width:0.72px;"/><path d="M527.16,21.96l-46.08,-0m-25.56,-4.2l71.64,0m-95.76,2.64l-22.08,0m22.08,-0.36l-22.08,-0m46.2,0.36l-21.96,-0m21.96,-0.36l-21.96,-0" style="fill:none;fill-rule:nonzero;stroke:#e1c1ff;stroke-width:0.72px;"/><path d="M433.56,21.96l0,-3l-0.6,-0.84l-0.96,0l-0.6,0.84l0,3l0.96,0l0,-0.12l0.24,0l0,0.12l0.96,0Z" style="fill:none;fill-rule:nonzero;stroke:#e1c1ff;stroke-width:0.72px;"/><path d="M455.52,21.96l-46.2,-0m0,-4.2l46.2,0m-95.76,2.64l-22.08,0m22.08,-0.36l-22.08,-0m46.2,0.36l-21.96,-0m21.96,-0.36l-21.96,-0" style="fill:none;fill-rule:nonzero;stroke:#e1c1ff;stroke-width:0.72px;"/><path d="M361.92,21.96l0,-3l-0.72,-0.84l-0.84,0l-0.6,0.84l0,3l0.96,0l0,-0.12l0.24,0l0,0.12l0.96,0Z" style="fill:none;fill-rule:nonzero;stroke:#e1c1ff;stroke-width:0.72px;"/><path d="M383.88,21.96l-46.2,-0m0,-4.2l46.2,0m-95.76,2.64l-22.08,0m22.08,-0.36l-22.08,-0m46.2,0.36l-21.96,-0m21.96,-0.36l-21.96,-0" style="fill:none;fill-rule:nonzero;stroke:#e1c1ff;stroke-width:0.72px;"/><path d="M290.28,21.96l0,-3l-0.72,-0.84l-0.84,0l-0.6,0.84l0,3l0.96,0l0,-0.12l0.12,0l0,0.12l1.08,0Z" style="fill:none;fill-rule:nonzero;stroke:#e1c1ff;stroke-width:0.72px;"/><path d="M312.24,21.96l-46.2,-0m0,-4.2l46.2,0m-95.88,2.64l-21.96,0m21.96,-0.36l-21.96,-0m46.2,0.36l-21.96,-0m21.96,-0.36l-21.96,-0" style="fill:none;fill-rule:nonzero;stroke:#e1c1ff;stroke-width:0.72px;"/><path d="M218.64,21.96l0,-3l-0.72,-0.84l-0.84,0l-0.72,0.84l0,3l1.08,0l0,-0.12l0.12,0l0,0.12l1.08,0Z" style="fill:none;fill-rule:nonzero;stroke:#e1c1ff;stroke-width:0.72px;"/><path d="M240.6,21.96l-46.2,0m0,-4.2l46.2,0" style="fill:none;fill-rule:nonzero;stroke:#e1c1ff;stroke-width:0.72px;"/></g><path d="M121.8,21.96l0.96,0l-0.96,0Z" style="fill:none;fill-rule:nonzero;stroke:#a55291;stroke-width:0.72px;"/><path d="M194.4,21.96l0,-4.2l-25.44,0l0,4.2l5.76,0l0,9l13.92,0l0,-9l5.76,0Z" style="fill:#e1c1ff;fill-rule:nonzero;"/><path d="M23.243,167.041l-4.2,0l-0,25.44l4.2,0l0,-5.76l9,0l0,-13.92l-9,0l0,-5.76Z" style="fill:#e1c1ff;fill-rule:nonzero;"/><path d="M23.351,239.222l-4.2,0l-0,25.44l4.2,0l0,-5.76l9,0l0,-13.92l-9,0l0,-5.76Z" style="fill:#e1c1ff;fill-rule:nonzero;"/><path d="M266.04,21.96l0,-4.2l-25.44,0l0,4.2l5.76,0l0,9l13.92,0l0,-9l5.76,0Z" style="fill:#e1c1ff;fill-rule:nonzero;"/><path d="M337.68,21.96l0,-4.2l-25.44,0l0,4.2l5.76,0l0,9l13.92,0l0,-9l5.76,0Z" style="fill:#e1c1ff;fill-rule:nonzero;"/><path d="M409.32,21.96l0,-4.2l-25.44,0l0,4.2l5.76,0l0,9l13.92,0l0,-9l5.76,0Z" style="fill:#e1c1ff;fill-rule:nonzero;"/><path d="M481.08,21.96l0,-4.2l-25.56,0l0,4.2l5.76,0l0,9l13.92,0l0,-9l5.88,0Z" style="fill:#e1c1ff;fill-rule:nonzero;"/><g id="WINDOWS1" serif:id="WINDOWS"><path d="M23.64,68.52l2.64,-11.28m-4.08,10.92l2.52,-11.28m-3,11.16l2.64,-11.28m47.04,-34.92l11.64,0m-12.96,0.24l-11.28,2.52m-19.32,12.24l9,-7.2m-10.08,5.88l9.12,-7.2m-9.36,6.96l9.12,-7.2" style="fill:none;fill-rule:nonzero;stroke:#e1c1ff;stroke-width:0.72px;"/><path d="M83.04,17.64l-12.72,0l-12.6,2.88" style="fill:none;fill-rule:nonzero;stroke:#e1c1ff;stroke-width:0.72px;"/><path d="M45.96,26.16l-10.08,8.04l-8.04,10.2" style="fill:none;fill-rule:nonzero;stroke:#e1c1ff;stroke-width:0.72px;"/><path d="M22.2,56.04l-2.88,12.6l0,12.72" style="fill:none;fill-rule:nonzero;stroke:#e1c1ff;stroke-width:0.72px;"/><path d="M19.32,68.64l-0.12,0m63.84,-48.36l-11.64,0m11.64,-0.36l-11.64,0m-49.44,61.44l0,-11.64m-0.36,11.64l0,-11.64m36.84,-46.68l11.28,-2.52m-11.28,2.16l11.28,-2.52m-31.2,17.52l-7.32,9.24m6.12,-10.2l-7.32,9.12m6.96,-9.36l-7.32,9.12m-6.12,24.12l-0,11.64m46.8,-63.72l-0.12,0m-34.32,16.56l-0.12,0" style="fill:none;fill-rule:nonzero;stroke:#e1c1ff;stroke-width:0.72px;"/><path d="M38.88,37.2l-0.36,0.6l-2.52,-2.04l-0.12,-0.96l0.6,-0.6l0.96,0l2.04,2.64l-0.6,0.36Z" style="fill:none;fill-rule:nonzero;stroke:#e1c1ff;stroke-width:0.72px;"/><path d="M70.8,21.84l0.6,0l0,-3.12l-0.6,-0.72l-0.96,0.12l-0.48,0.72l0.72,3.24l0.72,-0.24Z" style="fill:none;fill-rule:nonzero;stroke:#e1c1ff;stroke-width:0.72px;"/><path d="M23.52,69.12l0,0.6l-3.24,0l-0.72,-0.6l0.12,-0.96l0.84,-0.48l3.12,0.84l-0.12,0.6Z" style="fill:none;fill-rule:nonzero;stroke:#e1c1ff;stroke-width:0.72px;"/></g><path d="M246.24,283.92l29.52,0l0,33.36l-29.52,0l0,-33.36Z" style="fill:none;stroke:#001f7f;stroke-width:0.72px;"/><path d="M332.4,283.92l29.52,0l-0,33.36l-29.52,0l0,-33.36Z" style="fill:none;stroke:#001f7f;stroke-width:0.72px;"/><path d="M332.4,241.68l29.52,0l0,33.48l-29.52,0l0,-33.48Z" style="fill:none;stroke:#e1c1ff;stroke-width:0.72px;"/><path d="M238.44,425.04l-5.64,0m5.64,1.56l-7.2,0m7.2,-29.88l-5.64,0m5.64,-1.56l-7.2,0m1.56,8.52l-1.56,0m1.56,17.88l-1.56,0m100.44,-187.08l0,2.28" style="fill:none;fill-rule:nonzero;stroke:#e1c1ff;stroke-width:0.72px;"/><path d="M376.8,232.56l77.28,0" style="fill:none;fill-rule:nonzero;stroke:#e1c1ff;stroke-width:0.72px;"/><path d="M463.08,189.6l14.64,0m14.4,0l1.56,0m-28.92,-1.68l12.96,0m14.4,0l3.12,0" style="fill:none;fill-rule:nonzero;stroke:#e1c1ff;stroke-width:0.72px;"/><path d="M463.08,31.2l-0,158.4" style="fill:none;fill-rule:nonzero;stroke:#e1c1ff;stroke-width:0.72px;"/><path d="M376.8,234.12l69.72,0m-215.28,192.48l0,-5.04m0,-17.88l0,-8.52" style="fill:none;fill-rule:nonzero;stroke:#e1c1ff;stroke-width:0.72px;"/><path d="M22.08,145.44l-0,21.84m-0.48,-21.84l-0,21.84m0.48,-46.2l-0,22.08m-0.48,-22.08l-0,22.08" style="fill:none;fill-rule:nonzero;stroke:#e1c1ff;stroke-width:0.72px;"/><g id="WINDOWS2" serif:id="WINDOWS"><path d="M23.64,143.16l-3.12,0l-0.72,0.72l0,0.84l0.72,0.72l3.12,0l0,-1.08l-0.24,0l0,-0.12l0.24,0l0,-1.08Z" style="fill:none;fill-rule:nonzero;stroke:#e1c1ff;stroke-width:0.72px;"/><path d="M23.64,121.08l-0,46.2m-4.2,0l0,-46.2m2.64,525.72l0,21.96m-0.48,-21.96l-0,21.96m0.48,-46.2l0,22.08m-0.48,-22.08l0,22.08" style="fill:none;fill-rule:nonzero;stroke:#e1c1ff;stroke-width:0.72px;"/><path d="M168.96,767.88l-46.2,0m0,4.2l46.2,0m-24.24,-751.68l-21.96,-0m21.96,-0.36l-21.96,0m46.2,0.36l-21.96,-0m21.96,-0.36l-21.96,-0" style="fill:none;fill-rule:nonzero;stroke:#e1c1ff;stroke-width:0.72px;"/><path d="M147,21.96l0,-3l-0.72,-0.84l-0.84,0l-0.72,0.84l0,3l1.08,0l0,-0.12l0.12,0l0,0.12l1.08,0Z" style="fill:none;fill-rule:nonzero;stroke:#e1c1ff;stroke-width:0.72px;"/><path d="M168.96,21.96l-46.2,-0m0,-4.2l46.2,0" style="fill:none;fill-rule:nonzero;stroke:#e1c1ff;stroke-width:0.72px;"/></g><path d="M207.12,31.2l-0,121.32m2.04,-119.4l-0,86.28m0,-51.24l-0,49.32m0,1.92l0,33.12" style="fill:none;fill-rule:nonzero;stroke:#e1c1ff;stroke-width:0.72px;"/><path d="M216.48,21.96l0,9.24l-9.36,0" style="fill:none;fill-rule:nonzero;stroke:#e1c1ff;stroke-width:0.72px;"/><path d="M209.16,33.12l9.36,0l0,-11.16" style="fill:none;fill-rule:nonzero;stroke:#e1c1ff;stroke-width:0.72px;"/><path d="M415.68,189.6l0,27.24m0,14.28l0,1.44m2.04,-42.96l0,27.24m0,14.28l0,1.44" style="fill:none;fill-rule:nonzero;stroke:#e1c1ff;stroke-width:0.72px;"/><g><path d="M463.2,250.8l-2.76,0.24l-2.64,0.84l-2.52,1.32l-2.16,1.8l10.08,10.08l0.48,-0.36l-10.08,-10.2l-0.48,0.48" style="fill:none;fill-rule:nonzero;stroke:#e1c1ff;stroke-width:0.72px;"/></g><path d="M504.6,425.04l0,-15.24m0,-14.4l0,-15m1.56,44.64l0,-15.24m0,-14.4l0,-16.56m-1.56,1.56l-10.92,0m12.48,-1.56l-10.92,0m-1.56,1.56l0,-190.8m1.56,189.24l0,-190.92m9.36,207.48l1.56,0m-1.56,14.4l1.56,0m-14.04,-220.2l0,-1.68m-14.4,1.68l0,-1.68" style="fill:none;fill-rule:nonzero;stroke:#e1c1ff;stroke-width:0.72px;"/><path d="M477.72,189.6l0.24,2.76l0.84,2.64l1.32,2.52l1.8,2.16l10.2,-10.08l-0.48,-0.48l-10.08,10.2l0.36,0.36" style="fill:none;fill-rule:nonzero;stroke:#e1c1ff;stroke-width:0.72px;"/><path d="M195.12,127.2l11.76,0l0,10.68l-11.76,0l0,-10.68Z" style="fill:none;stroke:#e1c1ff;stroke-width:0.72px;"/><path d="M83.88,31.44l-4.68,-0.48l-4.56,0l-4.68,0.6l-4.44,0.96l-4.44,1.44l-4.2,1.92l-4.08,2.28l-3.72,2.76l-3.48,3.12l-3,3.36l-2.76,3.84l-2.4,3.96l-1.8,4.2l-1.44,4.44l-1.08,4.56l-0.48,4.56l0,4.68l0.48,4.56" style="fill:none;fill-rule:nonzero;stroke:#e1c1ff;stroke-width:0.72px;"/><path d="M32.76,173.4l18,0m-18,-0.36l18,0" style="fill:none;fill-rule:nonzero;stroke:#e1c1ff;stroke-width:0.72px;"/><path d="M32.76,172.68l18,0l0,0.72" style="fill:none;fill-rule:nonzero;stroke:#e1c1ff;stroke-width:0.72px;"/><rect x="44.4" y="173.88" width="15.84" height="0.72" style="fill:none;stroke:#e1c1ff;stroke-width:0.72px;"/><path d="M60.24,174.24l-15.84,0" style="fill:none;fill-rule:nonzero;stroke:#e1c1ff;stroke-width:0.72px;"/><path d="M194.4,758.76l46.2,0m-71.64,0l-47.16,-0m0,-734.4l47.16,0" style="fill:none;fill-rule:nonzero;stroke:#e1c1ff;stroke-width:0.72px;"/><path d="M121.8,33.96l8.76,0" style="fill:none;fill-rule:nonzero;stroke:#e1c1ff;stroke-width:0.72px;"/><path d="M132,33.96l3,0m1.56,0l3,0" style="fill:none;fill-rule:nonzero;stroke:#e1c1ff;stroke-width:0.72px;"/><path d="M141,33.96l11.76,0" style="fill:none;fill-rule:nonzero;stroke:#e1c1ff;stroke-width:0.72px;"/><path d="M154.32,33.96l3,0m1.44,0l3,0" style="fill:none;fill-rule:nonzero;stroke:#e1c1ff;stroke-width:0.72px;"/><path d="M163.2,33.96l5.76,0" style="fill:none;fill-rule:nonzero;stroke:#e1c1ff;stroke-width:0.72px;"/><path d="M168.96,21.96l-47.16,-0l0,12" style="fill:none;fill-rule:nonzero;stroke:#e1c1ff;stroke-width:0.72px;"/><path d="M168.96,21.96l0,12" style="fill:none;fill-rule:nonzero;stroke:#e1c1ff;stroke-width:0.72px;"/><path d="M181.68,250.8l-0.84,0" style="fill:none;fill-rule:nonzero;stroke:#545454;stroke-width:0.72px;"/><path d="M180.84,236.52l0.84,0l0,0.72l14.28,0l0,-0.72l-14.28,0" style="fill:none;fill-rule:nonzero;stroke:#e1c1ff;stroke-width:0.72px;"/><path d="M195.96,236.52l-0.24,2.76l-0.84,2.76l-1.32,2.4l-1.8,2.16l-2.88,2.28l-2.28,1.08l-2.4,0.72l-2.52,0.12" style="fill:none;fill-rule:nonzero;stroke:#e1c1ff;stroke-width:0.72px;"/><path d="M180.84,250.8l0,89.4m0,-103.68l0,-2.04m0,120l0,2.04" style="fill:none;fill-rule:nonzero;stroke:#e1c1ff;stroke-width:0.72px;"/><g id="door"><path d="M427.92,221.04l-2.28,-1.8l-2.4,-1.32l-2.76,-0.84l-2.76,-0.24" style="fill:none;fill-rule:nonzero;stroke:#e1c1ff;stroke-width:0.72px;"/><path d="M427.92,221.04l-10.2,10.08l-0.36,-0.36l10.08,-10.2l0.48,0.48Z" style="fill:none;fill-rule:nonzero;stroke:#e1c1ff;stroke-width:0.72px;"/></g><g id="door1" serif:id="door"><path d="M317.344,221.428l-1.8,2.28l-1.32,2.4l-0.84,2.76l-0.24,2.76" style="fill:none;fill-rule:nonzero;stroke:#e1c1ff;stroke-width:0.72px;"/><path d="M317.344,221.428l10.08,10.2l-0.36,0.36l-10.2,-10.08l0.48,-0.48Z" style="fill:none;fill-rule:nonzero;stroke:#e1c1ff;stroke-width:0.72px;"/></g><g id="door2" serif:id="door"><path d="M317.875,255.879l-1.8,2.28l-1.32,2.4l-0.84,2.76l-0.24,2.76" style="fill:none;fill-rule:nonzero;stroke:#e1c1ff;stroke-width:0.72px;"/><path d="M317.875,255.879l10.08,10.2l-0.36,0.36l-10.2,-10.08l0.48,-0.48Z" style="fill:none;fill-rule:nonzero;stroke:#e1c1ff;stroke-width:0.72px;"/></g><rect x="194.4" y="29.52" width="14.76" height="1.68" style="fill:#e1c1ff;"/><path d="M238.32,265.8l0,90.72l-57.48,0l0,2.04l50.4,0l0,0.36l7.2,0l0,-93.12l-0.12,0Z" style="fill:none;fill-rule:nonzero;stroke:#e1c1ff;stroke-width:0.72px;"/><path d="M330.12,266.64l-2.04,0l0,2.28" style="fill:none;fill-rule:nonzero;stroke:#e1c1ff;stroke-width:0.72px;"/><path d="M361.56,187.56l101.52,0l0,2.04l-101.52,-0l0,-2.04Z" style="fill:#e1c1ff;"/><path d="M297.96,232.56l14.4,0l0,1.92l-14.4,0l0,-1.92Z" style="fill:none;stroke:#e1c1ff;stroke-width:0.72px;"/><rect x="192.48" y="138.48" width="14.4" height="13.44" style="fill:none;stroke:#e1c1ff;stroke-width:0.72px;"/><path d="M180.84,250.8l2.04,0l0,89.4l-2.04,0l0,-89.4Z" style="fill:#e1c1ff;"/><path d="M415.68,231.12l2.04,0m-2.04,-14.28l2.04,0" style="fill:#e1c1ff;fill-rule:nonzero;stroke:#e1c1ff;stroke-width:0.72px;"/></g></g></g><g id="TABLES-CHAIRS" serif:id="TABLES CHAIRS"><g id="WALLS-TABLE" serif:id="WALLS TABLE"><path d="M103.92,64.32l-2.04,0.24l-2.04,0.72l-1.8,1.2l-1.56,1.44l-1.08,1.8l-0.72,2.04l-0.24,2.16l0.24,2.16l0.72,1.92l1.08,1.92l1.56,1.44l1.8,1.2l2.04,0.72l2.04,0.24l2.16,-0.24l2.04,-0.72l1.8,-1.2l1.56,-1.44l1.08,-1.92l0.72,-1.92l0.24,-2.16l-0.24,-2.16l-0.72,-2.04l-1.08,-1.8l-1.56,-1.44l-1.8,-1.2l-2.04,-0.72l-2.16,-0.24Z" style="fill:none;fill-rule:nonzero;stroke:#e1c1ff;stroke-width:0.72px;"/><g id="CHAIRS"><path d="M111.36,77.04l0.24,-0.12l0.36,0.12l3.72,3.84l0.12,0.24l-0.12,0.36l-4.2,4.2l-0.24,0.12l-0.24,-0.12l-3.84,-3.84l-0.12,-0.24l0.12,-0.24l4.2,-4.32Z" style="fill:none;fill-rule:nonzero;stroke:#e1c1ff;stroke-width:0.72px;"/><path d="M117,82.2l-0.24,0.24l-0.24,-0.24l0.24,-0.24l0.24,0.24Z" style="fill:none;fill-rule:nonzero;stroke:#e1c1ff;stroke-width:0.72px;"/><rect x="112.08" y="86.52" width="0.36" height="0.36" style="fill:none;fill-rule:nonzero;stroke:#e1c1ff;stroke-width:0.72px;"/><path d="M116.64,82.08l-4.44,4.56l-0.36,0l-0.36,-0.48l-0.12,-0.12l0.12,-0.12l4.44,-4.56l0.36,0l0.36,0.48l0.12,0.12l-0.12,0.12Z" style="fill:none;fill-rule:nonzero;stroke:#e1c1ff;stroke-width:0.72px;"/><path d="M107.16,66.48l-0.12,-0.24l0.12,-0.24l3.84,-3.84l0.24,-0.12l0.24,0.12l4.2,4.2l0.12,0.24l-0.12,0.36l-3.72,3.72l-0.36,0.12l-0.24,-0.12l-4.2,-4.2Z" style="fill:none;fill-rule:nonzero;stroke:#e1c1ff;stroke-width:0.72px;"/><path d="M112.44,60.96l0,0.24l-0.24,0.12l-0.12,-0.12l0,-0.24l0.36,0Z" style="fill:none;fill-rule:nonzero;stroke:#e1c1ff;stroke-width:0.72px;"/><path d="M116.76,65.4l0.24,0.24l-0.24,0.24l-0.24,-0.24l0.24,-0.24Z" style="fill:none;fill-rule:nonzero;stroke:#e1c1ff;stroke-width:0.72px;"/><path d="M112.2,61.2l4.44,4.56l0.12,0.12l-0.12,0.12l-0.36,0.48l-0.36,0l-4.44,-4.56l-0.12,-0.12l0.12,-0.12l0.36,-0.48l0.36,0Z" style="fill:none;fill-rule:nonzero;stroke:#e1c1ff;stroke-width:0.72px;"/><path d="M96.6,70.8l-0.6,0l-3.84,-3.84l-0.12,-0.36l0.12,-0.24l4.32,-4.2l0.24,-0.12l0.24,0.12l3.84,3.84l0.12,0.24l-0.12,0.24l-4.2,4.32Z" style="fill:none;fill-rule:nonzero;stroke:#e1c1ff;stroke-width:0.72px;"/><path d="M90.96,65.64l0.24,-0.24l0.12,0.12l0,0.24l-0.12,0.12l-0.24,-0.24Z" style="fill:none;fill-rule:nonzero;stroke:#e1c1ff;stroke-width:0.72px;"/><path d="M95.52,60.96l0.36,0l0,0.24l-0.24,0.12l-0.12,-0.12l0,-0.24Z" style="fill:none;fill-rule:nonzero;stroke:#e1c1ff;stroke-width:0.72px;"/><path d="M91.32,65.76l4.44,-4.56l0.36,0l0.36,0.48l0,0.24l-4.56,4.56l-0.24,0l-0.36,-0.48l-0.12,-0.12l0.12,-0.12Z" style="fill:none;fill-rule:nonzero;stroke:#e1c1ff;stroke-width:0.72px;"/><path d="M100.8,81.36l0.12,0.24l-0.12,0.24l-3.84,3.84l-0.24,0.12l-0.24,-0.12l-4.32,-4.2l-0.12,-0.36l0.12,-0.24l3.84,-3.84l0.24,-0.12l0.36,0.12l4.2,4.32Z" style="fill:none;fill-rule:nonzero;stroke:#e1c1ff;stroke-width:0.72px;"/><rect x="95.52" y="86.52" width="0.36" height="0.36" style="fill:none;fill-rule:nonzero;stroke:#e1c1ff;stroke-width:0.72px;"/><path d="M91.2,82.44l-0.24,-0.24l0.24,-0.24l0.12,0.12l0,0.24l-0.12,0.12Z" style="fill:none;fill-rule:nonzero;stroke:#e1c1ff;stroke-width:0.72px;"/><path d="M95.76,86.64l-4.44,-4.56l-0.12,-0.12l0.12,-0.12l0.36,-0.48l0.24,0l4.56,4.56l0,0.24l-0.36,0.48l-0.36,0Z" style="fill:none;fill-rule:nonzero;stroke:#e1c1ff;stroke-width:0.72px;"/></g><rect id="ISLAND" x="143.28" y="73.68" width="29.76" height="78.48" style="fill:#e1c1ff;"/><g id="CHAIRS1" serif:id="CHAIRS"><path d="M73.68,77.28l0.24,-0.12l0.36,0.12l3.72,3.84l0.12,0.24l-0.12,0.36l-4.2,4.2l-0.24,0.12l-0.24,-0.12l-3.84,-3.84l-0.12,-0.24l0.12,-0.24l4.2,-4.32Z" style="fill:none;fill-rule:nonzero;stroke:#e1c1ff;stroke-width:0.72px;"/><path d="M79.32,82.44l-0.24,0.24l-0.24,-0.24l0.24,-0.24l0.24,0.24Z" style="fill:none;fill-rule:nonzero;stroke:#e1c1ff;stroke-width:0.72px;"/><rect x="74.4" y="86.76" width="0.36" height="0.36" style="fill:none;fill-rule:nonzero;stroke:#e1c1ff;stroke-width:0.72px;"/><path d="M78.96,82.32l-4.44,4.56l-0.36,0l-0.36,-0.48l-0.12,-0.12l0.12,-0.12l4.44,-4.56l0.36,0l0.36,0.48l0.12,0.12l-0.12,0.12Z" style="fill:none;fill-rule:nonzero;stroke:#e1c1ff;stroke-width:0.72px;"/><path d="M69.48,66.72l-0.12,-0.24l0.12,-0.24l3.84,-3.84l0.24,-0.12l0.24,0.12l4.2,4.2l0.12,0.24l-0.12,0.36l-3.72,3.72l-0.36,0.12l-0.24,-0.12l-4.2,-4.2Z" style="fill:none;fill-rule:nonzero;stroke:#e1c1ff;stroke-width:0.72px;"/><path d="M74.76,61.2l0,0.24l-0.24,0.12l-0.12,-0.12l0,-0.24l0.36,0Z" style="fill:none;fill-rule:nonzero;stroke:#e1c1ff;stroke-width:0.72px;"/><path d="M79.08,65.64l0.24,0.24l-0.24,0.24l-0.24,-0.24l0.24,-0.24Z" style="fill:none;fill-rule:nonzero;stroke:#e1c1ff;stroke-width:0.72px;"/><path d="M74.52,61.44l4.44,4.56l0.12,0.12l-0.12,0.12l-0.36,0.48l-0.36,0l-4.44,-4.56l-0.12,-0.12l0.12,-0.12l0.36,-0.48l0.36,0Z" style="fill:none;fill-rule:nonzero;stroke:#e1c1ff;stroke-width:0.72px;"/><path d="M58.92,71.04l-0.6,0l-3.84,-3.84l-0.12,-0.36l0.12,-0.24l4.32,-4.2l0.24,-0.12l0.24,0.12l3.84,3.84l0.12,0.24l-0.12,0.24l-4.2,4.32Z" style="fill:none;fill-rule:nonzero;stroke:#e1c1ff;stroke-width:0.72px;"/><path d="M53.28,65.88l0.24,-0.24l0.12,0.12l0,0.24l-0.12,0.12l-0.24,-0.24Z" style="fill:none;fill-rule:nonzero;stroke:#e1c1ff;stroke-width:0.72px;"/><path d="M57.84,61.2l0.36,0l0,0.24l-0.24,0.12l-0.12,-0.12l0,-0.24Z" style="fill:none;fill-rule:nonzero;stroke:#e1c1ff;stroke-width:0.72px;"/><path d="M53.64,66l4.44,-4.56l0.36,0l0.36,0.48l0,0.24l-4.56,4.56l-0.24,0l-0.36,-0.48l-0.12,-0.12l0.12,-0.12Z" style="fill:none;fill-rule:nonzero;stroke:#e1c1ff;stroke-width:0.72px;"/><path d="M63.12,81.6l0.12,0.24l-0.12,0.24l-3.84,3.84l-0.24,0.12l-0.24,-0.12l-4.32,-4.2l-0.12,-0.36l0.12,-0.24l3.84,-3.84l0.24,-0.12l0.36,0.12l4.2,4.32Z" style="fill:none;fill-rule:nonzero;stroke:#e1c1ff;stroke-width:0.72px;"/><rect x="57.84" y="86.76" width="0.36" height="0.36" style="fill:none;fill-rule:nonzero;stroke:#e1c1ff;stroke-width:0.72px;"/><path d="M53.52,82.68l-0.24,-0.24l0.24,-0.24l0.12,0.12l0,0.24l-0.12,0.12Z" style="fill:none;fill-rule:nonzero;stroke:#e1c1ff;stroke-width:0.72px;"/><path d="M58.08,86.88l-4.44,-4.56l-0.12,-0.12l0.12,-0.12l0.36,-0.48l0.24,0l4.56,4.56l0,0.24l-0.36,0.48l-0.36,0Z" style="fill:none;fill-rule:nonzero;stroke:#e1c1ff;stroke-width:0.72px;"/></g><path id="TABLE" d="M66.72,64.32l-2.16,0.24l-2.04,0.72l-1.8,1.2l-1.56,1.44l-1.08,1.8l-0.72,2.04l-0.24,2.16l0.24,2.16l0.72,1.92l1.08,1.92l1.56,1.44l1.8,1.2l2.04,0.72l2.16,0.24l2.04,-0.24l2.04,-0.72l1.8,-1.2l1.56,-1.44l1.08,-1.92l0.72,-1.92l0.24,-2.16l-0.24,-2.16l-0.72,-2.04l-1.08,-1.8l-1.56,-1.44l-1.8,-1.2l-2.04,-0.72l-2.04,-0.24Z" style="fill:none;fill-rule:nonzero;stroke:#e1c1ff;stroke-width:0.72px;"/><g id="ARC-CHAIRS" serif:id="ARC CHAIRS"><path d="M78.96,37.92l0.12,-8.4m-0.36,0l-0.12,8.28m-0.12,-2.52l0,-3.6m-7.56,-2.28l-0.12,8.28m-0.36,0l0.12,-8.28m0.48,5.76l0.12,-3.6m3.72,-2.52l-0.12,0" style="fill:none;fill-rule:nonzero;stroke:#e1c1ff;stroke-width:0.72px;"/><path d="M77.88,30.12l-1.44,-0.72l-1.56,-0.24l-1.68,0.24l-1.44,0.6l-0.6,0.72l-0.12,0.84" style="fill:none;fill-rule:nonzero;stroke:#e1c1ff;stroke-width:0.72px;"/><path d="M70.92,29.4l0,-0.36l-0.36,0l0,0.36" style="fill:none;fill-rule:nonzero;stroke:#e1c1ff;stroke-width:0.72px;"/><path d="M70.8,32.4l0.24,0m-0.24,-0.36l0.24,0" style="fill:none;fill-rule:nonzero;stroke:#e1c1ff;stroke-width:0.72px;"/><path d="M78.48,31.68l0,-0.84l-0.6,-0.72" style="fill:none;fill-rule:nonzero;stroke:#e1c1ff;stroke-width:0.72px;"/><path d="M79.08,29.52l0.12,-0.12l-0.24,-0.24l-0.12,0l-0.12,0.24l0,0.12" style="fill:none;fill-rule:nonzero;stroke:#e1c1ff;stroke-width:0.72px;"/><path d="M78.72,32.52l-0.24,0m0.24,-0.24l-0.24,-0.12m-6,4.8l4.44,0" style="fill:none;fill-rule:nonzero;stroke:#e1c1ff;stroke-width:0.72px;"/><path d="M72,37.68l2.64,0.36l2.76,-0.36" style="fill:none;fill-rule:nonzero;stroke:#e1c1ff;stroke-width:0.72px;"/><path d="M71.64,36.24l0.48,0.36m-1.08,-1.8l-0.24,0m0.24,0.36l0.24,0.72m-0.48,-0.84l0.24,0m0.24,0.84l0.36,0.36m-0.6,0.72l1.32,0m-1.32,0.12l0.96,0.6m-1.2,0.24l0,-0.24m-0.36,0l-0.12,0.24m0.72,-0.84l0,-0.12" style="fill:none;fill-rule:nonzero;stroke:#e1c1ff;stroke-width:0.72px;"/><path d="M70.32,37.92l0.12,0.12l0.12,0.12l0.24,-0.24" style="fill:none;fill-rule:nonzero;stroke:#e1c1ff;stroke-width:0.72px;"/><path d="M72.36,36.96l0.12,0l-0.36,-0.36" style="fill:none;fill-rule:nonzero;stroke:#e1c1ff;stroke-width:0.72px;"/><path d="M77.28,36.72l0.48,-0.36m0.72,-1.44l0.24,0m-0.6,1.08l0.36,-0.72m0.24,-0.12l-0.24,0m-0.72,1.2l0.36,-0.36m0.24,1.08l-1.32,-0.12m1.32,0.24l-0.96,0.48" style="fill:none;fill-rule:nonzero;stroke:#e1c1ff;stroke-width:0.72px;"/><path d="M77.04,36.96l-0.12,0l0.36,-0.24" style="fill:none;fill-rule:nonzero;stroke:#e1c1ff;stroke-width:0.72px;"/><path d="M78.96,38.04l0,-0.12m-0.36,0l0,0.12m-0.24,-0.84l0,-0.12" style="fill:none;fill-rule:nonzero;stroke:#e1c1ff;stroke-width:0.72px;"/><path d="M78.6,38.04l0,0.12l0.24,0.12l0.12,-0.12l0,-0.12" style="fill:none;fill-rule:nonzero;stroke:#e1c1ff;stroke-width:0.72px;"/><path d="M65.4,39.72l-2.76,-7.92m-0.36,0.12l2.88,7.92m-1.08,-2.4l-1.2,-3.36m-8.04,0.48l2.88,7.92m-0.36,0.12l-2.76,-7.92m2.52,5.28l-1.2,-3.36m2.52,-3.6l-0.12,0" style="fill:none;fill-rule:nonzero;stroke:#e1c1ff;stroke-width:0.72px;"/><path d="M61.68,32.76l-1.56,0l-1.56,0.36l-1.44,0.72l-1.2,1.08l-0.24,0.84l0.24,0.84" style="fill:none;fill-rule:nonzero;stroke:#e1c1ff;stroke-width:0.72px;"/><path d="M54.84,34.56l0,-0.12l-0.12,-0.12l-0.12,0l-0.12,0.12l0,0.12l0.12,0.12" style="fill:none;fill-rule:nonzero;stroke:#e1c1ff;stroke-width:0.72px;"/><path d="M55.92,37.44l0.24,0m-0.36,-0.24l0.24,-0.12" style="fill:none;fill-rule:nonzero;stroke:#e1c1ff;stroke-width:0.72px;"/><path d="M62.88,34.08l-0.36,-0.84l-0.84,-0.48" style="fill:none;fill-rule:nonzero;stroke:#e1c1ff;stroke-width:0.72px;"/><path d="M62.64,31.8l0,-0.12l-0.12,-0.12l-0.12,0l-0.12,0.12l-0.12,0.12l0.12,0.12" style="fill:none;fill-rule:nonzero;stroke:#e1c1ff;stroke-width:0.72px;"/><path d="M63.36,34.8l-0.24,0.12m0.12,-0.48l-0.24,0.12m-3.96,6.48l4.2,-1.44" style="fill:none;fill-rule:nonzero;stroke:#e1c1ff;stroke-width:0.72px;"/><path d="M58.92,42l2.64,-0.6l2.4,-1.32" style="fill:none;fill-rule:nonzero;stroke:#e1c1ff;stroke-width:0.72px;"/><path d="M58.08,40.8l0.6,0.12m-1.68,-1.32l-0.24,0.12m0.36,0.24l0.48,0.6m-0.72,-0.6l0.12,-0.12m0.6,0.72l0.48,0.24m-0.36,0.84l1.2,-0.48m-1.2,0.6l1.2,0.12m-1.08,0.72l-0.12,-0.12m-0.36,0.12l0.12,0.24m0.24,-1.08l0,-0.12" style="fill:none;fill-rule:nonzero;stroke:#e1c1ff;stroke-width:0.72px;"/><path d="M57.48,42.72l0.12,0.12l0.24,-0l-0,-0.24" style="fill:none;fill-rule:nonzero;stroke:#e1c1ff;stroke-width:0.72px;"/><path d="M58.92,41.16l0.12,-0.12l-0.36,-0.12" style="fill:none;fill-rule:nonzero;stroke:#e1c1ff;stroke-width:0.72px;"/><path d="M63.48,39.12l0.36,-0.48m0.12,-1.56l0.12,-0.12m0,1.2l0,-0.72m0.12,-0.12l-0.24,0.12m-0.12,1.2l0.24,-0.48m0.6,0.96l-1.32,0.48m1.32,-0.36l-0.72,0.84" style="fill:none;fill-rule:nonzero;stroke:#e1c1ff;stroke-width:0.72px;"/><path d="M63.36,39.6l-0.12,0l0.24,-0.48" style="fill:none;fill-rule:nonzero;stroke:#e1c1ff;stroke-width:0.72px;"/><path d="M65.52,39.84l-0.12,-0.12m-0.24,0.12l0,0.12m-0.48,-0.72l0,-0.12" style="fill:none;fill-rule:nonzero;stroke:#e1c1ff;stroke-width:0.72px;"/><path d="M65.16,39.96l0.12,0.12l0.12,0l0.12,-0.12l0,-0.12" style="fill:none;fill-rule:nonzero;stroke:#e1c1ff;stroke-width:0.72px;"/><path d="M53.52,46.2l-5.52,-6.36m-0.24,0.24l5.4,6.36m-1.8,-1.8l-2.28,-2.76m-7.32,3.24l5.52,6.36m-0.24,0.24l-5.52,-6.36m4.2,4.08l-2.28,-2.76m1.08,-4.32l-0.12,0" style="fill:none;fill-rule:nonzero;stroke:#e1c1ff;stroke-width:0.72px;"/><path d="M47.52,41.04l-1.56,0.48l-1.32,0.96l-1.08,1.2l-0.72,1.44l0.12,0.84l0.48,0.72" style="fill:none;fill-rule:nonzero;stroke:#e1c1ff;stroke-width:0.72px;"/><path d="M41.76,45.12l0,-0.12l-0.36,0l0,0.36l0.12,0" style="fill:none;fill-rule:nonzero;stroke:#e1c1ff;stroke-width:0.72px;"/><path d="M43.8,47.52l0.12,-0.24m-0.36,0l0.24,-0.24" style="fill:none;fill-rule:nonzero;stroke:#e1c1ff;stroke-width:0.72px;"/><path d="M49.08,41.88l-0.72,-0.6l-0.84,-0.24" style="fill:none;fill-rule:nonzero;stroke:#e1c1ff;stroke-width:0.72px;"/><path d="M48,39.84l0,-0.12l-0.12,-0.12l-0.24,0.12l0,0.24l0.12,0.12" style="fill:none;fill-rule:nonzero;stroke:#e1c1ff;stroke-width:0.72px;"/><path d="M49.8,42.36l-0.24,0.12m0,-0.36l-0.24,0.12m-1.32,7.56l3.36,-2.88" style="fill:none;fill-rule:nonzero;stroke:#e1c1ff;stroke-width:0.72px;"/><path d="M48.12,50.64l2.28,-1.44l1.8,-2.04" style="fill:none;fill-rule:nonzero;stroke:#e1c1ff;stroke-width:0.72px;"/><path d="M46.92,49.8l0.6,0m-2.04,-0.72l-0.12,0.24m0.36,0.12l0.72,0.36m-0.96,-0.24l0.24,-0.24m0.72,0.48l0.48,0m0,0.96l0.96,-0.84m-0.84,0.96l1.08,-0.24m-0.72,0.96l-0.12,-0.12m-0.24,0.24l0,0.24m0,-1.08l-0.12,-0.12" style="fill:none;fill-rule:nonzero;stroke:#e1c1ff;stroke-width:0.72px;"/><path d="M47.04,51.96l0.36,0l0,-0.36" style="fill:none;fill-rule:nonzero;stroke:#e1c1ff;stroke-width:0.72px;"/><path d="M47.88,49.92l0.12,-0.12l-0.48,0" style="fill:none;fill-rule:nonzero;stroke:#e1c1ff;stroke-width:0.72px;"/><path d="M51.36,46.44l0.24,-0.6m-0.48,-1.56l0.12,-0.12m0.36,1.08l-0.24,-0.6m0.12,-0.24l-0.12,0.12m0.24,1.32l0,-0.48m0.96,0.6l-1.08,0.84m1.2,-0.72l-0.48,1.08" style="fill:none;fill-rule:nonzero;stroke:#e1c1ff;stroke-width:0.72px;"/><path d="M51.48,46.8l-0.12,0.12l0,-0.48" style="fill:none;fill-rule:nonzero;stroke:#e1c1ff;stroke-width:0.72px;"/><path d="M53.64,46.32l-0.12,-0.12m-0.24,0.24l0,0.12m-0.6,-0.48l-0.12,-0.12" style="fill:none;fill-rule:nonzero;stroke:#e1c1ff;stroke-width:0.72px;"/><path d="M53.28,46.56l0.12,0.12l0.24,-0.12l-0,-0.24" style="fill:none;fill-rule:nonzero;stroke:#e1c1ff;stroke-width:0.72px;"/><path d="M44.52,56.52l-7.32,-3.96m-0.12,0.24l7.32,3.96m-2.28,-0.96l-3.24,-1.68m-5.52,5.64l7.32,3.96m-0.24,0.24l-7.32,-3.96m5.4,2.28l-3.12,-1.68m-0.48,-4.56l-0.12,0" style="fill:none;fill-rule:nonzero;stroke:#e1c1ff;stroke-width:0.72px;"/><path d="M37.2,53.88l-1.2,0.96l-0.96,1.32l-0.6,1.44l-0.24,1.68l0.48,0.84l0.72,0.48" style="fill:none;fill-rule:nonzero;stroke:#e1c1ff;stroke-width:0.72px;"/><path d="M33.36,59.76l-0.12,-0.12l-0.36,0l0,0.24l0.12,0.12l0.12,0" style="fill:none;fill-rule:nonzero;stroke:#e1c1ff;stroke-width:0.72px;"/><path d="M36,61.2l0.12,-0.24m-0.48,0l0.12,-0.12" style="fill:none;fill-rule:nonzero;stroke:#e1c1ff;stroke-width:0.72px;"/><path d="M38.88,54.12l-0.84,-0.36l-0.84,0.12" style="fill:none;fill-rule:nonzero;stroke:#e1c1ff;stroke-width:0.72px;"/><path d="M37.2,52.56l-0.12,-0.12l-0.24,0l0,0.24l0.12,0.12l0.12,0" style="fill:none;fill-rule:nonzero;stroke:#e1c1ff;stroke-width:0.72px;"/><path d="M39.72,54.24l-0.12,0.24m-0.12,-0.36l-0.12,0.24m1.32,7.44l2.16,-3.84" style="fill:none;fill-rule:nonzero;stroke:#e1c1ff;stroke-width:0.72px;"/><path d="M41.16,62.52l1.56,-2.16l0.96,-2.52" style="fill:none;fill-rule:nonzero;stroke:#e1c1ff;stroke-width:0.72px;"/><path d="M39.72,62.16l0.6,-0.24m-2.16,0.12l-0.12,0.24m0.48,0l0.72,0.12m-0.96,0l0.12,-0.12m0.84,0.12l0.48,-0.24m0.36,0.96l0.6,-1.2m-0.48,1.32l0.96,-0.72m-0.36,1.2l-0.12,0m-0.24,0.24l0.24,0.12m-0.48,-0.84l-0.12,-0.12" style="fill:none;fill-rule:nonzero;stroke:#e1c1ff;stroke-width:0.72px;"/><path d="M40.68,64.08l0.24,0l0,-0.24l-0.12,-0.12" style="fill:none;fill-rule:nonzero;stroke:#e1c1ff;stroke-width:0.72px;"/><path d="M40.68,61.92l0,-0.12l-0.36,0.12" style="fill:none;fill-rule:nonzero;stroke:#e1c1ff;stroke-width:0.72px;"/><path d="M42.72,57.48l-0.12,-0.6m-0.96,-1.32l0.12,-0.24m0.72,0.96l-0.48,-0.48m0.12,-0.24l-0.12,0.12m0.6,1.2l-0.12,-0.6m1.08,0.36l-0.6,1.2m0.84,-1.2l-0.12,1.2" style="fill:none;fill-rule:nonzero;stroke:#e1c1ff;stroke-width:0.72px;"/><path d="M42.96,57.84l-0.12,0.12l-0.12,-0.48" style="fill:none;fill-rule:nonzero;stroke:#e1c1ff;stroke-width:0.72px;"/><path d="M44.76,56.52l-0.24,0m-0.12,0.24l0.12,0.12m-0.72,-0.24l-0.24,0" style="fill:none;fill-rule:nonzero;stroke:#e1c1ff;stroke-width:0.72px;"/><path d="M44.52,56.88l0.36,0l0,-0.24l-0.12,-0.12" style="fill:none;fill-rule:nonzero;stroke:#e1c1ff;stroke-width:0.72px;"/><path d="M39.96,69.36l-8.28,-1.2m-0.12,0.36l8.28,1.08m-2.52,-0.12l-3.6,-0.48m-3.24,7.32l8.28,1.08m0,0.36l-8.28,-1.08m5.88,0.24l-3.6,-0.6m-2.04,-3.96l-0.12,0" style="fill:none;fill-rule:nonzero;stroke:#e1c1ff;stroke-width:0.72px;"/><path d="M32.04,69.48l-0.72,1.32l-0.48,1.56l0,1.68l0.36,1.56l0.72,0.6l0.84,0.12" style="fill:none;fill-rule:nonzero;stroke:#e1c1ff;stroke-width:0.72px;"/><path d="M30.48,76.32l-0.12,-0.12l-0.24,0.24l0.12,0.12l0.12,0.12l0.12,0" style="fill:none;fill-rule:nonzero;stroke:#e1c1ff;stroke-width:0.72px;"/><path d="M33.48,76.68l0.12,-0.24m-0.36,0.24l0,-0.24" style="fill:none;fill-rule:nonzero;stroke:#e1c1ff;stroke-width:0.72px;"/><path d="M33.72,69l-0.84,0l-0.84,0.36" style="fill:none;fill-rule:nonzero;stroke:#e1c1ff;stroke-width:0.72px;"/><path d="M31.68,68.16l-0.36,0l0,0.24l0.12,0.12l0.12,0" style="fill:none;fill-rule:nonzero;stroke:#e1c1ff;stroke-width:0.72px;"/><path d="M34.56,68.88l0,0.24m-0.24,-0.24l-0.12,0.24m3.96,6.48l0.6,-4.32" style="fill:none;fill-rule:nonzero;stroke:#e1c1ff;stroke-width:0.72px;"/><path d="M38.88,76.2l0.72,-2.64l0,-2.64" style="fill:none;fill-rule:nonzero;stroke:#e1c1ff;stroke-width:0.72px;"/><path d="M37.44,76.32l0.36,-0.36m-1.92,0.84l0,0.24m0.48,-0.12l0.6,-0.24m-0.84,0.36l0.12,-0.24m0.72,-0.12l0.48,-0.36m0.6,0.72l0.12,-1.32m0,1.44l0.72,-0.96m0.12,1.2l-0.24,0m0,0.36l0.24,0.12m-0.84,-0.72l-0.12,-0.12" style="fill:none;fill-rule:nonzero;stroke:#e1c1ff;stroke-width:0.72px;"/><path d="M39,77.88l0.12,-0.12l0,-0.24l-0.12,-0.12" style="fill:none;fill-rule:nonzero;stroke:#e1c1ff;stroke-width:0.72px;"/><path d="M38.16,75.72l0,-0.12l-0.36,0.36" style="fill:none;fill-rule:nonzero;stroke:#e1c1ff;stroke-width:0.72px;"/><path d="M38.52,70.8l-0.24,-0.48m-1.44,-0.84l0.12,-0.24m0.96,0.6l-0.6,-0.36m-0.12,-0.24l0,0.24m1.08,0.84l-0.36,-0.48m1.08,-0.12l-0.12,1.32m0.36,-1.2l0.36,1.08" style="fill:none;fill-rule:nonzero;stroke:#e1c1ff;stroke-width:0.72px;"/><path d="M38.88,71.04l-0.12,0.24l-0.24,-0.48" style="fill:none;fill-rule:nonzero;stroke:#e1c1ff;stroke-width:0.72px;"/><path d="M40.08,69.24l-0.12,0.12m-0.12,0.24l0.24,0.12m-0.84,0.12l-0.24,-0.12" style="fill:none;fill-rule:nonzero;stroke:#e1c1ff;stroke-width:0.72px;"/><path d="M40.08,69.72l0.12,0l0.12,-0.24l-0.12,-0.12l-0.12,0" style="fill:none;fill-rule:nonzero;stroke:#e1c1ff;stroke-width:0.72px;"/></g><rect x="23.64" y="264.36" width="9" height="46.2" style="fill:#e1c1ff;"/><rect x="23.64" y="192.72" width="9" height="46.2" style="fill:#e1c1ff;"/><g><path d="M70.56,174.6l0,-1.92l0.72,0l0,-14.4l-0.72,0l0,14.4" style="fill:none;fill-rule:nonzero;stroke:#e1c1ff;stroke-width:0.72px;"/><path d="M80.76,162.48l-2.16,-1.8l-2.52,-1.32l-2.64,-0.72l-2.88,-0.36" style="fill:none;fill-rule:nonzero;stroke:#e1c1ff;stroke-width:0.72px;"/><path d="M83.04,165.48l-2.28,-3" style="fill:none;fill-rule:nonzero;stroke:#e1c1ff;stroke-width:0.72px;"/><path d="M84.96,172.68l-0.24,-2.52l-0.6,-2.4l-1.08,-2.28" style="fill:none;fill-rule:nonzero;stroke:#e1c1ff;stroke-width:0.72px;"/></g><path d="M182.88,278.76l55.32,0l0,-2.04l-55.32,0" style="fill:#e1c1ff;fill-rule:nonzero;"/><path d="M228,244.92l9.6,0l0,28.68l-9.6,0l0,-28.68Z" style="fill:none;stroke:#e1c1ff;stroke-width:0.72px;"/><rect x="182.88" y="266.04" width="28.68" height="9.48" style="fill:none;stroke:#e1c1ff;stroke-width:0.72px;"/></g><g id="KEEP"><g id="CHAIR-GROUP" serif:id="CHAIR GROUP"><path d="M127.8,257.64l0,-12l-0.72,0l0,12l0.72,0l6,10.32" style="fill:none;fill-rule:nonzero;stroke:#e1c1ff;stroke-width:0.72px;"/><path d="M127.8,257.64l-0.72,0.36l6,10.32l0.72,-0.36" style="fill:none;fill-rule:nonzero;stroke:#e1c1ff;stroke-width:0.72px;"/><path d="M127.775,245.684l-0.695,-0.404l6.025,-10.364l0.695,0.404l-6.025,10.364Z" style="fill:none;stroke:#e1c1ff;stroke-width:0.72px;"/><path d="M141.96,246.48l0,0.12l-0.12,0l0,-0.12l-0.12,0l-2.52,-3.12l-1.56,-2.64l-0.36,-1.44l-0.12,-1.32l0.24,-1.44l0.6,-1.2l0.96,-1.08l1.08,-0.84l1.32,-0.48l1.44,-0.12l1.32,0.12l1.68,0.6l2.52,1.08l2.28,1.56l0.12,0.12l-0.12,0.12l-0.6,0.72l-0.12,-0.12l-0.24,-0.12l-1.92,-1.2l-0.96,-0.48l-1.8,-0.72" style="fill:none;fill-rule:nonzero;stroke:#e1c1ff;stroke-width:0.72px;"/><path d="M139.2,241.08l-0.6,-1.32l-0.24,-1.44l0.36,-1.44l0.84,-1.32l1.08,-0.96l1.44,-0.48l1.44,-0.12l1.44,0.48" style="fill:none;fill-rule:nonzero;stroke:#e1c1ff;stroke-width:0.72px;"/><path d="M139.2,241.08l0.84,1.44l0.6,0.96l0.72,0.96l0.6,0.6l0.36,0.24l0,0.12l0.24,0.24l0,0.12l-0.48,0.6l-0.12,0.12" style="fill:none;fill-rule:nonzero;stroke:#e1c1ff;stroke-width:0.72px;"/><path d="M142.08,246.36l0.84,0.72" style="fill:none;fill-rule:nonzero;stroke:#e1c1ff;stroke-width:0.72px;"/><path d="M144.84,247.08l-0.96,0.24l-0.96,-0.24" style="fill:none;fill-rule:nonzero;stroke:#e1c1ff;stroke-width:0.72px;"/><path d="M151.44,239.4l-1.92,2.76l-2.28,2.64l-2.4,2.28" style="fill:none;fill-rule:nonzero;stroke:#e1c1ff;stroke-width:0.72px;"/><path d="M151.56,237.48l0.12,0.96l-0.24,0.96" style="fill:none;fill-rule:nonzero;stroke:#e1c1ff;stroke-width:0.72px;"/><path d="M151.56,237.48l-0.96,-1.08l-0.6,0.72l-0.24,0.24l-0.12,0l-0.96,-0.6l-0.84,-0.36l-2.04,-0.6l-0.96,0" style="fill:none;fill-rule:nonzero;stroke:#e1c1ff;stroke-width:0.72px;"/><path d="M140.52,240.72l0,-1.2l0.36,-1.2l0.6,-0.96l0.96,-0.84l1.2,-0.48l1.2,-0.24" style="fill:none;fill-rule:nonzero;stroke:#e1c1ff;stroke-width:0.72px;"/><path d="M140.52,240.72l0.24,1.2l0.36,0.84l0.48,0.96l0.48,0.6l0.6,0.84l0.12,0.24l0,0.12l-0.72,0.84" style="fill:none;fill-rule:nonzero;stroke:#e1c1ff;stroke-width:0.72px;"/><path d="M149.88,237l0,0.12l0.12,0l-0.24,0.24l-0.12,0l-0.96,-0.6l-0.84,-0.36l-2.04,-0.6l-0.96,0" style="fill:none;fill-rule:nonzero;stroke:#e1c1ff;stroke-width:0.72px;"/><path d="M140.52,240.72l0,-1.2l0.36,-1.2l0.6,-0.96l0.96,-0.84l1.2,-0.48l1.2,-0.24" style="fill:none;fill-rule:nonzero;stroke:#e1c1ff;stroke-width:0.72px;"/><path d="M140.52,240.72l0.24,1.2l0.36,0.84l0.48,0.96l0.48,0.6l0.6,0.84l0.12,0.24l0,0.12l-0.24,0.24l0,-0.12l-0.84,-0.84l-0.48,-0.6l-0.36,-0.36l-0.36,-0.48l-0.48,-0.84l-1.08,-1.68l-0.24,-0.48l-0.12,-0.72l-0.12,-1.44l0.36,-1.44l0.84,-1.32l1.2,-0.84l1.44,-0.48l1.56,0l0.48,0.12l0.24,0.12l0.48,0.12l0.6,0.24l0.6,0.36l0.6,0.24l0.72,0.24l0.24,0.12l0.72,0.48l0.6,0.36l0.36,0.24l0.12,0.12l0.12,0l0.12,0.12" style="fill:none;fill-rule:nonzero;stroke:#e1c1ff;stroke-width:0.72px;"/><path d="M141.96,256.8l-0.24,0l-2.52,3.12l-1.56,2.76l-0.36,1.32l-0.12,1.32l0.24,1.44l0.6,1.2l0.96,1.08l1.08,0.84l1.32,0.48l1.44,0.12l1.32,-0.12l1.68,-0.48l2.52,-1.2l2.28,-1.44l0.12,-0.24l-0.72,-0.72l-0.12,0l-0.24,0.24l-1.92,1.08l-0.96,0.48l-1.8,0.84" style="fill:none;fill-rule:nonzero;stroke:#e1c1ff;stroke-width:0.72px;"/><path d="M139.2,262.2l-0.6,1.32l-0.24,1.44l0.36,1.56l0.84,1.2l1.08,0.96l1.44,0.48l1.44,0.12l1.44,-0.36" style="fill:none;fill-rule:nonzero;stroke:#e1c1ff;stroke-width:0.72px;"/><path d="M139.2,262.2l0.84,-1.44l0.6,-0.96l0.72,-0.96l0.6,-0.6l0.36,-0.24l0,-0.12l0.24,-0.24l0,-0.12l-0.48,-0.6l-0.12,-0.12" style="fill:none;fill-rule:nonzero;stroke:#e1c1ff;stroke-width:0.72px;"/><path d="M142.08,256.92l0.84,-0.72" style="fill:none;fill-rule:nonzero;stroke:#e1c1ff;stroke-width:0.72px;"/><path d="M144.84,256.2l-0.96,-0.12l-0.96,0.12" style="fill:none;fill-rule:nonzero;stroke:#e1c1ff;stroke-width:0.72px;"/><path d="M151.44,264l-1.92,-2.88l-2.28,-2.52l-2.4,-2.4" style="fill:none;fill-rule:nonzero;stroke:#e1c1ff;stroke-width:0.72px;"/><path d="M151.56,265.92l0.12,-1.08l-0.24,-0.84" style="fill:none;fill-rule:nonzero;stroke:#e1c1ff;stroke-width:0.72px;"/><path d="M151.56,265.92l-0.96,0.96l-0.6,-0.6l-0.12,-0.24l-0.12,-0.12l-0.12,0.12l-0.96,0.48l-0.84,0.36l-2.04,0.6l-0.96,0" style="fill:none;fill-rule:nonzero;stroke:#e1c1ff;stroke-width:0.72px;"/><path d="M140.52,262.56l0,1.2l0.36,1.2l0.6,1.08l0.96,0.72l1.2,0.6l1.2,0.12" style="fill:none;fill-rule:nonzero;stroke:#e1c1ff;stroke-width:0.72px;"/><path d="M140.52,262.56l0.24,-1.2l0.36,-0.84l0.48,-0.96l0.48,-0.6l0.6,-0.84l0.12,-0.24l0,-0.12l-0.72,-0.84" style="fill:none;fill-rule:nonzero;stroke:#e1c1ff;stroke-width:0.72px;"/><path d="M149.88,266.28l0.12,0l-0.12,-0.24l-0.24,0l-0.96,0.48l-0.84,0.36l-2.04,0.6l-0.96,0" style="fill:none;fill-rule:nonzero;stroke:#e1c1ff;stroke-width:0.72px;"/><path d="M140.52,262.56l0,1.2l0.36,1.2l0.6,1.08l0.96,0.72l1.2,0.6l1.2,0.12" style="fill:none;fill-rule:nonzero;stroke:#e1c1ff;stroke-width:0.72px;"/><path d="M140.52,262.56l0.24,-1.2l0.36,-0.84l0.48,-0.96l0.48,-0.6l0.6,-0.84l0.12,-0.24l0,-0.12l-0.24,-0.24l0,0.24l-0.36,0.24l-0.48,0.48l-0.48,0.6l-0.72,0.96l-0.48,0.72l-1.08,1.68l-0.24,0.6l-0.12,0.6l-0.12,1.44l0.36,1.56l0.84,1.2l1.2,0.96l1.44,0.36l2.04,0l0.72,-0.36l1.8,-0.72l0.96,-0.48l0.72,-0.48l0.6,-0.36l0.36,-0.24l0.12,0l0.24,-0.24" style="fill:none;fill-rule:nonzero;stroke:#e1c1ff;stroke-width:0.72px;"/><path d="M156,246.72l-1.56,0.24l-1.32,0.72l-1.2,1.08l-0.72,1.32l-0.24,1.56l0.24,1.56l0.72,1.32l1.2,1.2l1.32,0.72l1.56,0.24l1.56,-0.24l1.32,-0.72l1.08,-1.2l0.72,-1.32l0.24,-1.56l-0.24,-1.56l-0.72,-1.32l-1.08,-1.08l-1.32,-0.72l-1.56,-0.24Z" style="fill:none;fill-rule:nonzero;stroke:#e1c1ff;stroke-width:0.72px;"/></g></g><g id="EKEEP"></g></g><g id="COVERS"><g id="TABLE-COVERS" serif:id="TABLE COVERS"><path d="M68.88,121.2l42,0l0,8.64l-42,0l0,-8.64Z" style="fill:#e1c1ff;"/><rect x="195.198" y="34.827" width="10.56" height="90.96" style="fill:#e1c1ff;"/><path d="M9.36,81.84l25.92,0l0,39.36l-25.92,0l0,-39.36Z" style="fill:#e1c1ff;"/><rect x="66.72" y="120.24" width="1.92" height="55.2" style="fill:#e1c1ff;"/><path d="M82.8,8.4l41.04,0l0,34.8l-41.04,0l0,-34.8Z" style="fill:#e1c1ff;"/></g></g><g id="OVERLAY-WALLS" serif:id="OVERLAY WALLS"><path d="M216.48,22.32l0,8.4l-9.6,0l0,143.52l-12,0l0,15.36l99.798,-0.11l0.042,-1.81l-85.92,0l0.72,-154.32l9.12,-0l0,-11.04l-2.16,0Z" style="fill:#e1c1ff;"/><rect x="33.84" y="119.04" width="54" height="1.68" style="fill:#e1c1ff;"/><path d="M463.2,30.72l0,158.64l14.4,0l0,-1.44l-12.24,0l0,-157.44l-2.16,0.24Z" style="fill:#e1c1ff;stroke:#e1c1ff;stroke-width:0.24px;stroke-miterlimit:1.5;"/><path d="M492.24,187.92l0,1.68l1.68,0l0,77.76l1.44,0l0,-79.68l-3.12,0.24Z" style="fill:#e1c1ff;"/><path d="M464.88,250.8l0,-18l-136.56,0l0,1.68l1.92,0l0,32.16l-2.16,0l0,0.96l3.6,0l0,-29.28l36.24,0l0,36.96l5.76,0.24l-0.48,-32.4l4.32,0l0,-4.8l76.8,0l0,3.6l8.88,0l0,8.88l1.68,0Z" style="fill:#e1c1ff;stroke:#e1c1ff;stroke-width:0.24px;stroke-miterlimit:1.5;"/><rect x="415.68" y="189.84" width="2.16" height="27.36" style="fill:#e1c1ff;"/><path d="M313.92,265.44l0,-1.2l-35.52,0l0,-2.4l-38.16,0l0,-29.76l-1.92,0l0,33.36l75.6,0Z" style="fill:#e1c1ff;"/><rect x="241.2" y="231.84" width="71.28" height="2.16" style="fill:#e1c1ff;"/><rect x="178.8" y="232.08" width="64.08" height="1.92" style="fill:#e1c1ff;"/><path d="M111.6,102.48l2.16,0l0,72.24l-28.8,0l0,-2.16l26.64,0l0,-51.6l-17.04,0l0,-1.92l17.28,0l-0.24,-16.56Z" style="fill:#e1c1ff;"/></g><path d="M26.28,57.24l-2.04,-0.48l-3.48,-1.2l5.76,-12l3.12,2.04l1.56,1.32l-4.92,10.32Z" style="fill:#e1c1ff;fill-rule:nonzero;"/><path d="M58.8,24.6l-0.48,-2.04l-1.2,-3.48l-12,5.76l2.04,3.12l1.32,1.68l10.32,-5.04Z" style="fill:#e1c1ff;fill-rule:nonzero;"/><rect x="278.64" y="266.64" width="36" height="2.4" style="fill:#e1c1ff;"/></g></svg>