<svg xmlns="http://www.w3.org/2000/svg" xml:space="preserve" style="fill-rule:evenodd;clip-rule:evenodd;stroke-linecap:round;stroke-linejoin:round;stroke-miterlimit:10" viewBox="0 0 2106 2383">
  <g transform="matrix(1 0 0 1.46376 -1 -1.46)">
    <path d="M1 1h2106v1628H1z" style="fill:none"/>
    <clipPath id="a">
      <path d="M1 1h2106v1628H1z"/>
    </clipPath>
    <g clip-path="url(#a)">
      <path d="m2107.4 95.5-179.4-3V781h-194v184l-362 7 1 211h733z" style="fill:none" transform="matrix(1 0 0 .68317 0 .32)"/>
      <path d="M416 625.76v-53.92h49.12v50.56h-1.6v3.36z" style="fill:none;fill-rule:nonzero;stroke:#d1a5fc;stroke-width:0.96px" transform="matrix(-3.125 0 0 2.13491 2454 -301.99)"/>
      <path d="M413.52 630.32h54.08v49.12h-54.08z" style="fill:none;stroke:#d1a5fc;stroke-width:0.96px" transform="matrix(0 -2.13491 3.125 0 -969.25 1797.23)"/>
      <path d="M291.28 630.32h54.08v49.12h-54.08z" style="fill:none;stroke:#d1a5fc;stroke-width:0.96px" transform="matrix(0 -2.13491 3.125 0 -587.25 1536.26)"/>
      <path d="M342.88 738.24V684h-48.32v3.52h-.8v50.72z" style="fill:none;fill-rule:nonzero;stroke:#d1a5fc;stroke-width:0.96px" transform="matrix(-3.125 0 0 2.13491 2454 -781.57)"/>
      <path d="M342.88 625.76v-54.24h-49.12v50.88h.48v3.36z" style="fill:none;fill-rule:nonzero;stroke:#d1a5fc;stroke-width:0.96px" transform="matrix(-3.125 0 0 2.13491 2454 -301.3)"/>
      <path d="m325.44 320 .8.16.64.64.16.8" style="fill:none;fill-rule:nonzero;stroke:#d1a5fc;stroke-width:0.96px" transform="matrix(-3.125 0 0 2.13491 2454 885.03)"/>
      <path d="m325.44 320 .64.16.16.64" style="fill:none;fill-rule:nonzero;stroke:#d1a5fc;stroke-width:0.96px" transform="matrix(-3.125 0 0 2.13491 2454 886.73)"/>
      <path d="M273.6 320.8h51.84m-51.52-.8h51.52m-10.56.8v.8" style="fill:none;fill-rule:nonzero;stroke:#d1a5fc;stroke-width:0.96px" transform="matrix(-3.125 0 0 2.13491 2454 885.03)"/>
      <path d="M0 1.92h-2.24l-.48-.16-.32-.32-.16-.32V.8l.16-.48.32-.16.48-.16H0" style="fill:none;fill-rule:nonzero;stroke:#d1a5fc;stroke-width:0.96px" transform="matrix(-3.125 0 0 2.13491 1445 1547.02)"/>
      <path d="M0 1.92h3.2V.64L3.04.32 2.88.16 2.56 0h-.48l-.32.32-.16.32v1.28" style="fill:none;fill-rule:nonzero;stroke:#d1a5fc;stroke-width:0.96px" transform="matrix(-3.125 0 0 2.13491 1455 1540.53)"/>
      <path d="m0-3.2.8.16.48.64.32.8-.32.8-.48.64L0 0l-.8-.16-.64-.64-.16-.8.16-.8.64-.64z" style="fill:none;fill-rule:nonzero;stroke:#d1a5fc;stroke-width:0.96px" transform="matrix(-3.125 0 0 2.13491 1470 1549.41)"/>
      <path d="m314.88 342.4.8.16.48.64.32.8-.32.8-.48.48-.8.32" style="fill:none;fill-rule:nonzero;stroke:#d1a5fc;stroke-width:0.96px" transform="matrix(-3.125 0 0 2.13491 2454 785.97)"/>
      <path d="M314.65 344.63h.5l.5-.5-.14-.56-.36-.45" style="fill:none;fill-rule:nonzero;stroke:#d1a5fc;stroke-width:0.96px" transform="matrix(-2.96468 .67504 -.9881 -2.02538 2743.36 2004.28)"/>
      <path d="M0-20.8V0m-17.44-20.8V0M8.32-10.4H-59.2m35.84-10.4V0" style="fill:none;fill-rule:nonzero;stroke:#d1a5fc;stroke-width:0.96px" transform="matrix(-3.125 0 0 2.13491 1510 1516.96)"/>
      <path d="M0 420.16V400.8m111.52-201.28v10.08M0 381.6V372m0-1.6v-1.6m126.08-194.88h9.6m0-12.8h-9.6M-59.2 0v6.4m-69.76 201.92v3.2" style="fill:none;fill-rule:nonzero;stroke:#d1a5fc;stroke-width:0.96px" transform="matrix(-3.125 0 0 2.13491 1388.5 678.7)"/>
      <path d="M168.48 688.16h1.6v-7.84" style="fill:none;fill-rule:nonzero;stroke:#d1a5fc;stroke-width:0.96px" transform="matrix(-3.125 0 0 2.13491 2454 -666.8)"/>
      <path d="M116.32 628.16h104.32" style="fill:none;fill-rule:nonzero;stroke:#d1a5fc;stroke-width:0.96px" transform="matrix(0 2.13491 -3.125 0 3890.5 554.03)"/>
      <path d="M168.48 576h10.56v-11.04h-10.56" style="fill:none;fill-rule:nonzero;stroke:#d1a5fc;stroke-width:0.96px" transform="matrix(-3.125 0 0 2.13491 2454 -181.07)"/>
      <path d="M0-77.28v35.04m247.52-166.4h49.12m-51.04-1.92h52.96m-1.92 12.96v-11.04m1.92 119.2v-121.12m-20.32 169.6v1.92m-30.72-43.2v41.28M61.28 167.68h109.44m-109.44 7.36v-5.44m-14.88 0v5.44m67.68-427.36H11.04" style="fill:none;fill-rule:nonzero;stroke:#d1a5fc;stroke-width:0.96px" transform="matrix(-3.125 0 0 2.13491 1927.5 1213.63)"/>
      <path d="M296.96 745.6V740h-14.4v5.6" style="fill:none;fill-rule:nonzero;stroke:#d1a5fc;stroke-width:0.96px" transform="matrix(-3.125 0 0 2.13491 2454 -916.84)"/>
      <path d="M0-248.16h47.2m-244.8 141.44v54.08m0 2.24V0m4.96-118.56h7.68" style="fill:none;fill-rule:nonzero;stroke:#d1a5fc;stroke-width:0.96px" transform="matrix(-3.125 0 0 2.13491 1154 1563.76)"/>
      <path d="M231.04 444.16v-4.32h-8.64" style="fill:none;fill-rule:nonzero;stroke:#d1a5fc;stroke-width:0.96px" transform="matrix(-3.125 0 0 2.13491 2454 367.52)"/>
      <path d="M448.4 563.92h12" style="fill:none;fill-rule:nonzero;stroke:#d1a5fc;stroke-width:0.96px" transform="matrix(0 2.13491 -3.125 0 2796.25 80.76)"/>
      <path d="M220.48 487.2h-53.6v-54.72h53.6" style="fill:none;fill-rule:nonzero;stroke:#d1a5fc;stroke-width:0.96px" transform="matrix(-3.125 0 0 2.13491 2454 291.35)"/>
      <path d="M229.76 486.88h111.2M47.68 318.08H96M46.88 481.44V322.72" style="fill:none;fill-rule:nonzero;stroke:#d1a5fc;stroke-width:0.96px" transform="matrix(-3.125 0 0 2.13491 2454 536.27)"/>
      <path d="M283.84 564.96h-28v4.8" style="fill:none;fill-rule:nonzero;stroke:#d1a5fc;stroke-width:0.96px" transform="matrix(-3.125 0 0 2.13491 2454 -167.74)"/>
      <path d="M223.36 681.92V638.4M416 326.08h49.12" style="fill:none;fill-rule:nonzero;stroke:#d1a5fc;stroke-width:0.96px" transform="matrix(-3.125 0 0 2.13491 2454 102.8)"/>
      <path d="M465.12 683.68v1.6H416" style="fill:none;fill-rule:nonzero;stroke:#d1a5fc;stroke-width:0.96px" transform="matrix(-3.125 0 0 2.13491 2454 -667.83)"/>
      <path d="M166.88 432.32h51.52m-122.4-56H46.88M96 374.08H46.88" style="fill:none;fill-rule:nonzero;stroke:#d1a5fc;stroke-width:0.96px" transform="matrix(-3.125 0 0 2.13491 2454 533.2)"/>
      <path d="M218.4 414.4h-51.52v16" style="fill:none;fill-rule:nonzero;stroke:#d1a5fc;stroke-width:0.96px" transform="matrix(-3.125 0 0 2.13491 2454 451.21)"/>
      <path d="M0 281.6v15.68m0 2.24v16m0 22.24v15.84M.48-28.64v12m126.4 203.04v110.88M.48-47.68v-11.68M-1.6-47.68V-72m126.56 55.36v-48.48m162.56 168.8h6.88m-365.28 83.04v16.48m0 22.4v33.92m0 22.24v34.08m0 22.24v15.52M0 297.28h51.52m-173.28-104.32v154.88m420-356.16v106.4M88.96 144.96v-17.12M58.08 305.6v41.92m-176.64 6.08h47.68m70.88 0h49.92m3.36-51.36v45.28m73.6-248.8V-61.12m160.64 196v10.08m10.56-35.68h-3.68m-45.28-7.52V-8.32M53.6 218.88v22.24" style="fill:none;fill-rule:nonzero;stroke:#d1a5fc;stroke-width:0.96px" transform="matrix(-3.125 0 0 2.13491 1932.5 816.7)"/>
      <path d="M219.36 444.16h3.04v10.56" style="fill:none;fill-rule:nonzero;stroke:#d1a5fc;stroke-width:0.96px" transform="matrix(-3.125 0 0 2.13491 2454 335.75)"/>
      <path d="M254.72 442.4h3.52" style="fill:none;fill-rule:nonzero;stroke:#d1a5fc;stroke-width:0.96px" transform="matrix(0 -2.13491 3.125 0 270 1857.86)"/>
      <path d="M229.76 326.08V320h-9.6" style="fill:none;fill-rule:nonzero;stroke:#d1a5fc;stroke-width:0.96px" transform="matrix(-3.125 0 0 2.13491 2454 875.46)"/>
      <path d="M342.88 740h-46.72m.8-170.24h47.68m-50.4 168.48h48.64" style="fill:none;fill-rule:nonzero;stroke:#d1a5fc;stroke-width:0.96px" transform="matrix(-3.125 0 0 2.13491 2454 -541.44)"/>
      <path d="M273.28 442.24h-49.92v-68.96" style="fill:none;fill-rule:nonzero;stroke:#d1a5fc;stroke-width:0.96px" transform="matrix(-3.125 0 0 2.13491 2454 513.72)"/>
      <path d="M192.4 401.04h57.12v1.6H192.4z" style="fill:none;stroke:#d1a5fc;stroke-width:0.96px" transform="matrix(0 -2.13491 3.125 0 507.75 1868.62)"/>
      <path d="M220.16 487.2h55.04V371.36" style="fill:none;fill-rule:nonzero;stroke:#d1a5fc;stroke-width:0.96px" transform="matrix(-3.125 0 0 2.13491 2454 421.83)"/>
      <path d="M0-86.24h12.48m179.2-63.36h1.92M-164.8 15.2h-49.12m49.12-2.08h-49.12M31.04-98.08v112.8m-246.72 48.64h-9.6" style="fill:none;fill-rule:nonzero;stroke:#d1a5fc;stroke-width:0.96px" transform="matrix(-3.125 0 0 2.13491 1639 1424.05)"/>
      <path d="M273.28 442.24v-68.96h-16.8" style="fill:none;fill-rule:nonzero;stroke:#d1a5fc;stroke-width:0.96px" transform="matrix(-3.125 0 0 2.13491 2454 513.72)"/>
      <path d="M0 188.16h43.52M-3.2-3.2h2.08M-3.2 15.84h2.08m72.16 37.92 48.16-20.64m-48.16-3.36h52.32m-55.2 161.6v-10.24m106.24 8.32H87.36" style="fill:none;fill-rule:nonzero;stroke:#d1a5fc;stroke-width:0.96px" transform="matrix(-3.125 0 0 2.13491 1927.5 721.75)"/>
      <path d="M414.08 526.72v171.52h13.6" style="fill:none;fill-rule:nonzero;stroke:#d1a5fc;stroke-width:0.96px" transform="matrix(-3.125 0 0 2.13491 2454 -360.4)"/>
      <path d="M1316 1648h67v8h-67z" style="fill:none;stroke:#d1a5fc;stroke-width:3.06px;stroke-miterlimit:1.5" transform="matrix(1 0 0 .51238 1 281.78)"/>
      <path d="M1316 1648h67v8h-67z" style="fill:none;stroke:#d1a5fc;stroke-width:1.71px;stroke-miterlimit:1.5" transform="matrix(2.10448 0 0 .51238 -1652.54 281.74)"/>
      <path d="M163.2 475.36V457.6m110.08-108.32v-31.2" style="fill:none;fill-rule:nonzero;stroke:#d1a5fc;stroke-width:0.96px" transform="matrix(-3.125 0 0 2.13491 2454 560.86)"/>
      <path d="M452.48 557.92v12h1.92" style="fill:none;fill-rule:nonzero;stroke:#d1a5fc;stroke-width:0.96px" transform="matrix(-3.125 0 0 2.13491 2454 -153.06)"/>
      <path d="M0-262.24-29.28-180m-2.56 32.16h-2.08m198.72 17.12h-5.76m18.24 0h-10.56m-7.68 1.92h20.32M57.12-342.08v213.28M-188.16 62.4v17.44" style="fill:none;fill-rule:nonzero;stroke:#d1a5fc;stroke-width:0.96px" transform="matrix(-3.125 0 0 2.13491 1555 1405.26)"/>
      <path d="M253.76 688.16v-97.44H237.6v-25.76" style="fill:none;fill-rule:nonzero;stroke:#d1a5fc;stroke-width:0.96px" transform="matrix(-3.125 0 0 2.13491 2454 -420.52)"/>
      <path d="M0-.48v-37.6M-2.08-2.4v-35.68M-233.6-3.68v-13.76m182.56-152.64v12.64M-211.2-38.72h-2.08m85.44 196.96v11.36" style="fill:none;fill-rule:nonzero;stroke:#d1a5fc;stroke-width:0.96px" transform="matrix(-3.125 0 0 2.13491 994.5 1131.3)"/>
      <path d="M339.2 337.44V320h1.76" style="fill:none;fill-rule:nonzero;stroke:#d1a5fc;stroke-width:0.96px" transform="matrix(-3.125 0 0 2.13491 2454 851.2)"/>
      <path d="M0-20.8V0m3.04-10.4h-30.56m21.6-10.4V0m-5.76-20.8V0m-5.92-20.8V0m-5.76-20.8V0" style="fill:none;fill-rule:nonzero;stroke:#d1a5fc;stroke-width:0.96px" transform="matrix(-3.125 0 0 2.13491 1470 1568.2)"/>
      <path d="m289.6 329.76-2.24 2.24 2.24 2.24" style="fill:none;fill-rule:nonzero;stroke:#d1a5fc;stroke-width:0.96px" transform="matrix(-3.125 0 0 2.13491 2454 837.2)"/>
      <path d="M0-19.52v20m-12.48 1.6L1.12-21.6M-5.76-9.44V.48m6.24-20.8h28.8" style="fill:none;fill-rule:nonzero;stroke:#d1a5fc;stroke-width:0.96px" transform="matrix(-3.125 0 0 2.13491 1561.5 1567.17)"/>
      <path d="M286.56 344.48h28.32v-1.28" style="fill:none;fill-rule:nonzero;stroke:#d1a5fc;stroke-width:0.96px" transform="matrix(-3.125 0 0 2.13491 2454 786.65)"/>
      <path d="M0 22.72h-66.88m0-.8H0m-66.88-.32H0m0-.8h-66.88m60 .8v.32m0-21.92v20.8" style="fill:none;fill-rule:nonzero;stroke:#d1a5fc;stroke-width:0.96px" transform="matrix(-3.125 0 0 2.13491 1470 1472.55)"/>
      <path d="m0-3.2.8.16.48.64.32.8-.32.8-.48.48L0 0l-.8-.32-.64-.48-.16-.8.16-.8.64-.64z" style="fill:none;fill-rule:nonzero;stroke:#d1a5fc;stroke-width:0.96px" transform="matrix(-3.125 0 0 2.13491 1491.5 1498.17)"/>
      <path d="M0 1.92h3.2V.96L3.04.48 2.4.16 1.92 0h-.8L.16.48 0 .96z" style="fill:none;fill-rule:nonzero;stroke:#d1a5fc;stroke-width:0.96px" transform="matrix(-3.125 0 0 2.13491 1477.5 1495.44)"/>
      <path d="M312.48 358.56h3.2l-3.2-1.92h3.2" style="fill:none;fill-rule:nonzero;stroke:#d1a5fc;stroke-width:0.96px" transform="matrix(-3.125 0 0 2.13491 2454 727.9)"/>
      <path d="m314.24 366.4-.16.8-.64.48-.8.32" style="fill:none;fill-rule:nonzero;stroke:#d1a5fc;stroke-width:0.96px" transform="matrix(-3.125 0 0 2.13491 2454 686.9)"/>
      <path d="m313.44 367.2-.16.48-.64.32" style="fill:none;fill-rule:nonzero;stroke:#d1a5fc;stroke-width:0.96px" transform="matrix(-3.125 0 0 2.13491 2454 685.2)"/>
      <path d="M236.64 536.96h17.28" style="fill:none;fill-rule:nonzero;stroke:#d1a5fc;stroke-width:0.96px" transform="matrix(-3.125 0 0 2.13491 2454 -37.94)"/>
      <path d="M239.52 664.32h48.16v20.64h-48.16z" style="fill:none;stroke:#d1a5fc;stroke-width:0.96px" transform="matrix(-3.125 0 0 2.13491 2454 -625.81)"/>
      <path d="M163.2 488.96h66.24" style="fill:none;fill-rule:nonzero;stroke:#d1a5fc;stroke-width:0.96px" transform="matrix(-3.125 0 0 2.13491 2454 167.01)"/>
      <path d="M50.4 318.08h49.12m115.36 170.88H163.2" style="fill:none;fill-rule:nonzero;stroke:#d1a5fc;stroke-width:0.96px" transform="matrix(-3.125 0 0 2.13491 2454 531.83)"/>
      <path d="M283.84 569.76h12.32v-5.28" style="fill:none;fill-rule:nonzero;stroke:#d1a5fc;stroke-width:0.96px" transform="matrix(-3.125 0 0 2.13491 2454 -166.72)"/>
      <path d="M283.84 657.12v5.28m-28-97.92v90.88" style="fill:none;fill-rule:nonzero;stroke:#d1a5fc;stroke-width:0.96px" transform="matrix(-3.125 0 0 2.13491 2454 -364.5)"/>
      <path d="M276.96 487.2h12.16V373.28h-11.2v48h-.96z" style="fill:none;fill-rule:nonzero;stroke:#d1a5fc;stroke-width:0.96px" transform="matrix(-3.125 0 0 2.13491 2454 417.74)"/>
      <path d="M0 355.68h-68.48M51.04 153.76V-12.96m0 209.6v-41.12m-1.92 213.12h-1.76m-85.44-189.12v2.08" style="fill:none;fill-rule:nonzero;stroke:#d1a5fc;stroke-width:0.96px" transform="matrix(-3.125 0 0 2.13491 1542 706.38)"/>
      <path d="M260.8 488.96h-5.92v-1.92" style="fill:none;fill-rule:nonzero;stroke:#d1a5fc;stroke-width:0.96px" transform="matrix(-3.125 0 0 2.13491 2454 171.11)"/>
      <path d="M0-268.48v-48.48M.16 48.48l-11.2-113.92M-12 48.48.16-65.44m176-196.48-49.12-12.64m0 12.64 49.12-12.64" style="fill:none;fill-rule:nonzero;stroke:#d1a5fc;stroke-width:0.96px" transform="matrix(-3.125 0 0 2.13491 1551 1354.36)"/>
      <path d="M0-48v.8m-17.6.8v20.8m-17.44-20.8v20.8m-5.92-20.8v20.8M-60-22.4h35.2m.48-.8H-60m31.84.8v5.92M-37.76 0l13.6-23.68m-9.92 1.28v16" style="fill:none;fill-rule:nonzero;stroke:#d1a5fc;stroke-width:0.96px" transform="matrix(-3.125 0 0 2.13491 1491.5 1571.61)"/>
      <path d="m269.92 353.76 2.24 2.24h-29.28v-24" style="fill:none;fill-rule:nonzero;stroke:#d1a5fc;stroke-width:0.96px" transform="matrix(-3.125 0 0 2.13491 2454 785.97)"/>
      <path d="m0 24-2.24 2.24M-4 13.6v20.8m3.04 0H-26.4m24.96.8H-26.4m-6.88-46.4h73.76m-73.76.8h73.76" style="fill:none;fill-rule:nonzero;stroke:#d1a5fc;stroke-width:0.96px" transform="matrix(-3.125 0 0 2.13491 1603.5 1494.76)"/>
      <path d="m248 345.6-.8-.32-.64-.48-.16-.8.16-.8.64-.64.8-.16" style="fill:none;fill-rule:nonzero;stroke:#d1a5fc;stroke-width:0.96px" transform="matrix(-3.125 0 0 2.13491 2454 785.97)"/>
      <path d="M246.88 344.54h.72l.36-.36.14-.64-.5-.43" style="fill:none;fill-rule:nonzero;stroke:#d1a5fc;stroke-width:0.96px" transform="matrix(2.79513 -.9547 1.39746 1.90955 507.45 1099.88)"/>
      <path d="m244.32 321.6.16-.8.48-.64.8-.16" style="fill:none;fill-rule:nonzero;stroke:#d1a5fc;stroke-width:0.96px" transform="matrix(-3.125 0 0 2.13491 2454 885.03)"/>
      <path d="m244.96 320.8.32-.64.48-.16" style="fill:none;fill-rule:nonzero;stroke:#d1a5fc;stroke-width:0.96px" transform="matrix(-3.125 0 0 2.13491 2454 886.73)"/>
      <path d="M285.92 356h20.8" style="fill:none;fill-rule:nonzero;stroke:#d1a5fc;stroke-width:0.96px" transform="matrix(0 2.13491 -3.125 0 2640.5 862.14)"/>
      <path d="m238.88 368-.48-.32-.32-.48" style="fill:none;fill-rule:nonzero;stroke:#d1a5fc;stroke-width:0.96px" transform="matrix(-3.125 0 0 2.13491 2454 685.2)"/>
      <path d="m238.88 368-.8-.32-.48-.48-.32-.8" style="fill:none;fill-rule:nonzero;stroke:#d1a5fc;stroke-width:0.96px" transform="matrix(-3.125 0 0 2.13491 2454 686.9)"/>
      <path d="M0 3.2V24m-.96-44.8V0m-5.92-20.8V0m-7.36.8v1.6m2.56 22.4v.8m-.96-48v.8m6.88 24.8V24" style="fill:none;fill-rule:nonzero;stroke:#d1a5fc;stroke-width:0.96px" transform="matrix(-3.125 0 0 2.13491 1634.5 1516.96)"/>
      <path d="m187.84 738.24-.48-.16-.32-.64" style="fill:none;fill-rule:nonzero;stroke:#d1a5fc;stroke-width:0.96px" transform="matrix(-3.125 0 0 2.13491 2454 -895.66)"/>
      <path d="m187.84 738.24-.8-.16-.64-.64-.16-.8" style="fill:none;fill-rule:nonzero;stroke:#d1a5fc;stroke-width:0.96px" transform="matrix(-3.125 0 0 2.13491 2454 -893.96)"/>
      <path d="m0-3.2.8.32.64.48.16.8-.16.8-.64.64L0 0l-.8-.16-.48-.64-.32-.8.32-.8.48-.48z" style="fill:none;fill-rule:nonzero;stroke:#d1a5fc;stroke-width:0.96px" transform="matrix(-3.125 0 0 2.13491 1834 707.74)"/>
      <path d="M0 1.92h-2.4l-.32-.16-.32-.32-.16-.32V.8l.16-.48.64-.32H0" style="fill:none;fill-rule:nonzero;stroke:#d1a5fc;stroke-width:0.96px" transform="matrix(-3.125 0 0 2.13491 1849.5 706.72)"/>
      <path d="M0 1.92h3.2V.64L3.04.32 2.88.16 2.56 0h-.48l-.32.16-.16.16-.16.32v1.28" style="fill:none;fill-rule:nonzero;stroke:#d1a5fc;stroke-width:0.96px" transform="matrix(-3.125 0 0 2.13491 1859.5 700.23)"/>
      <path d="m198.4 715.84-.8-.16-.48-.64-.32-.8.32-.8.48-.48.8-.32" style="fill:none;fill-rule:nonzero;stroke:#d1a5fc;stroke-width:0.96px" transform="matrix(-3.125 0 0 2.13491 2454 -794.9)"/>
      <path d="M197.37 714.87h.5l.5-.5-.14-.56-.36-.45" style="fill:none;fill-rule:nonzero;stroke:#d1a5fc;stroke-width:0.96px" transform="matrix(2.96468 -.67503 .98808 2.02539 542.52 -583.01)"/>
      <path d="m0-3.04.64.16.64.48.16.8-.16.8-.64.64L0 0l-.8-.16-.64-.64-.16-.8.16-.8.64-.48z" style="fill:none;fill-rule:nonzero;stroke:#d1a5fc;stroke-width:0.96px" transform="matrix(-3.125 0 0 2.13491 1812 758.98)"/>
      <path d="M0 1.92h3.2V.96L2.88.32 2.56.16 2.08 0h-.8L.8.16.48.32.16.64 0 .96z" style="fill:none;fill-rule:nonzero;stroke:#d1a5fc;stroke-width:0.96px" transform="matrix(-3.125 0 0 2.13491 1835.5 757.27)"/>
      <path d="M197.92 704.32h3.2l-3.2-1.92h3.2" style="fill:none;fill-rule:nonzero;stroke:#d1a5fc;stroke-width:0.96px" transform="matrix(-3.125 0 0 2.13491 2454 -748.44)"/>
      <path d="M0-44.96v-.8m0 22.4v-20.8m-3.04 10.4h30.56m1.28 10.4H0m0 .8h28.32M0-22.08h65.28m0 .8H0m65.28.32H0m0 .8h65.28M0-21.28v-1.28m5.92-.8v-20.8m1.12 23.2v-.32M7.04.8v-20.96m-3.2 10.4h66.72M76 .8H2.24" style="fill:none;fill-rule:nonzero;stroke:#d1a5fc;stroke-width:0.96px" transform="matrix(-3.125 0 0 2.13491 1834 776.4)"/>
      <path d="m199.04 691.68.16-.64.64-.64.8-.16" style="fill:none;fill-rule:nonzero;stroke:#d1a5fc;stroke-width:0.96px" transform="matrix(-3.125 0 0 2.13491 2454 -695.5)"/>
      <path d="m199.84 690.88.16-.48.64-.16h73.76" style="fill:none;fill-rule:nonzero;stroke:#d1a5fc;stroke-width:0.96px" transform="matrix(-3.125 0 0 2.13491 2454 -693.79)"/>
      <path d="M0 47.2v-.64M-17.6 0h51.84M-17.6.8h51.52M5.76 45.76V24.8m5.92 20.96V24.8m5.76 20.96V24.8m5.76 20.96V24.8m5.92 20.96V24.8m5.76 20.96V24.8m5.92 20.96V24.8M4.64 21.6V.8m5.92 20.8V.8m5.76 20.8V.8" style="fill:none;fill-rule:nonzero;stroke:#d1a5fc;stroke-width:0.96px" transform="matrix(-3.125 0 0 2.13491 1812 680.42)"/>
      <path d="m223.68 728.48 2.24-2.24-2.24-2.24" style="fill:none;fill-rule:nonzero;stroke:#d1a5fc;stroke-width:0.96px" transform="matrix(-3.125 0 0 2.13491 2454 -846.13)"/>
      <path d="M0 19.84V-.32M5.76 9.6V-.32m6.72-1.6-13.6 23.68M15.36-1.92 1.76 21.76m4-1.28v-5.76M36 20.48H2.4m-.48.8H36m-24.32-.8V4.64" style="fill:none;fill-rule:nonzero;stroke:#d1a5fc;stroke-width:0.96px" transform="matrix(-3.125 0 0 2.13491 1742.5 682.8)"/>
      <path d="m244 728.48-2.24-2.24L244 724" style="fill:none;fill-rule:nonzero;stroke:#d1a5fc;stroke-width:0.96px" transform="matrix(-3.125 0 0 2.13491 2454 -846.13)"/>
      <path d="m263.68 712.64.8.32.64.48.16.8-.16.8-.64.64-.8.16" style="fill:none;fill-rule:nonzero;stroke:#d1a5fc;stroke-width:0.96px" transform="matrix(-3.125 0 0 2.13491 2454 -794.9)"/>
      <path d="M263.36 714.78h.72l.36-.36.14-.64-.5-.43" style="fill:none;fill-rule:nonzero;stroke:#d1a5fc;stroke-width:0.96px" transform="matrix(-2.79508 .95476 -1.39754 -1.90952 3365.06 1841.67)"/>
      <path d="m269.12 736.64-.32.8-.48.64-.8.16" style="fill:none;fill-rule:nonzero;stroke:#d1a5fc;stroke-width:0.96px" transform="matrix(-3.125 0 0 2.13491 2454 -893.96)"/>
      <path d="m268.32 737.44-.32.64-.48.16" style="fill:none;fill-rule:nonzero;stroke:#d1a5fc;stroke-width:0.96px" transform="matrix(-3.125 0 0 2.13491 2454 -895.66)"/>
      <path d="m274.4 690.24.8.16.48.64.32.64" style="fill:none;fill-rule:nonzero;stroke:#d1a5fc;stroke-width:0.96px" transform="matrix(-3.125 0 0 2.13491 2454 -695.5)"/>
      <path d="m274.4 690.24.48.16.32.48" style="fill:none;fill-rule:nonzero;stroke:#d1a5fc;stroke-width:0.96px" transform="matrix(-3.125 0 0 2.13491 2454 -693.79)"/>
      <path d="M241.76 702.24h27.2v24" style="fill:none;fill-rule:nonzero;stroke:#d1a5fc;stroke-width:0.96px" transform="matrix(-3.125 0 0 2.13491 2454 -794.9)"/>
      <path d="M0-2.56v-20.8m22.4-.8H-2.56m-.48.8H22.4M6.88 21.6V.64m-.96-3.2v-20.8" style="fill:none;fill-rule:nonzero;stroke:#d1a5fc;stroke-width:0.96px" transform="matrix(-3.125 0 0 2.13491 1688 732)"/>
      <path d="M258.4 577.92h29.28v82.24H258.4z" style="fill:none;stroke:#d1a5fc;stroke-width:0.96px" transform="matrix(3.125 0 0 2.13491 747.5 -388.4)"/>
      <path d="M342.88 582.88h-49.12m49.12-56.16h-49.12m-39.84 155.2h90.88" style="fill:none;fill-rule:nonzero;stroke:#d1a5fc;stroke-width:0.96px" transform="matrix(-3.125 0 0 2.13491 2454 -325.56)"/>
      <path d="M218.56 487.04h3.84v-6.88" style="fill:none;fill-rule:nonzero;stroke:#d1a5fc;stroke-width:0.96px" transform="matrix(-3.125 0 0 2.13491 2454 189.9)"/>
      <path d="M216.96 483.68H224" style="fill:none;fill-rule:nonzero;stroke:#d1a5fc;stroke-width:0.96px" transform="matrix(0 2.13491 -3.125 0 3276.5 751.46)"/>
      <path d="M222.4 488.96h7.04v-1.92" style="fill:none;fill-rule:nonzero;stroke:#d1a5fc;stroke-width:0.96px" transform="matrix(-3.125 0 0 2.13491 2454 171.11)"/>
      <path d="M266.56 711.04h41.6" style="fill:none;fill-rule:nonzero;stroke:#d1a5fc;stroke-width:0.96px" transform="matrix(0 2.13491 -3.125 0 3778 123.29)"/>
      <path d="M179.52 745.6V740h-14.24" style="fill:none;fill-rule:nonzero;stroke:#d1a5fc;stroke-width:0.96px" transform="matrix(-3.125 0 0 2.13491 2454 -916.84)"/>
      <path d="M233.44 543.68h20.32" style="fill:none;fill-rule:nonzero;stroke:#d1a5fc;stroke-width:0.96px" transform="matrix(-3.125 0 0 2.13491 2454 -66.63)"/>
      <path d="M233.44 526.72h-2.4v3.2" style="fill:none;fill-rule:nonzero;stroke:#d1a5fc;stroke-width:0.96px" transform="matrix(-3.125 0 0 2.13491 2454 -1.05)"/>
      <path d="M170.08 688.16h67.52" style="fill:none;fill-rule:nonzero;stroke:#d1a5fc;stroke-width:0.96px" transform="matrix(-3.125 0 0 2.13491 2454 -683.54)"/>
      <path d="M0-3.2V-24m1.12 44.96V0m5.76 20.96V0m-.96-3.2V-24M6.88-.8v-1.6m-.96-22.4v-.8m.96 48v-.64" style="fill:none;fill-rule:nonzero;stroke:#d1a5fc;stroke-width:0.96px" transform="matrix(-3.125 0 0 2.13491 1651.5 733.36)"/>
      <path d="M0-261.76h-49.12m-4.8-6.24h2.88m0 25.92v-24M73.12-205.6h49.12m-49.12-54.08h49.12M-55.52-268h-120m-2.08 163.52V-280m126.56 131.36v-91.52m0 175.2h-16.64m186.08-82.72v5.6m-167.52 188v5.12m-1.92-3.2v4.8m-37.92-157.12v-10.24m33.76-127.36-48.16-20.64m-14.56 316.96H-3.68M-306.24-58.4h8.48m215.68-6.4v11.68m20.96-256.48h5.6m-5.6-6.4h-102.24" style="fill:none;fill-rule:nonzero;stroke:#d1a5fc;stroke-width:0.96px" transform="matrix(-3.125 0 0 2.13491 1382.5 1353.34)"/>
      <path d="M167.36 738.24h12.16v-5.28" style="fill:none;fill-rule:nonzero;stroke:#d1a5fc;stroke-width:0.96px" transform="matrix(-3.125 0 0 2.13491 2454 -886.1)"/>
      <path d="M0 161.6h46.72m19.04 0h5.6M74.24 3.36V0m48.16 110.4L93.12 28.16m-2.56-2.24h36M122.4 24h4.16m124.16 94.4h36.48" style="fill:none;fill-rule:nonzero;stroke:#d1a5fc;stroke-width:0.96px" transform="matrix(-3.125 0 0 2.13491 1937.5 785.28)"/>
      <path d="M0-294.08h-48.32m-8.96 166.72h-29.76M-86.4 0h16.8m20.48-44.8H-88M73.12-181.6h49.12M0-183.68h-49.12" style="fill:none;fill-rule:nonzero;stroke:#d1a5fc;stroke-width:0.96px" transform="matrix(-3.125 0 0 2.13491 1382.5 1306.54)"/>
      <path d="M161.68 685.04h6.72v.48h-6.72z" style="fill:none;stroke:#d1a5fc;stroke-width:0.96px" transform="matrix(0 -2.13491 3.125 0 -203.25 1144.12)"/>
      <path d="M165.28 682.24h3.2v6.08h-3.2" style="fill:none;fill-rule:nonzero;stroke:#d1a5fc;stroke-width:0.96px" transform="matrix(-3.125 0 0 2.13491 2454 -671.24)"/>
      <path d="M316.48 371.2V368h6.08v3.2" style="fill:none;fill-rule:nonzero;stroke:#d1a5fc;stroke-width:0.96px" transform="matrix(-3.125 0 0 2.13491 2454 676.66)"/>
      <path d="M249.6 321.6v20.8m.96 3.2v20.8" style="fill:none;fill-rule:nonzero;stroke:#d1a5fc;stroke-width:0.96px" transform="matrix(-3.125 0 0 2.13491 2454 785.97)"/>
      <path d="M436.9 537.64h3.75l3.71-.8 3.42-1.39 3.16-2.21" style="fill:none;fill-rule:nonzero;stroke:#d1a5fc;stroke-width:0.96px" transform="matrix(-2.00057 1.64009 -2.4007 -1.36673 3240.27 1115.4)"/>
      <path d="M425.21 534.8h19.12v.68l-19.11.23z" style="fill:none;fill-rule:nonzero;stroke:#d1a5fc;stroke-width:0.96px" transform="matrix(2.1966 1.51852 -2.22274 1.50065 1330.2 -351.1)"/>
      <path d="m0 19.2-3.84-.48-3.52-.96-3.36-1.92-2.88-2.24L0 0l.48.64-13.44 13.44-.64-.48" style="fill:none;fill-rule:nonzero;stroke:#d1a5fc;stroke-width:0.96px" transform="matrix(-3.125 0 0 2.13491 1040 1063.67)"/>
      <path d="M0 3.36v29.12M.64 3.36v29.12M0-29.12V.32m.64-29.44V.32" style="fill:none;fill-rule:nonzero;stroke:#d1a5fc;stroke-width:0.96px" transform="matrix(-3.125 0 0 2.13491 93 611.76)"/>
      <path d="M0-3.04h4.16l.96.96v1.12L4.16 0H0v-1.44h.32v-.16H0z" style="fill:none;fill-rule:nonzero;stroke:#d1a5fc;stroke-width:0.96px" transform="matrix(-3.125 0 0 2.13491 99.5 618.93)"/>
      <path d="M0-157.12v61.6m5.6 0v-61.6m-3.52 128V0m.64-29.12V0m-.64-61.6v29.44m.64-29.44v29.44" style="fill:none;fill-rule:nonzero;stroke:#d1a5fc;stroke-width:0.96px" transform="matrix(-3.125 0 0 2.13491 99.5 885.03)"/>
      <path d="M0-3.04h4.16l.96.96v1.12L4.16 0H0v-1.44h.32v-.16H0z" style="fill:none;fill-rule:nonzero;stroke:#d1a5fc;stroke-width:0.96px" transform="matrix(-3.125 0 0 2.13491 99.5 822.86)"/>
      <path d="M0-157.12v61.6m0 26.24v7.68m5.6 0v-95.52M2.08-29.28V0m.64-29.28V0m-.64-61.6v29.44m.64-29.44v29.44" style="fill:none;fill-rule:nonzero;stroke:#d1a5fc;stroke-width:0.96px" transform="matrix(-3.125 0 0 2.13491 99.5 1088.95)"/>
      <path d="M0-2.88h4.16l.96.8v1.12L4.16 0H0v-1.44h.32v-.16H0z" style="fill:none;fill-rule:nonzero;stroke:#d1a5fc;stroke-width:0.96px" transform="matrix(-3.125 0 0 2.13491 99.5 1026.44)"/>
      <path d="M0-157.12v61.6m5.6 0v-61.6M2.08-29.28V0m.64-29.28V0m-.64-61.6v29.44m.64-29.44v29.44" style="fill:none;fill-rule:nonzero;stroke:#d1a5fc;stroke-width:0.96px" transform="matrix(-3.125 0 0 2.13491 99.5 1292.88)"/>
      <path d="M0-2.88h4.16l.96.8v1.12L4.16 0H0v-1.44h.32v-.16H0z" style="fill:none;fill-rule:nonzero;stroke:#d1a5fc;stroke-width:0.96px" transform="matrix(-3.125 0 0 2.13491 99.5 1230.37)"/>
      <path d="M0-157.12v61.6m5.6 0v-61.6M2.08-29.28V0m.64-29.28V0m-.64-61.6v29.44m.64-29.44v29.44" style="fill:none;fill-rule:nonzero;stroke:#d1a5fc;stroke-width:0.96px" transform="matrix(-3.125 0 0 2.13491 99.5 1496.8)"/>
      <path d="M0-2.88h4.16l.96.8v1.12L4.16 0H0v-1.28h.32v-.32H0z" style="fill:none;fill-rule:nonzero;stroke:#d1a5fc;stroke-width:0.96px" transform="matrix(-3.125 0 0 2.13491 99.5 1434.3)"/>
      <path d="M0-157.12v61.6m5.6 0v-61.6M2.08-29.28V0m.64-29.28V0m-.64-61.6v29.44m.64-29.44v29.44" style="fill:none;fill-rule:nonzero;stroke:#d1a5fc;stroke-width:0.96px" transform="matrix(-3.125 0 0 2.13491 99.5 1700.73)"/>
      <path d="M753.44 259.52v61.6m5.6 0v-61.6" style="fill:none;fill-rule:nonzero;stroke:#d1a5fc;stroke-width:0.96px" transform="matrix(-3.125 0 0 2.13491 2454 1015.17)"/>
      <path d="M0 1.44h17.44M0 .96h17.44M0 3.52h17.44m0-5.6H0m83.84 3.52h29.12M83.84.96h29.12m-61.44.48h29.44M51.52.96h29.44" style="fill:none;fill-rule:nonzero;stroke:#d1a5fc;stroke-width:0.96px" transform="matrix(-3.125 0 0 2.13491 2358.5 56)"/>
      <path d="M0 5.12v-4L.8 0h1.28l.8 1.12v4H1.6v-.16h-.32v.16z" style="fill:none;fill-rule:nonzero;stroke:#d1a5fc;stroke-width:0.96px" transform="matrix(-3.125 0 0 2.13491 2105.5 52.58)"/>
      <path d="M0 5.6h61.44M95.52 0H0m127.68 3.52h29.44m-29.44-.48h29.44m-61.6.48h29.28m-29.28-.48h29.28" style="fill:none;fill-rule:nonzero;stroke:#d1a5fc;stroke-width:0.96px" transform="matrix(-3.125 0 0 2.13491 2197.5 51.55)"/>
      <path d="M0 5.12v-4L.8 0h1.28l.8 1.12v4H1.6v-.16h-.32v.16z" style="fill:none;fill-rule:nonzero;stroke:#d1a5fc;stroke-width:0.96px" transform="matrix(-3.125 0 0 2.13491 1807.5 52.58)"/>
      <path d="M0 5.6h61.6m0-5.6H0m127.68 3.52h29.44m-29.44-.48h29.44m-61.6.48h29.28m-29.28-.48h29.28" style="fill:none;fill-rule:nonzero;stroke:#d1a5fc;stroke-width:0.96px" transform="matrix(-3.125 0 0 2.13491 1899 51.55)"/>
      <path d="M0 5.12v-4L.96 0h1.12l.8 1.12v4H1.6v-.16h-.32v.16z" style="fill:none;fill-rule:nonzero;stroke:#d1a5fc;stroke-width:0.96px" transform="matrix(-3.125 0 0 2.13491 1509 52.58)"/>
      <path d="M0 5.6h61.6m0-5.6H0m127.68 3.52h29.44m-29.44-.48h29.44m-61.6.48h29.28m-29.28-.48h29.28" style="fill:none;fill-rule:nonzero;stroke:#d1a5fc;stroke-width:0.96px" transform="matrix(-3.125 0 0 2.13491 1600.5 51.55)"/>
      <path d="M0 5.12v-4L.96 0h1.12l.8 1.12v4H1.6v-.16h-.16v.16z" style="fill:none;fill-rule:nonzero;stroke:#d1a5fc;stroke-width:0.96px" transform="matrix(-3.125 0 0 2.13491 1210.5 52.58)"/>
      <path d="M0 5.6h61.6m0-5.6H0m127.84 3.52h29.28m-29.28-.48h29.28m-61.6.48h29.28m-29.28-.48h29.28" style="fill:none;fill-rule:nonzero;stroke:#d1a5fc;stroke-width:0.96px" transform="matrix(-3.125 0 0 2.13491 1302 51.55)"/>
      <path d="M0 5.12v-4L.96 0h1.12l.96 1.12v4H1.6v-.16h-.16v.16z" style="fill:none;fill-rule:nonzero;stroke:#d1a5fc;stroke-width:0.96px" transform="matrix(-3.125 0 0 2.13491 912 52.58)"/>
      <path d="M464.16 1032h61.6m0-5.6h-61.6" style="fill:none;fill-rule:nonzero;stroke:#d1a5fc;stroke-width:0.96px" transform="matrix(-3.125 0 0 2.13491 2454 -2139.72)"/>
      <path d="M622.56 1026.4h-1.28z" style="fill:none;fill-rule:nonzero;stroke:#d1a5fc;stroke-width:0.96px" transform="matrix(-3.125 0 0 2.13491 2454 -2127.77)"/>
      <path d="M0-6.4V-12h33.92v5.6h-7.68v12H7.68v-12z" style="fill:#d1a5fc;fill-rule:nonzero;stroke:#d1a5fc;stroke-width:0.96px" transform="matrix(-3.125 0 0 2.13491 811 77.17)"/>
      <path d="M0-6.4V-12h33.92v5.6h-7.68v12H7.68v-12z" style="fill:#d1a5fc;fill-rule:nonzero;stroke:#d1a5fc;stroke-width:0.96px" transform="matrix(0 2.13491 3.125 0 116.9 476.49)"/>
      <path d="M0-6.4V-12h33.92v5.6h-7.68v12H7.68v-12z" style="fill:#d1a5fc;fill-rule:nonzero;stroke:#d1a5fc;stroke-width:0.96px" transform="matrix(0 2.13491 3.125 0 116.9 681.96)"/>
      <path d="M0-6.4V-12h33.92v5.6h-7.68v12H7.68v-12z" style="fill:#d1a5fc;fill-rule:nonzero;stroke:#d1a5fc;stroke-width:0.96px" transform="matrix(0 2.13491 3.125 0 116.9 882.97)"/>
      <path d="M0-6.4V-12h33.92v5.6h-7.68v12H7.68v-12z" style="fill:#d1a5fc;fill-rule:nonzero;stroke:#d1a5fc;stroke-width:0.96px" transform="matrix(0 2.13491 3.125 0 116.9 1085.4)"/>
      <path d="M0-6.4V-12h33.92v5.6h-7.68v12H7.68v-12z" style="fill:#d1a5fc;fill-rule:nonzero;stroke:#d1a5fc;stroke-width:0.96px" transform="matrix(0 2.13491 3.125 0 116.9 1292.2)"/>
      <path d="M0-6.4V-12h33.92v5.6h-7.68v12H7.68v-12z" style="fill:#d1a5fc;fill-rule:nonzero;stroke:#d1a5fc;stroke-width:0.96px" transform="matrix(0 2.13491 3.125 0 116.9 1493.1)"/>
      <path d="M0-6.4V-12h33.92v5.6h-7.68v12H7.68v-12z" style="fill:#d1a5fc;fill-rule:nonzero;stroke:#d1a5fc;stroke-width:0.96px" transform="matrix(-3.125 0 0 2.13491 1109.5 77.17)"/>
      <path d="M0-6.4V-12h33.92v5.6h-7.68v12H7.68v-12z" style="fill:#d1a5fc;fill-rule:nonzero;stroke:#d1a5fc;stroke-width:0.96px" transform="matrix(-3.125 0 0 2.13491 1408 77.17)"/>
      <path d="M0-6.4V-12h33.92v5.6h-7.68v12H7.68v-12z" style="fill:#d1a5fc;fill-rule:nonzero;stroke:#d1a5fc;stroke-width:0.96px" transform="matrix(-3.125 0 0 2.13491 1706.5 77.17)"/>
      <path d="M0-6.4V-12h34.08v5.6H26.4v12H7.84v-12z" style="fill:#d1a5fc;fill-rule:nonzero;stroke:#d1a5fc;stroke-width:0.96px" transform="matrix(-3.125 0 0 2.13491 2005.5 77.17)"/>
      <path d="M0 62.24-3.52 47.2m5.44 14.56-3.36-15.04m4 14.88L-.96 46.56M-63.68 0H-79.2m17.28.32 15.04 3.36M-21.12 20l-12-9.6m13.44 7.84-12.16-9.6m12.48 9.28-12.16-9.6" style="fill:none;fill-rule:nonzero;stroke:#d1a5fc;stroke-width:0.96px" transform="matrix(-3.125 0 0 2.13491 99.5 63.17)"/>
      <path d="M674.24 1028.32h16.96l16.8 3.84" style="fill:none;fill-rule:nonzero;stroke:#d1a5fc;stroke-width:0.96px" transform="matrix(-3.125 0 0 2.13491 2454 -2144.16)"/>
      <path d="m723.68 996.48 13.44 10.72 10.72 13.6" style="fill:none;fill-rule:nonzero;stroke:#d1a5fc;stroke-width:0.96px" transform="matrix(-3.125 0 0 2.13491 2454 -2051.93)"/>
      <path d="m755.36 947.2 3.84 16.8v16.96" style="fill:none;fill-rule:nonzero;stroke:#d1a5fc;stroke-width:0.96px" transform="matrix(-3.125 0 0 2.13491 2454 -1861.67)"/>
      <path d="M0 51.04h.16m-85.12-64.48h15.52m-15.52-.48h15.52M-3.52 68V52.48M-3.04 68V52.48M-52.16-9.76l-15.04-3.36m15.04 2.88L-67.2-13.6m41.6 23.36 9.76 12.32M-24 8.48l9.76 12.16m-9.28-12.48 9.76 12.16m8.16 32.16V68M-68-16.96h.16m45.76 22.08h.16" style="fill:none;fill-rule:nonzero;stroke:#d1a5fc;stroke-width:0.96px" transform="matrix(-3.125 0 0 2.13491 81.5 87.42)"/>
      <path d="m0 3.2.48.8 3.36-2.72L4 0l-.8-.8H1.92L-.8 2.72z" style="fill:none;fill-rule:nonzero;stroke:#d1a5fc;stroke-width:0.96px" transform="matrix(-3.125 0 0 2.13491 163 100.06)"/>
      <path d="M0 4.8h-.8V.64L0-.32l1.28.16.64.96-.96 4.32z" style="fill:none;fill-rule:nonzero;stroke:#d1a5fc;stroke-width:0.96px" transform="matrix(-3.125 0 0 2.13491 296 52.92)"/>
      <path d="M0 1.12v.8h4.32l.96-.8-.16-1.28L4-.8-.16.32z" style="fill:none;fill-rule:nonzero;stroke:#d1a5fc;stroke-width:0.96px" transform="matrix(-3.125 0 0 2.13491 99 195.36)"/>
      <path d="M0 89.76h3.68m0-33.92H0m-67.2 56.48h3.52M3.68 33.44H0M3.68 112H0M-63.68-22.56h-3.52m0 56.32h3.52m0-33.92h-3.52m0 90.24h3.52m0-34.08h-3.52" style="fill:none;fill-rule:nonzero;stroke:#d1a5fc;stroke-width:0.96px" transform="matrix(-3.125 0 0 2.13491 1944 1298.69)"/>
      <path d="M174.56 439.84h44.64v39.52h-44.64z" style="fill:none;stroke:#d1a5fc;stroke-width:0.96px" transform="matrix(0 2.13491 -3.125 0 3275 853.26)"/>
      <path d="M0 .8v.48h-.64v-.16H-.8L-.96.96V-.48 0l.16.16v.16l.16.16v.16h.32l.16.16z" style="fill:rgb(0,31,127);stroke:#d1a5fc;stroke-width:0.5px" transform="matrix(-3.125 0 0 2.13491 1688.5 1400.48)"/>
      <path d="M0-1.12V.32v-.64h-.16v-.16l-.16-.16h-.32L-.8-.8v-.48h.48v.16z" style="fill:rgb(0,31,127);stroke:#d1a5fc;stroke-width:0.5px" transform="matrix(-3.125 0 0 2.13491 1681 1399.11)"/>
      <path d="M0-.32V.96l-.16.16v.16l-.48.48h-.96V1.6h-.16v-.16h-.16v-.16h-.16V.96L-2.24.8V.32h-.16v-.48l-.16-.16v-.32h-.16V-.8h-.8v.16h-.16v.32h-.16V1.6L-4 1.44v-.16h-.16V.96h-.16V-.48h.16V-.8l.48-.48h.32v-.16h.64v.16h.32v.16h.16v.16h.16v.32h.16v.48l.16.16v.48l.16.16v.32l.32.32h.48l.16-.16V.96h.16V-.96h.16v.16h.16v.32z" style="fill:rgb(0,31,127);stroke:#d1a5fc;stroke-width:0.5px" transform="matrix(-3.125 0 0 2.13491 1679.5 1399.11)"/>
      <path d="M0-3.04V0h-4.32v-3.04h.48v2.56h1.6v-2.4h.48v2.4h1.28v-2.56z" style="fill:rgb(0,31,127);stroke:#d1a5fc;stroke-width:0.5px" transform="matrix(-3.125 0 0 2.13491 1679.5 1394.33)"/>
      <path d="M0-.32v.96L-.16.8h-.48V.64l.16-.16V.32l.16-.16V0h.16v-.16H0z" style="fill:rgb(0,31,127);stroke:#d1a5fc;stroke-width:0.5px" transform="matrix(-3.125 0 0 2.13491 1682.5 1384.08)"/>
      <path d="M0-1.28v.32h-.16v.16h-.16v.16h-.16l-.16.16v.16H-.8v.16L-.96 0v-.8h-3.36v-.48z" style="fill:rgb(0,31,127);stroke:#d1a5fc;stroke-width:0.5px" transform="matrix(-3.125 0 0 2.13491 1679.5 1385.1)"/>
      <path d="M167.84 327.52h44.64v39.2h-44.64z" style="fill:none;stroke:#d1a5fc;stroke-width:0.96px" transform="matrix(0 -2.13491 3.125 0 775 1919.69)"/>
      <path d="M171.29 332.16h16.14" style="fill:none;fill-rule:nonzero;stroke:#d1a5fc;stroke-width:0.96px" transform="matrix(-1.98224 -1.65045 2.41585 -1.35421 1446.58 2291.5)"/>
      <path d="M0 22.24h3.68v10.08h34.56v-42.4H3.68V0H0" style="fill:none;fill-rule:nonzero;stroke:#d1a5fc;stroke-width:0.96px" transform="matrix(-3.125 0 0 2.13491 1921 1489.97)"/>
      <path d="m0-22.24 2.4.32 2.4.8 2.08 1.28 1.76 1.76 1.44 2.24.8 2.24.32 2.56-.32 2.4-.8 2.4-1.44 2.08L6.88-2.4 4.8-.96l-2.4.8L0 0l-2.56-.16-2.24-.8-2.24-1.44-1.76-1.76-1.28-2.08-.8-2.4-.32-2.4.32-2.56.8-2.24 1.28-2.24 1.76-1.76 2.24-1.28 2.24-.8z" style="fill:none;fill-rule:nonzero;stroke:#d1a5fc;stroke-width:0.96px" transform="matrix(-3.125 0 0 2.13491 1855.5 1537.45)"/>
      <path d="m174.24 325.92 10.24 12.64m14.08 0 10.24-12.64m-10.24 29.92 10.24 12.48" style="fill:none;fill-rule:nonzero;stroke:#d1a5fc;stroke-width:0.96px" transform="matrix(-3.125 0 0 2.13491 2454 772.64)"/>
      <path d="M167.84 383.68h44.64v39.2h-44.64z" style="fill:none;stroke:#d1a5fc;stroke-width:0.96px" transform="matrix(0 -2.13491 3.125 0 599.5 1799.8)"/>
      <path d="M171.23 388.4h16.26" style="fill:none;fill-rule:nonzero;stroke:#d1a5fc;stroke-width:0.96px" transform="matrix(-1.96713 -1.65886 2.42818 -1.34389 1303.22 2245.08)"/>
      <path d="M0 22.24h3.68v10.08h34.56v-42.4H3.68V0H0" style="fill:none;fill-rule:nonzero;stroke:#d1a5fc;stroke-width:0.96px" transform="matrix(-3.125 0 0 2.13491 1921 1370.08)"/>
      <path d="m0-22.24 2.4.16 2.4.8 2.08 1.44 1.76 1.76L10.08-16l.8 2.4.32 2.4-.32 2.56-.8 2.24-1.44 2.24L6.88-2.4 4.8-1.12l-2.4.8L0 0l-2.56-.32-2.24-.8-2.24-1.28-1.76-1.76-1.28-2.24-.8-2.24-.32-2.56.32-2.4.8-2.4 1.28-2.08 1.76-1.76 2.24-1.44 2.24-.8z" style="fill:none;fill-rule:nonzero;stroke:#d1a5fc;stroke-width:0.96px" transform="matrix(-3.125 0 0 2.13491 1855.5 1417.56)"/>
      <path d="m174.24 382.08 10.24 12.48m14.08 0 10.24-12.48m-10.24 29.76 10.24 12.64" style="fill:none;fill-rule:nonzero;stroke:#d1a5fc;stroke-width:0.96px" transform="matrix(-3.125 0 0 2.13491 2454 532.85)"/>
      <path d="M414.64 578.96h44.64v39.36h-44.64z" style="fill:none;stroke:#d1a5fc;stroke-width:0.96px" transform="matrix(0 -2.13491 3.125 0 -782.25 1909.61)"/>
      <path d="M414.72 635.2h44.48v39.36h-44.48z" style="fill:none;stroke:#d1a5fc;stroke-width:0.96px" transform="matrix(0 -2.13491 3.125 0 -958 1789.55)"/>
      <path d="M299.76 578.96h44.64v39.36h-44.64z" style="fill:none;stroke:#d1a5fc;stroke-width:0.96px" transform="matrix(0 -2.13491 3.125 0 -423.25 1664.35)"/>
      <path d="M299.84 635.2h44.48v39.36h-44.48z" style="fill:none;stroke:#d1a5fc;stroke-width:0.96px" transform="matrix(0 -2.13491 3.125 0 -599 1544.29)"/>
      <path d="M299.76 691.44h44.64v39.36h-44.64z" style="fill:none;stroke:#d1a5fc;stroke-width:0.96px" transform="matrix(0 -2.13491 3.125 0 -774.75 1424.22)"/>
      <path d="m187.52 438.4-10.08 12.48m34.08 0-10.08-12.48" style="fill:none;fill-rule:nonzero;stroke:#d1a5fc;stroke-width:0.96px" transform="matrix(-3.125 0 0 2.13491 2454 356.25)"/>
      <path d="M211.52 438.4h-34.08v42.4h34.08v-14.88h4.96" style="fill:none;fill-rule:nonzero;stroke:#d1a5fc;stroke-width:0.96px" transform="matrix(-3.125 0 0 2.13491 2454 292.37)"/>
      <path d="M174.4 439.84h44.64v39.52H174.4z" style="fill:none;stroke:#d1a5fc;stroke-width:0.96px" transform="matrix(0 -2.13491 3.125 0 403 1693.56)"/>
      <path d="m211.52 468.16-10.08 12.64m-13.92 0-10.08-12.64" style="fill:none;fill-rule:nonzero;stroke:#d1a5fc;stroke-width:0.96px" transform="matrix(-3.125 0 0 2.13491 2454 228.84)"/>
      <path d="m0-22.24 2.4.32 2.4.8 2.08 1.28 1.76 1.76L9.92-16l.8 2.4.32 2.56-.32 2.4-.8 2.4-1.28 2.08L6.88-2.4 4.8-1.12l-2.4.96L0 0l-2.56-.16-2.4-.96-2.08-1.28-1.76-1.76-1.28-2.08-.8-2.4-.32-2.4.32-2.56.8-2.4 1.28-2.08 1.76-1.76 2.08-1.28 2.4-.8z" style="fill:none;fill-rule:nonzero;stroke:#d1a5fc;stroke-width:0.96px" transform="matrix(-3.125 0 0 2.13491 1846 1297.32)"/>
      <path d="M228.8 438.08h.48v-4.96" style="fill:none;fill-rule:nonzero;stroke:#d1a5fc;stroke-width:0.96px" transform="matrix(-3.125 0 0 2.13491 2454 394.85)"/>
      <path d="M254.72 414.24v4.96m-3.2 18.88 11.2-18.88" style="fill:none;fill-rule:nonzero;stroke:#d1a5fc;stroke-width:0.96px" transform="matrix(-3.125 0 0 2.13491 2454 435.16)"/>
      <path d="M228.8 376v57.12h33.92V376M240 394.88 228.8 376m33.92 57.12-11.2-19.04m-22.72 19.04 11.2-19.04" style="fill:none;fill-rule:nonzero;stroke:#d1a5fc;stroke-width:0.96px" transform="matrix(-3.125 0 0 2.13491 2454 527.38)"/>
      <path d="M214.48 388.72h62.56v36.16h-62.56z" style="fill:none;stroke:#d1a5fc;stroke-width:0.96px" transform="matrix(0 2.13491 -3.125 0 2957.25 861.63)"/>
      <path d="M254.72 433.12h8" style="fill:none;fill-rule:nonzero;stroke:#d1a5fc;stroke-width:0.96px" transform="matrix(-3.125 0 0 2.13491 2454 405.44)"/>
      <path d="m0-22.24 2.56.16 2.24.96 2.08 1.28 1.92 1.76L10.08-16l.8 2.4.32 2.4-.32 2.56-.8 2.4L8.8-4.16 6.88-2.4 4.8-1.12l-2.24.8L0 0l-2.4-.32-2.4-.8-2.08-1.28-1.76-1.76-1.44-2.08-.8-2.4-.32-2.56.32-2.4.8-2.4 1.44-2.08 1.76-1.76 2.08-1.28 2.4-.96z" style="fill:none;fill-rule:nonzero;stroke:#d1a5fc;stroke-width:0.96px" transform="matrix(-3.125 0 0 2.13491 1686 1414.83)"/>
      <path d="M0-113.6h1.76M0-94.56h1.76M0-116.48v2.88M0 1.28v1.6m-61.92-82.24V-.48m-5.6-116v116m4-116v116m43.2 1.76H0" style="fill:none;fill-rule:nonzero;stroke:#d1a5fc;stroke-width:0.96px" transform="matrix(-3.125 0 0 2.13491 1325 1463.33)"/>
      <path d="M313.52 415.76h99.04" style="fill:none;fill-rule:nonzero;stroke:#d1a5fc;stroke-width:0.96px" transform="matrix(0 -2.13491 3.125 0 20.25 2142.23)"/>
      <path d="M363.04 371.2h-71.2m69.44 23.68v94.08m-61.92-82.88v-33.12" style="fill:none;fill-rule:nonzero;stroke:#d1a5fc;stroke-width:0.96px" transform="matrix(-3.125 0 0 2.13491 2454 418.42)"/>
      <path d="M361.28 371.2h-61.92.96" style="fill:none;fill-rule:nonzero;stroke:#d1a5fc;stroke-width:0.96px" transform="matrix(-3.125 0 0 2.13491 2454 669.83)"/>
      <path d="M0 112.8h-4m67.52-116H1.6M0-3.2h-4M65.28-.32v-4.64m-1.76 121.12h-6.24m-6.08 0h-8m0 1.6h8m6.08 0h8" style="fill:none;fill-rule:nonzero;stroke:#d1a5fc;stroke-width:0.96px" transform="matrix(-3.125 0 0 2.13491 1523.5 1221.49)"/>
      <path d="M0-107.68h5.44m-68.8-24.48v-2.88M-1.6-68.16v93.6m-63.68-138.56V27.36" style="fill:none;fill-rule:nonzero;stroke:#d1a5fc;stroke-width:0.96px" transform="matrix(-3.125 0 0 2.13491 1016 1502.95)"/>
      <path d="M0-152.96h-1.92m70.72 24.48V4.64m1.6-162.24H-1.92m63.68 31.52v33.12" style="fill:none;fill-rule:nonzero;stroke:#d1a5fc;stroke-width:0.96px" transform="matrix(-3.125 0 0 2.13491 1214 1547.36)"/>
      <path d="M396.8 465.28V326.72h-1.92" style="fill:none;fill-rule:nonzero;stroke:#d1a5fc;stroke-width:0.96px" transform="matrix(-3.125 0 0 2.13491 2454 563.93)"/>
      <path d="M460.16 487.04V353.92m-65.28 135.04h66.08m6.08-1.12V324.8" style="fill:none;fill-rule:nonzero;stroke:#d1a5fc;stroke-width:0.96px" transform="matrix(-3.125 0 0 2.13491 2454 517.48)"/>
      <path d="M0 252h7.52M0 254.08h9.6M0 214.24h7.52M0 212.16h9.6m-2.08 11.36H9.6m-2.08 23.84H9.6M-124.32-2.08V.96" style="fill:none;fill-rule:nonzero;stroke:#d1a5fc;stroke-width:0.96px" transform="matrix(-3.125 0 0 2.13491 994.5 672.9)"/>
      <path d="M282.56 745.6H179.52" style="fill:none;fill-rule:nonzero;stroke:#d1a5fc;stroke-width:0.96px" transform="matrix(-3.125 0 0 2.13491 2454 -928.8)"/>
      <path d="M0 2.24h-19.52m-19.2 0h-2.08M-2.24 0h-17.28m-19.2 0h-4.16" style="fill:none;fill-rule:nonzero;stroke:#d1a5fc;stroke-width:0.96px" transform="matrix(-3.125 0 0 2.13491 1930.5 535.92)"/>
      <path d="M167.52 802.88v211.2" style="fill:none;fill-rule:nonzero;stroke:#d1a5fc;stroke-width:0.96px" transform="matrix(-3.125 0 0 2.13491 2454 -1624.27)"/>
      <path d="M282.56 486.88H189.6m287.04 256.64v-6.72m0-23.84V701.6" style="fill:none;fill-rule:nonzero;stroke:#d1a5fc;stroke-width:0.96px" transform="matrix(-3.125 0 0 2.13491 2454 -372.01)"/>
      <path d="M396.57 470.23h3.74l3.71-.8 3.42-1.4 3.04-2.1" style="fill:none;fill-rule:nonzero;stroke:#d1a5fc;stroke-width:0.96px" transform="matrix(2.4007 1.36673 -2.00057 1.64009 1160.7 -63.72)"/>
      <path d="M393.7 476.83h19l.12.79h-19.24z" style="fill:none;fill-rule:nonzero;stroke:#d1a5fc;stroke-width:0.96px" transform="matrix(2.2097 -1.50961 2.2097 1.50961 -751.6 1124)"/>
      <path d="m0 19.04-3.84-.32-3.52-1.12-3.36-1.76-2.88-2.4L0 0l.48.48-13.44 13.6-.64-.64" style="fill:none;fill-rule:nonzero;stroke:#d1a5fc;stroke-width:0.96px" transform="matrix(-3.125 0 0 2.13491 1325 1220.8)"/>
      <path d="M372.9 537.8h3.75l3.71-.8 3.54-1.5 3.04-2.1" style="fill:none;fill-rule:nonzero;stroke:#d1a5fc;stroke-width:0.96px" transform="matrix(-2.00057 1.64009 -2.4007 -1.36673 3312.62 1220.25)"/>
      <path d="M361.21 534.96h19.13v.68l-19.12.23z" style="fill:none;fill-rule:nonzero;stroke:#d1a5fc;stroke-width:0.96px" transform="matrix(2.1966 1.51852 -2.22275 1.50065 1671.15 -254.5)"/>
      <path d="M454.33 502.72h23.87v-.9l-23.87.22z" style="fill:none;fill-rule:nonzero;stroke:#d1a5fc;stroke-width:0.96px" transform="matrix(2.22016 -1.50244 2.19921 1.51675 -1143.26 1121.1)"/>
      <path d="m474.56 510.4-3.84.32-3.52.8-3.52 1.44-3.2 2.08-2.88 2.4" style="fill:none;fill-rule:nonzero;stroke:#d1a5fc;stroke-width:0.96px" transform="matrix(-3.125 0 0 2.13491 2454 60.44)"/>
      <path d="M0 3.36v29.12M.64 3.36v29.12M0-29.12V.32m.64-29.44V.32" style="fill:none;fill-rule:nonzero;stroke:#d1a5fc;stroke-width:0.96px" transform="matrix(-3.125 0 0 2.13491 93 407.83)"/>
      <path d="M0-3.04h4.16l.96.96v1.12L4.16 0H0v-1.44h.32v-.16H0z" style="fill:none;fill-rule:nonzero;stroke:#d1a5fc;stroke-width:0.96px" transform="matrix(-3.125 0 0 2.13491 99.5 415)"/>
      <path d="M0-730.24v61.6m5.6 0v-61.6M2.08-29.28V0m.64-29.28V0m-.64-61.6v29.44m.64-29.44v29.44" style="fill:none;fill-rule:nonzero;stroke:#d1a5fc;stroke-width:0.96px" transform="matrix(-3.125 0 0 2.13491 99.5 1904.66)"/>
      <path d="M0 991.52h61.6m0 5.6H0M32.32-5.12H61.6M32.32-5.6H61.6M0-5.12h29.28M0-5.6h29.28" style="fill:none;fill-rule:nonzero;stroke:#d1a5fc;stroke-width:0.96px" transform="matrix(-3.125 0 0 2.13491 705 70)"/>
      <path d="M0 5.12v-4L.96 0h1.12l.96 1.12v4H1.6v-.16h-.16v.16z" style="fill:none;fill-rule:nonzero;stroke:#d1a5fc;stroke-width:0.96px" transform="matrix(-3.125 0 0 2.13491 613.5 52.58)"/>
      <path d="M559.68 1032h61.6m0-5.6h-61.6" style="fill:none;fill-rule:nonzero;stroke:#d1a5fc;stroke-width:0.96px" transform="matrix(-3.125 0 0 2.13491 2454 -2139.72)"/>
      <path d="M0-161.76V0m-2.72-159.2v115.04m0-68.32v65.76m0 2.56V0" style="fill:none;fill-rule:nonzero;stroke:#d1a5fc;stroke-width:0.96px" transform="matrix(-3.125 0 0 2.13491 864 435.16)"/>
      <path d="M496.32 1014.08v12.32h12.48" style="fill:none;fill-rule:nonzero;stroke:#d1a5fc;stroke-width:0.96px" transform="matrix(-3.125 0 0 2.13491 2454 -2101.46)"/>
      <path d="M506.08 1026.4H493.6v-14.88" style="fill:none;fill-rule:nonzero;stroke:#d1a5fc;stroke-width:0.96px" transform="matrix(-3.125 0 0 2.13491 2454 -2096)"/>
      <path d="M0-57.28v36.32M0-1.92V0m-2.72-57.28v36.32m0 19.04V0" style="fill:none;fill-rule:nonzero;stroke:#d1a5fc;stroke-width:0.96px" transform="matrix(-3.125 0 0 2.13491 1733 663)"/>
      <path d="M156.08 402.8h22.4v.8h-22.4z" style="fill:none;stroke:#d1a5fc;stroke-width:0.96px" transform="matrix(0 -2.13491 3.125 0 671.25 1751.12)"/>
      <path d="M156.16 346.56h22.24v.8h-22.24z" style="fill:none;stroke:#d1a5fc;stroke-width:0.96px" transform="matrix(0 -2.13491 3.125 0 847 1871.18)"/>
      <path d="M212.64 460.64h12.64v.8h-12.64z" style="fill:none;stroke:#d1a5fc;stroke-width:0.96px" transform="matrix(0 -2.13491 3.125 0 329 1737.97)"/>
      <path d="M211.76 473.36h12.8v.8h-12.8z" style="fill:none;stroke:#d1a5fc;stroke-width:0.96px" transform="matrix(0 -2.13491 3.125 0 291.75 1709.1)"/>
      <path d="M243.68 439.84h12.8v.8h-12.8z" style="fill:none;stroke:#d1a5fc;stroke-width:0.96px" transform="matrix(3.125 0 0 2.13491 891 375.04)"/>
      <path d="M231.04 439.04h12.64v.8h-12.64z" style="fill:none;stroke:#d1a5fc;stroke-width:0.96px" transform="matrix(3.125 0 0 2.13491 970.5 378.45)"/>
      <path d="M232.82 498.1h25.57l-.12-.8-25.45.12z" style="fill:none;fill-rule:nonzero;stroke:#d1a5fc;stroke-width:0.96px" transform="matrix(-2.2097 1.50961 -2.2097 -1.50961 3329.1 1572.77)"/>
      <path d="m229.44 507.04.32-4 .8-4 1.6-3.68 2.08-3.36 2.56-3.04" style="fill:none;fill-rule:nonzero;stroke:#d1a5fc;stroke-width:0.96px" transform="matrix(-3.125 0 0 2.13491 2454 128.41)"/>
      <path d="M240.09 564.31h3.74l3.71-.8 3.32-1.51 3.13-2" style="fill:none;fill-rule:nonzero;stroke:#d1a5fc;stroke-width:0.96px" transform="matrix(-2.40068 -1.36675 2.0006 -1.64008 1150.41 2314.25)"/>
      <path d="M237.75 552.4h19.12v.9l-19.13-.22z" style="fill:none;fill-rule:nonzero;stroke:#d1a5fc;stroke-width:0.96px" transform="matrix(-2.1966 1.51852 -2.22275 -1.50065 3453.08 1528.55)"/>
      <path d="m0-12.96-.32 3.68-1.12 3.68-1.76 3.2L-5.6.48l-13.44-13.44.64-.48L-4.96 0l-.64.48" style="fill:none;fill-rule:nonzero;stroke:#d1a5fc;stroke-width:0.96px" transform="matrix(-3.125 0 0 2.13491 1732 1157.95)"/>
      <path d="m0-19.04 3.68.32L7.2-17.6l3.36 1.76 2.88 2.4L0 0l-.64-.48 13.44-13.6.64.64" style="fill:none;fill-rule:nonzero;stroke:#d1a5fc;stroke-width:0.96px" transform="matrix(-3.125 0 0 2.13491 1931 755.56)"/>
      <path d="M394.88 307.36h-11.36v19.36" style="fill:none;fill-rule:nonzero;stroke:#d1a5fc;stroke-width:0.96px" transform="matrix(-3.125 0 0 2.13491 2454 901.08)"/>
      <path d="M394.88 305.6h-9.6v19.2" style="fill:none;fill-rule:nonzero;stroke:#d1a5fc;stroke-width:0.96px" transform="matrix(-3.125 0 0 2.13491 2454 908.94)"/>
      <path d="M0 11.2h-10.08m-19.2 0h-2.56m33.6 1.76h-11.84m-19.2 0h-4.48m1.92-1.76V-1.76m-1.92 14.72V.48m1.92-2.24h-10.72m8.8 2.24h-8.8m13.28 10.72v1.76m19.2-1.76v1.76" style="fill:none;fill-rule:nonzero;stroke:#d1a5fc;stroke-width:0.96px" transform="matrix(-3.125 0 0 2.13491 1255.5 1574.69)"/>
      <path d="m0 19.2-3.68-.48-3.68-1.12-3.2-1.76-3.04-2.24L0 0l.48.64-13.44 13.44-.64-.48" style="fill:none;fill-rule:nonzero;stroke:#d1a5fc;stroke-width:0.96px" transform="matrix(-3.125 0 0 2.13491 1394 1493.39)"/>
      <path d="M363.62 316.36h3.75l3.71-.8 3.42-1.39 3.16-2.21" style="fill:none;fill-rule:nonzero;stroke:#d1a5fc;stroke-width:0.96px" transform="matrix(-2.00057 1.64009 -2.4007 -1.36673 2791.44 1405.57)"/>
      <path d="M351.66 313.58h19.24l-.12.8h-19z" style="fill:none;fill-rule:nonzero;stroke:#d1a5fc;stroke-width:0.96px" transform="matrix(2.2097 1.50961 -2.2097 1.50961 1220.35 565.3)"/>
      <path d="M0-176.32h10.56m2.08 0h9.76m19.2 0h22.08M0-173.76h22.4m19.2 0h22.08M0-5.44h63.68M115.36 0h14.88" style="fill:none;fill-rule:nonzero;stroke:#d1a5fc;stroke-width:0.96px" transform="matrix(-3.125 0 0 2.13491 2143 1587.33)"/>
      <path d="M50.88 488.96h164m-92.96-170.4V316m19.2 2.56V316" style="fill:none;fill-rule:nonzero;stroke:#d1a5fc;stroke-width:0.96px" transform="matrix(-3.125 0 0 2.13491 2454 536.27)"/>
      <path d="m0-12.8-.48 3.68-.96 3.52-1.76 3.36L-5.6.64-19.2-12.8l.64-.64L-5.12.16l-.48.48" style="fill:none;fill-rule:nonzero;stroke:#d1a5fc;stroke-width:0.96px" transform="matrix(-3.125 0 0 2.13491 2013 1241.3)"/>
      <path d="M0 316.16v-20.32m0-19.2v-20m-2.08 59.52v-20.32m0-19.2v-22.08M0 256.64h14.56m-16.64-2.08h14.56m2.08 2.08V2.24m-2.08 252.32V0M0 276.64h-2.08M0 295.84h-2.08M16.64 2.24V0m19.2 2.24V0" style="fill:none;fill-rule:nonzero;stroke:#d1a5fc;stroke-width:0.96px" transform="matrix(-3.125 0 0 2.13491 2103.5 535.92)"/>
      <path d="m0-12.8-.32 3.68-1.12 3.52-1.76 3.36L-5.6.64-19.2-12.8l.64-.64L-5.12.16l-.48.48" style="fill:none;fill-rule:nonzero;stroke:#d1a5fc;stroke-width:0.96px" transform="matrix(-3.125 0 0 2.13491 1991.5 568.03)"/>
      <path d="M111.93 514.23h3.74l3.59-.7 3.44-1.61 3.13-2" style="fill:none;fill-rule:nonzero;stroke:#d1a5fc;stroke-width:0.96px" transform="matrix(2.40068 1.36675 -2.0006 1.64008 2821.57 159.2)"/>
      <path d="M108.95 521.04h19.12v.9l-19.13-.22z" style="fill:none;fill-rule:nonzero;stroke:#d1a5fc;stroke-width:0.96px" transform="matrix(2.1966 -1.51852 2.22274 1.50065 664.04 539.1)"/>
      <path d="M242.88 532.16h6.4v-6.08" style="fill:none;fill-rule:nonzero;stroke:#d1a5fc;stroke-width:0.96px" transform="matrix(-3.125 0 0 2.13491 2454 -4.47)"/>
      <path d="M242.88 532.16h-1.6v-4.32" style="fill:none;fill-rule:nonzero;stroke:#d1a5fc;stroke-width:0.96px" transform="matrix(-3.125 0 0 2.13491 2454 -8.22)"/>
      <path d="M242.88 534.56v1.76m6.88.64v-11.52m-8.96 0v11.52" style="fill:none;fill-rule:nonzero;stroke:#d1a5fc;stroke-width:0.96px" transform="matrix(-3.125 0 0 2.13491 2454 -13.35)"/>
      <path d="M174.88 316h2.72" style="fill:none;fill-rule:nonzero;stroke:#d1a5fc;stroke-width:0.96px" transform="matrix(-3.125 0 0 2.13491 2454 905.52)"/>
      <path d="M509.84 871.12h14.24v15.68h-14.24z" style="fill:none;stroke:#d1a5fc;stroke-width:0.96px" transform="matrix(0 -2.13491 3.125 0 -1908.25 1481.95)"/>
      <path d="m0-67.04 6.24-.64h6.08l6.24.8 5.92 1.28 5.92 1.92 5.6 2.56 5.44 3.04 4.96 3.68 4.64 4.16 4 4.48 3.68 5.12 3.2 5.28 2.4 5.6 1.92 5.92 1.44 6.08.64 6.08v6.24L67.68.64" style="fill:none;fill-rule:nonzero;stroke:#d1a5fc;stroke-width:0.96px" transform="matrix(-3.125 0 0 2.13491 350.5 233.62)"/>
      <path d="M741.28 824.96h-24m24-.48h-24" style="fill:none;fill-rule:nonzero;stroke:#d1a5fc;stroke-width:0.96px" transform="matrix(-3.125 0 0 2.13491 2454 -1266.63)"/>
      <path d="M741.28 824.48h-24v.96" style="fill:none;fill-rule:nonzero;stroke:#d1a5fc;stroke-width:0.96px" transform="matrix(-3.125 0 0 2.13491 2454 -1267.65)"/>
      <path d="M704.64 822.88h21.12v.96h-21.12z" style="fill:none;stroke:#d1a5fc;stroke-width:0.96px" transform="matrix(-3.125 0 0 2.13491 2454 -1260.82)"/>
      <path d="M704.64 823.36h21.12" style="fill:none;fill-rule:nonzero;stroke:#d1a5fc;stroke-width:0.96px" transform="matrix(-3.125 0 0 2.13491 2454 -1260.82)"/>
      <path d="M525.76 1023.2h-61.6m95.52 0h62.88m0-979.2h-62.88" style="fill:none;fill-rule:nonzero;stroke:#d1a5fc;stroke-width:0.96px" transform="matrix(-3.125 0 0 2.13491 2454 -23.6)"/>
      <path d="M622.56 1010.4h-11.68M608.96 1010.4h-4m-2.08 0h-4M596.96 1010.4h-15.68M579.2 1010.4h-4m-1.92 0h-4M567.36 1010.4h-7.68" style="fill:none;fill-rule:nonzero;stroke:#d1a5fc;stroke-width:0.96px" transform="matrix(-3.125 0 0 2.13491 2454 -2059.45)"/>
      <path d="M559.68 1010.4h62.88v16" style="fill:none;fill-rule:nonzero;stroke:#d1a5fc;stroke-width:0.96px" transform="matrix(-3.125 0 0 2.13491 2454 -2093.6)"/>
      <path d="M542.72 721.28h1.12" style="fill:none;fill-rule:nonzero;stroke:#d1a5fc;stroke-width:0.96px" transform="matrix(-3.125 0 0 2.13491 2454 -824.96)"/>
      <path d="M543.84 739.36h-1.12v.96h-19.04v-.96h19.04" style="fill:none;fill-rule:nonzero;stroke:#d1a5fc;stroke-width:0.96px" transform="matrix(-3.125 0 0 2.13491 2454 -904.2)"/>
      <path d="m0-19.04.32 3.68 1.12 3.68 1.76 3.2L5.6-5.6l3.84 3.04 3.04 1.44 3.2.96 3.36.16" style="fill:none;fill-rule:nonzero;stroke:#d1a5fc;stroke-width:0.96px" transform="matrix(-3.125 0 0 2.13491 817.5 714.92)"/>
      <path d="M543.84 602.08v119.2m0-138.24v-2.72m0 160v2.72" style="fill:none;fill-rule:nonzero;stroke:#d1a5fc;stroke-width:0.96px" transform="matrix(-3.125 0 0 2.13491 2454 -570.47)"/>
      <path d="M214.13 765.78H218l3.6-.6 3.59-1.4 3.08-2.04" style="fill:none;fill-rule:nonzero;stroke:#d1a5fc;stroke-width:0.96px" transform="matrix(-2.45278 -1.32287 1.93637 -1.67567 826.38 2196.65)"/>
      <path d="M211.93 754.16h19.12v.68l-19.11.23z" style="fill:none;fill-rule:nonzero;stroke:#d1a5fc;stroke-width:0.96px" transform="matrix(-2.22275 1.50065 -2.1966 -1.51852 3911.67 1457.37)"/>
      <path d="M214.13 765.78H218l3.6-.6 3.59-1.4 3.08-2.04" style="fill:none;fill-rule:nonzero;stroke:#d1a5fc;stroke-width:0.96px" transform="matrix(-1.93637 1.67567 -2.45278 -1.32287 3616.17 1285.52)"/>
      <path d="M211.93 754.16h19.12v.68l-19.11.23z" style="fill:none;fill-rule:nonzero;stroke:#d1a5fc;stroke-width:0.96px" transform="matrix(2.1966 1.51852 -2.22275 1.50065 2534.05 -822.26)"/>
      <path d="M214.13 765.78H218l3.6-.6 3.59-1.4 3.08-2.04" style="fill:none;fill-rule:nonzero;stroke:#d1a5fc;stroke-width:0.96px" transform="matrix(-1.93637 1.67567 -2.45278 -1.32287 3618.38 1383.59)"/>
      <path d="M211.93 754.16h19.12v.68l-19.11.23z" style="fill:none;fill-rule:nonzero;stroke:#d1a5fc;stroke-width:0.96px" transform="matrix(2.1966 1.51852 -2.22275 1.50065 2536.26 -724.2)"/>
      <path d="M506.08 1014.08h19.68v2.24h-19.68z" style="fill:#d1a5fc;stroke:#d1a5fc;stroke-width:0.96px" transform="matrix(-3.125 0 0 2.13491 2454 -2079.94)"/>
      <path d="M0-124.16V-3.2h76.64v2.72H9.44V0h-9.6v-124.16z" style="fill:none;fill-rule:nonzero;stroke:#d1a5fc;stroke-width:0.96px" transform="matrix(-3.125 0 0 2.13491 994 1022.68)"/>
      <path d="M344.8 697.12h2.72v3.04" style="fill:none;fill-rule:nonzero;stroke:#d1a5fc;stroke-width:0.96px" transform="matrix(-3.125 0 0 2.13491 2454 -728.29)"/>
      <path d="M233.84 736.56h2.72v135.36h-2.72z" style="fill:#d1a5fc;stroke:#d1a5fc;stroke-width:0.96px" transform="matrix(0 -2.13491 3.125 0 -794.25 1039.93)"/>
      <path d="M376.8 734.72h2.56v19.2h-2.56z" style="fill:none;stroke:#d1a5fc;stroke-width:0.96px" transform="matrix(0 -2.13491 3.125 0 -1053.5 1472.9)"/>
      <path d="M509.12 853.12h19.2v17.92h-19.2z" style="fill:none;stroke:#d1a5fc;stroke-width:0.96px" transform="matrix(3.125 0 0 2.13491 -788 -1426.15)"/>
      <path d="M482.88 660.32h119.2v2.72h-119.2z" style="fill:#d1a5fc;stroke:#d1a5fc;stroke-width:0.96px" transform="matrix(0 -2.13491 3.125 0 -1309 2000.3)"/>
      <path d="M230.72 766.56H228m2.72-19.04H228" style="fill:#d1a5fc;fill-rule:nonzero;stroke:#d1a5fc;stroke-width:0.96px" transform="matrix(-3.125 0 0 2.13491 2454 -977.64)"/>
      <path d="m0-25.6 2.72.32 2.72.96 2.4 1.6 2.08 1.92 1.44 2.4.96 2.72.32 2.88-.32 2.88-.96 2.56L9.92-4.8 7.84-2.88l-2.4 1.6-2.72.96L0 0l-2.88-.32-2.72-.96-2.4-1.6-2.08-1.92-1.44-2.56-.96-2.56-.32-2.88.32-2.88.96-2.72 1.44-2.4L-8-22.72l2.4-1.6 2.72-.96z" style="fill:none;fill-rule:nonzero;stroke:#d1a5fc;stroke-width:0.96px" transform="matrix(-3.125 0 0 2.13491 434 238.74)"/>
      <path d="m0-11.52-.32-.16-.48.16-4.96 5.12-.16.32.16.48L-.16 0l.32.16L.48 0 5.6-5.12l.16-.32-.16-.32z" style="fill:none;fill-rule:nonzero;stroke:#d1a5fc;stroke-width:0.96px" transform="matrix(-3.125 0 0 2.13491 465 244.9)"/>
      <path d="m-.16.16.32.32.32-.32-.32-.32z" style="fill:none;fill-rule:nonzero;stroke:#d1a5fc;stroke-width:0.96px" transform="matrix(-3.125 0 0 2.13491 488 234.64)"/>
      <path d="M0 0h.48v.48H0z" style="fill:none;fill-rule:nonzero;stroke:#d1a5fc;stroke-width:0.96px" transform="matrix(-3.125 0 0 2.13491 469.5 247.28)"/>
      <path d="M0-5.12 5.92.96h.48l.48-.64.16-.16L6.88 0 .96-6.08H.48L0-5.44l-.16.16z" style="fill:none;fill-rule:nonzero;stroke:#d1a5fc;stroke-width:0.96px" transform="matrix(-3.125 0 0 2.13491 487 245.58)"/>
      <path d="m0 .16.16-.32L0-.48-5.12-5.6l-.32-.16-.32.16-5.6 5.6-.16.32.16.48 4.96 4.96.48.16.32-.16z" style="fill:none;fill-rule:nonzero;stroke:#d1a5fc;stroke-width:0.96px" transform="matrix(-3.125 0 0 2.13491 447.5 189.9)"/>
      <path d="M0-.48v.32L.32 0l.16-.16v-.32z" style="fill:none;fill-rule:nonzero;stroke:#d1a5fc;stroke-width:0.96px" transform="matrix(-3.125 0 0 2.13491 469.5 175.55)"/>
      <path d="m.16-.48-.32.32.32.32.32-.32z" style="fill:none;fill-rule:nonzero;stroke:#d1a5fc;stroke-width:0.96px" transform="matrix(-3.125 0 0 2.13491 488 188.19)"/>
      <path d="M0-7.04-5.92-.96l-.16.16.16.16.48.64h.48L.96-6.08l.16-.16-.16-.16-.48-.64z" style="fill:none;fill-rule:nonzero;stroke:#d1a5fc;stroke-width:0.96px" transform="matrix(-3.125 0 0 2.13491 468.5 190.24)"/>
      <path d="M0 11.68h.8l5.12-5.12.16-.48-.16-.32L.16.16-.16 0l-.32.16-5.12 5.12-.16.32.16.32z" style="fill:none;fill-rule:nonzero;stroke:#d1a5fc;stroke-width:0.96px" transform="matrix(-3.125 0 0 2.13491 403.5 177.6)"/>
      <path d="m.16-.16-.32-.32-.16.16V0l.16.16z" style="fill:none;fill-rule:nonzero;stroke:#d1a5fc;stroke-width:0.96px" transform="matrix(-3.125 0 0 2.13491 380.5 188.19)"/>
      <path d="M0-.48h-.48v.32l.32.16L0-.16z" style="fill:none;fill-rule:nonzero;stroke:#d1a5fc;stroke-width:0.96px" transform="matrix(-3.125 0 0 2.13491 399 175.55)"/>
      <path d="M0 5.12-5.92-.96h-.48l-.48.64V0L-.8 6.08h.32L0 5.44l.16-.16z" style="fill:none;fill-rule:nonzero;stroke:#d1a5fc;stroke-width:0.96px" transform="matrix(-3.125 0 0 2.13491 381.5 177.26)"/>
      <path d="m0 0-.16.32.16.32 5.12 5.12.32.16.32-.16 5.76-5.6.16-.48-.16-.32L6.4-5.76l-.32-.16-.48.16z" style="fill:none;fill-rule:nonzero;stroke:#d1a5fc;stroke-width:0.96px" transform="matrix(-3.125 0 0 2.13491 421 232.6)"/>
      <path d="M-.48 0H0v.48h-.48z" style="fill:none;fill-rule:nonzero;stroke:#d1a5fc;stroke-width:0.96px" transform="matrix(-3.125 0 0 2.13491 399 247.28)"/>
      <path d="M-.16.48.16.16l-.32-.32-.16.16v.32z" style="fill:none;fill-rule:nonzero;stroke:#d1a5fc;stroke-width:0.96px" transform="matrix(-3.125 0 0 2.13491 380.5 234.64)"/>
      <path d="M0 7.04 5.92.96 6.08.8 5.92.64 5.44 0h-.32L-.96 6.08v.32l.48.64z" style="fill:none;fill-rule:nonzero;stroke:#d1a5fc;stroke-width:0.96px" transform="matrix(-3.125 0 0 2.13491 400 232.6)"/>
      <path d="M619 304h124v327H619z" style="fill:#d1a5fc" transform="matrix(.66935 0 0 .5223 203.67 100.46)"/>
      <path d="m0-11.52-.32-.16-.48.16-4.96 5.12-.16.32.16.48L-.16 0l.32.16L.48 0 5.6-5.12l.16-.32-.16-.32z" style="fill:none;fill-rule:nonzero;stroke:#d1a5fc;stroke-width:0.96px" transform="matrix(-3.125 0 0 2.13491 308 245.58)"/>
      <path d="m-.16.16.32.32.32-.32-.32-.32z" style="fill:none;fill-rule:nonzero;stroke:#d1a5fc;stroke-width:0.96px" transform="matrix(-3.125 0 0 2.13491 331 235.33)"/>
      <path d="M0 0h.48v.48H0z" style="fill:none;fill-rule:nonzero;stroke:#d1a5fc;stroke-width:0.96px" transform="matrix(-3.125 0 0 2.13491 312.5 247.97)"/>
      <path d="M0-5.12 5.92.96h.48l.48-.64.16-.16L6.88 0 .96-6.08H.48L0-5.44l-.16.16z" style="fill:none;fill-rule:nonzero;stroke:#d1a5fc;stroke-width:0.96px" transform="matrix(-3.125 0 0 2.13491 330 246.26)"/>
      <path d="m0 .16.16-.32L0-.48-5.12-5.6l-.32-.16-.32.16-5.6 5.6-.16.32.16.48 4.96 4.96.48.16.32-.16z" style="fill:none;fill-rule:nonzero;stroke:#d1a5fc;stroke-width:0.96px" transform="matrix(-3.125 0 0 2.13491 290.5 190.58)"/>
      <path d="M0-.48v.32L.32 0l.16-.16v-.32z" style="fill:none;fill-rule:nonzero;stroke:#d1a5fc;stroke-width:0.96px" transform="matrix(-3.125 0 0 2.13491 312.5 176.23)"/>
      <path d="m.16-.48-.32.32.32.32.32-.32z" style="fill:none;fill-rule:nonzero;stroke:#d1a5fc;stroke-width:0.96px" transform="matrix(-3.125 0 0 2.13491 331 188.87)"/>
      <path d="M0-7.04-5.92-.96l-.16.16.16.16.48.64h.48L.96-6.08l.16-.16-.16-.16-.48-.64z" style="fill:none;fill-rule:nonzero;stroke:#d1a5fc;stroke-width:0.96px" transform="matrix(-3.125 0 0 2.13491 311.5 190.92)"/>
      <path d="M0 11.68h.8l5.12-5.12.16-.48-.16-.32L.16.16-.16 0l-.32.16-5.12 5.12-.16.32.16.32z" style="fill:none;fill-rule:nonzero;stroke:#d1a5fc;stroke-width:0.96px" transform="matrix(-3.125 0 0 2.13491 246.5 178.28)"/>
      <path d="m.16-.16-.32-.32-.16.16V0l.16.16z" style="fill:none;fill-rule:nonzero;stroke:#d1a5fc;stroke-width:0.96px" transform="matrix(-3.125 0 0 2.13491 223.5 188.87)"/>
      <path d="M0-.48h-.48v.32l.32.16L0-.16z" style="fill:none;fill-rule:nonzero;stroke:#d1a5fc;stroke-width:0.96px" transform="matrix(-3.125 0 0 2.13491 242 176.23)"/>
      <path d="M0 5.12-5.92-.96h-.48l-.48.64V0L-.8 6.08h.32L0 5.44l.16-.16z" style="fill:none;fill-rule:nonzero;stroke:#d1a5fc;stroke-width:0.96px" transform="matrix(-3.125 0 0 2.13491 224.5 177.94)"/>
      <path d="m0 0-.16.32.16.32 5.12 5.12.32.16.32-.16 5.76-5.6.16-.48-.16-.32L6.4-5.76l-.32-.16-.48.16z" style="fill:none;fill-rule:nonzero;stroke:#d1a5fc;stroke-width:0.96px" transform="matrix(-3.125 0 0 2.13491 264 233.28)"/>
      <path d="M-.48 0H0v.48h-.48z" style="fill:none;fill-rule:nonzero;stroke:#d1a5fc;stroke-width:0.96px" transform="matrix(-3.125 0 0 2.13491 242 247.97)"/>
      <path d="M-.16.48.16.16l-.32-.32-.16.16v.32z" style="fill:none;fill-rule:nonzero;stroke:#d1a5fc;stroke-width:0.96px" transform="matrix(-3.125 0 0 2.13491 223.5 235.33)"/>
      <path d="M0 7.04 5.92.96 6.08.8 5.92.64 5.44 0h-.32L-.96 6.08v.32l.48.64z" style="fill:none;fill-rule:nonzero;stroke:#d1a5fc;stroke-width:0.96px" transform="matrix(-3.125 0 0 2.13491 243 233.28)"/>
      <path d="m0-25.6 2.88.32 2.72.96 2.4 1.6 2.08 1.92 1.44 2.4.96 2.72.32 2.88-.32 2.88-.96 2.56-1.44 2.56L8-2.88l-2.4 1.6-2.72.96L0 0l-2.72-.32-2.72-.96-2.4-1.6-2.08-1.92-1.44-2.56-.96-2.56-.32-2.88.32-2.88.96-2.72 1.44-2.4 2.08-1.92 2.4-1.6 2.72-.96z" style="fill:none;fill-rule:nonzero;stroke:#d1a5fc;stroke-width:0.96px" transform="matrix(-3.125 0 0 2.13491 279 238.74)"/>
      <path d="M0 11.84-.16.64m.48 0 .16 11.04m.16-3.36v-4.8M10.72.48l.16 11.04m.48 0L11.2.48m-.64 7.68-.16-4.8M5.44 0h.16" style="fill:none;fill-rule:nonzero;stroke:#d1a5fc;stroke-width:0.96px" transform="matrix(-3.125 0 0 2.13491 330 83.66)"/>
      <path d="m681.12 1014.88 1.92-.96 2.08-.32 2.24.32 1.92.8.8.96.16 1.12" style="fill:none;fill-rule:nonzero;stroke:#d1a5fc;stroke-width:0.96px" transform="matrix(-3.125 0 0 2.13491 2454 -2079.94)"/>
      <path d="M690.4 1016.96v-.48h.48v.48" style="fill:none;fill-rule:nonzero;stroke:#d1a5fc;stroke-width:0.96px" transform="matrix(-3.125 0 0 2.13491 2454 -2086.43)"/>
      <path d="M690.56 1012.96h-.32m.32-.48h-.32" style="fill:none;fill-rule:nonzero;stroke:#d1a5fc;stroke-width:0.96px" transform="matrix(-3.125 0 0 2.13491 2454 -2069.35)"/>
      <path d="M680.32 1015.52v-1.12l.8-.96" style="fill:none;fill-rule:nonzero;stroke:#d1a5fc;stroke-width:0.96px" transform="matrix(-3.125 0 0 2.13491 2454 -2076.87)"/>
      <path d="m679.52 1016.8-.16-.16.32-.32h.16l.16.32v.16" style="fill:none;fill-rule:nonzero;stroke:#d1a5fc;stroke-width:0.96px" transform="matrix(-3.125 0 0 2.13491 2454 -2085.75)"/>
      <path d="M680 1006.88h.32m-.32-.32.32-.16m8 6.4h-5.92" style="fill:none;fill-rule:nonzero;stroke:#d1a5fc;stroke-width:0.96px" transform="matrix(-3.125 0 0 2.13491 2454 -2056.03)"/>
      <path d="m688.96 1004.96-3.52.48-3.68-.48" style="fill:none;fill-rule:nonzero;stroke:#d1a5fc;stroke-width:0.96px" transform="matrix(-3.125 0 0 2.13491 2454 -2037.25)"/>
      <path d="m0-.32-.64.48M.8-2.24h.32m-.32.48L.48-.8m.64-1.12H.8M.48-.8 0-.32m.8.96H-.96M.8.8l-1.28.8m1.6.32V1.6m.48 0 .16.32M.8.8V.64" style="fill:none;fill-rule:nonzero;stroke:#d1a5fc;stroke-width:0.96px" transform="matrix(-3.125 0 0 2.13491 299.5 104.84)"/>
      <path d="M690.54 1005.07h.45v-.45" style="fill:none;fill-rule:nonzero;stroke:#d1a5fc;stroke-width:0.96px" transform="matrix(2.21013 1.50932 -2.20929 1.5099 988.31 -2450.87)"/>
      <path d="M688.48 1006.88h-.16l.48-.48" style="fill:none;fill-rule:nonzero;stroke:#d1a5fc;stroke-width:0.96px" transform="matrix(-3.125 0 0 2.13491 2454 -2043.4)"/>
      <path d="M0 1.12-.64.64m-.96-1.92h-.32m.8 1.44L-1.6-.8m-.32-.16h.32m.96 1.6-.48-.48m-.32 1.44 1.76-.16m-1.76.32 1.28.64" style="fill:none;fill-rule:nonzero;stroke:#d1a5fc;stroke-width:0.96px" transform="matrix(-3.125 0 0 2.13491 323 103.13)"/>
      <path d="M682.24 1006.72h.16l-.48-.32" style="fill:none;fill-rule:nonzero;stroke:#d1a5fc;stroke-width:0.96px" transform="matrix(-3.125 0 0 2.13491 2454 -2043.05)"/>
      <path d="M679.68 1006.24v-.16m.48 0v.16m.32-1.12v-.16" style="fill:none;fill-rule:nonzero;stroke:#d1a5fc;stroke-width:0.96px" transform="matrix(-3.125 0 0 2.13491 2454 -2038.95)"/>
      <path d="M679.76 1005.04h.16l.16-.32-.16-.16h-.16" style="fill:none;fill-rule:nonzero;stroke:#d1a5fc;stroke-width:0.96px" transform="matrix(0 2.13491 -3.125 0 3469.25 -1341.95)"/>
      <path d="M0 6.72 3.68-3.84m.48.16L.32 6.88m1.44-3.2L3.36-.8m10.72.64L10.24 10.4m.48.16L14.4 0m-3.36 7.04 1.6-4.48m-3.36-4.8h.16" style="fill:none;fill-rule:nonzero;stroke:#d1a5fc;stroke-width:0.96px" transform="matrix(-3.125 0 0 2.13491 273.5 99.72)"/>
      <path d="M702.72 1006.88h2.08l2.08.48 1.92.96 1.6 1.44.32 1.12-.32 1.12" style="fill:none;fill-rule:nonzero;stroke:#d1a5fc;stroke-width:0.96px" transform="matrix(-3.125 0 0 2.13491 2454 -2055.35)"/>
      <path d="M711.84 1009.76v-.16l.16-.16h.16l.16.16v.16l-.16.16" style="fill:none;fill-rule:nonzero;stroke:#d1a5fc;stroke-width:0.96px" transform="matrix(-3.125 0 0 2.13491 2454 -2056.37)"/>
      <path d="M710.4 1006.24h-.32m.48-.32-.32-.16" style="fill:none;fill-rule:nonzero;stroke:#d1a5fc;stroke-width:0.96px" transform="matrix(-3.125 0 0 2.13491 2454 -2040.66)"/>
      <path d="m701.12 1012 .48-1.12 1.12-.64" style="fill:none;fill-rule:nonzero;stroke:#d1a5fc;stroke-width:0.96px" transform="matrix(-3.125 0 0 2.13491 2454 -2062.52)"/>
      <path d="M701.44 1013.44v-.16l.16-.16h.16l.16.16.16.16-.16.16" style="fill:none;fill-rule:nonzero;stroke:#d1a5fc;stroke-width:0.96px" transform="matrix(-3.125 0 0 2.13491 2454 -2072.09)"/>
      <path d="m700.48 1001.44.32.16m-.16-.64.32.16m5.28 8.64-5.6-1.92" style="fill:none;fill-rule:nonzero;stroke:#d1a5fc;stroke-width:0.96px" transform="matrix(-3.125 0 0 2.13491 2454 -2037.93)"/>
      <path d="m706.4 1002.24-3.52-.8-3.2-1.76" style="fill:none;fill-rule:nonzero;stroke:#d1a5fc;stroke-width:0.96px" transform="matrix(-3.125 0 0 2.13491 2454 -2019.14)"/>
      <path d="m0-1.12-.8.16m2.24-1.76.32.16m-.48.32-.64.8m.96-.8-.16-.16m-.8.96L0-1.12M.48 0l-1.6-.64m1.6.8-1.6.16m1.44.96.16-.16m.48.16L.8 1.6M.48.16V0" style="fill:none;fill-rule:nonzero;stroke:#d1a5fc;stroke-width:0.96px" transform="matrix(-3.125 0 0 2.13491 243 119.53)"/>
      <path d="M707.91 998.89h.23l.22-.23-.22-.22" style="fill:none;fill-rule:nonzero;stroke:#d1a5fc;stroke-width:0.96px" transform="matrix(2.21013 1.50932 -2.20929 1.5099 882.76 -2454.08)"/>
      <path d="m706.4 1001.12-.16-.16.48-.16" style="fill:none;fill-rule:nonzero;stroke:#d1a5fc;stroke-width:0.96px" transform="matrix(-3.125 0 0 2.13491 2454 -2019.14)"/>
      <path d="M0 1.6-.48.96m-.16-2.08-.16-.16m0 1.6v-.96M-.96-.8l.32.16m.16 1.6L-.8.32m-.8 1.28 1.76.64m-1.76-.48.96 1.12" style="fill:none;fill-rule:nonzero;stroke:#d1a5fc;stroke-width:0.96px" transform="matrix(-3.125 0 0 2.13491 265.5 108.94)"/>
      <path d="M700.48 1003.52h.16l-.32-.64" style="fill:none;fill-rule:nonzero;stroke:#d1a5fc;stroke-width:0.96px" transform="matrix(-3.125 0 0 2.13491 2454 -2028.7)"/>
      <path d="m697.6 1003.36.16-.16m.32.16v.16m.64-.96v-.16" style="fill:none;fill-rule:nonzero;stroke:#d1a5fc;stroke-width:0.96px" transform="matrix(-3.125 0 0 2.13491 2454 -2027.68)"/>
      <path d="M697.67 1002.57h.23l.11-.11v-.23l-.11-.11" style="fill:none;fill-rule:nonzero;stroke:#d1a5fc;stroke-width:0.96px" transform="matrix(2.2097 1.50961 -2.2097 1.50961 946.24 -2451.95)"/>
      <path d="m0 1.12 7.36-8.48m.32.32L.48 1.44m2.4-2.4 3.04-3.68m9.76 4.32L8.32 8.16m.32.32L16 0m-5.6 5.44 3.04-3.68M12-4h.16" style="fill:none;fill-rule:nonzero;stroke:#d1a5fc;stroke-width:0.96px" transform="matrix(-3.125 0 0 2.13491 224 130.12)"/>
      <path d="m721.6 993.44 2.08.64 1.76 1.28 1.44 1.6.96 1.92-.16 1.12-.64.96" style="fill:none;fill-rule:nonzero;stroke:#d1a5fc;stroke-width:0.96px" transform="matrix(-3.125 0 0 2.13491 2454 -2003.09)"/>
      <path d="M729.28 995.36v-.16h.48v.48h-.16" style="fill:none;fill-rule:nonzero;stroke:#d1a5fc;stroke-width:0.96px" transform="matrix(-3.125 0 0 2.13491 2454 -1995.57)"/>
      <path d="m726.56 992.96-.16-.32m.48 0-.32-.32" style="fill:none;fill-rule:nonzero;stroke:#d1a5fc;stroke-width:0.96px" transform="matrix(-3.125 0 0 2.13491 2454 -1983.62)"/>
      <path d="m719.52 1000.96.96-.8 1.12-.32" style="fill:none;fill-rule:nonzero;stroke:#d1a5fc;stroke-width:0.96px" transform="matrix(-3.125 0 0 2.13491 2454 -2016.75)"/>
      <path d="M720.96 1002.56v-.16l.16-.16.32.16v.32l-.16.16" style="fill:none;fill-rule:nonzero;stroke:#d1a5fc;stroke-width:0.96px" transform="matrix(-3.125 0 0 2.13491 2454 -2025.97)"/>
      <path d="m718.56 989.6.32.16m0-.48.32.16m1.76 10.08-4.48-3.84" style="fill:none;fill-rule:nonzero;stroke:#d1a5fc;stroke-width:0.96px" transform="matrix(-3.125 0 0 2.13491 2454 -1991.13)"/>
      <path d="m720.8 992.8-3.04-1.92-2.4-2.72" style="fill:none;fill-rule:nonzero;stroke:#d1a5fc;stroke-width:0.96px" transform="matrix(-3.125 0 0 2.13491 2454 -1974.4)"/>
      <path d="M0-1.92h-.8m2.72-.96.16.32m-.48.16-.96.48m1.28-.32-.32-.32m-.96.64H0M0-.64l-1.28-1.12M-.16-.48-1.6-.8M-.64.48l.16-.16m.32.32v.32m0-1.44L0-.64" style="fill:none;fill-rule:nonzero;stroke:#d1a5fc;stroke-width:0.96px" transform="matrix(-3.125 0 0 2.13491 196.5 146.86)"/>
      <path d="M721.76 986.88h.48v-.48" style="fill:none;fill-rule:nonzero;stroke:#d1a5fc;stroke-width:0.96px" transform="matrix(3.125 0 0 2.13491 -2058.5 -1958)"/>
      <path d="m721.12 989.28-.16-.16h.64" style="fill:none;fill-rule:nonzero;stroke:#d1a5fc;stroke-width:0.96px" transform="matrix(-3.125 0 0 2.13491 2454 -1968.93)"/>
      <path d="m0 2.08-.32-.8M.32-.8.16-.96M-.32.48 0-.32m-.16-.32L0-.48m-.32 1.76V.64m-1.28.8 1.44 1.12m-1.6-.96.64 1.44" style="fill:none;fill-rule:nonzero;stroke:#d1a5fc;stroke-width:0.96px" transform="matrix(-3.125 0 0 2.13491 215 128.75)"/>
      <path d="m716.32 993.6.16.16v-.64" style="fill:none;fill-rule:nonzero;stroke:#d1a5fc;stroke-width:0.96px" transform="matrix(-3.125 0 0 2.13491 2454 -1987.03)"/>
      <path d="m713.44 994.08.16-.16m.32.32v.16m.8-.64.16-.16" style="fill:none;fill-rule:nonzero;stroke:#d1a5fc;stroke-width:0.96px" transform="matrix(-3.125 0 0 2.13491 2454 -1989.42)"/>
      <path d="M713.57 993.9h.22l.12-.33-.23-.23" style="fill:none;fill-rule:nonzero;stroke:#d1a5fc;stroke-width:0.96px" transform="matrix(2.2097 1.50962 -2.20972 1.5096 842.48 -2444.09)"/>
      <path d="m0-4.64 9.76-5.28m.16.32L.16-4.32M3.2-5.6l4.32-2.24m7.36 7.52L5.12 4.96m.32.32L15.2 0M8 3.04 12.16.8m.64-6.08h.16" style="fill:none;fill-rule:nonzero;stroke:#d1a5fc;stroke-width:0.96px" transform="matrix(-3.125 0 0 2.13491 186.5 171.8)"/>
      <path d="m735.36 974.88 1.6 1.28 1.28 1.76.8 1.92.32 2.24-.64 1.12-.96.64" style="fill:none;fill-rule:nonzero;stroke:#d1a5fc;stroke-width:0.96px" transform="matrix(-3.125 0 0 2.13491 2454 -1926.91)"/>
      <path d="m740.48 975.84.16-.16h.48v.32l-.16.16h-.16" style="fill:none;fill-rule:nonzero;stroke:#d1a5fc;stroke-width:0.96px" transform="matrix(-3.125 0 0 2.13491 2454 -1912.22)"/>
      <path d="m736.96 974.56-.16-.32m.64 0-.16-.16" style="fill:none;fill-rule:nonzero;stroke:#d1a5fc;stroke-width:0.96px" transform="matrix(-3.125 0 0 2.13491 2454 -1905.4)"/>
      <path d="m733.12 984 1.12-.48 1.12.16" style="fill:none;fill-rule:nonzero;stroke:#d1a5fc;stroke-width:0.96px" transform="matrix(-3.125 0 0 2.13491 2454 -1945.7)"/>
      <path d="m735.36 985.44.16-.16h.32v.32l-.16.16h-.16" style="fill:none;fill-rule:nonzero;stroke:#d1a5fc;stroke-width:0.96px" transform="matrix(-3.125 0 0 2.13491 2454 -1953.21)"/>
      <path d="m732 973.44.16.32m.16-.48.16.32m-1.76 9.92-2.88-5.12" style="fill:none;fill-rule:nonzero;stroke:#d1a5fc;stroke-width:0.96px" transform="matrix(-3.125 0 0 2.13491 2454 -1922.81)"/>
      <path d="m730.08 978.56-2.08-2.88-1.28-3.36" style="fill:none;fill-rule:nonzero;stroke:#d1a5fc;stroke-width:0.96px" transform="matrix(-3.125 0 0 2.13491 2454 -1910.18)"/>
      <path d="m0-2.24-.8-.32m2.88.16.16.32m-.64 0-.96.16m1.28 0-.16-.16m-1.12.16L0-2.24M-.48-.96l-.8-1.6M-.64-.8l-1.28-.96m.48 1.6h.16m.32.32-.32.16M-.64-.8l.16-.16" style="fill:none;fill-rule:nonzero;stroke:#d1a5fc;stroke-width:0.96px" transform="matrix(-3.125 0 0 2.13491 166.5 182.72)"/>
      <path d="M730.4 970.72h.32v-.32l-.16-.16" style="fill:none;fill-rule:nonzero;stroke:#d1a5fc;stroke-width:0.96px" transform="matrix(3.125 0 0 2.13491 -2112 -1889)"/>
      <path d="M730.72 973.28v-.16l.48.16" style="fill:none;fill-rule:nonzero;stroke:#d1a5fc;stroke-width:0.96px" transform="matrix(-3.125 0 0 2.13491 2454 -1900.61)"/>
      <path d="m0 2.4.16-.8M1.44-.16l-.16-.32M.32.8.96.16M.8-.16.96 0m-.8 1.6L.32.8m-1.44.48.8 1.6m-1.12-1.6.16 1.6" style="fill:none;fill-rule:nonzero;stroke:#d1a5fc;stroke-width:0.96px" transform="matrix(-3.125 0 0 2.13491 179 159.5)"/>
      <path d="m727.68 978.88.16.16.16-.64" style="fill:none;fill-rule:nonzero;stroke:#d1a5fc;stroke-width:0.96px" transform="matrix(-3.125 0 0 2.13491 2454 -1924.18)"/>
      <path d="M725.28 979.84h.32m.16.32-.16.16m.96-.32h.32" style="fill:none;fill-rule:nonzero;stroke:#d1a5fc;stroke-width:0.96px" transform="matrix(-3.125 0 0 2.13491 2454 -1929.99)"/>
      <path d="M725.12 980.32h.48V980l-.16-.16" style="fill:none;fill-rule:nonzero;stroke:#d1a5fc;stroke-width:0.96px" transform="matrix(3.125 0 0 2.13491 -2079.5 -1929.99)"/>
      <path d="m0-9.6 11.04-1.6m.16.48L.16-9.28m3.36-.16 4.8-.64m4.32 9.76L1.6 1.12m0 .48L12.64.16M4.8.48l4.8-.8m2.72-5.28h.16" style="fill:none;fill-rule:nonzero;stroke:#d1a5fc;stroke-width:0.96px" transform="matrix(-3.125 0 0 2.13491 167.5 218.93)"/>
      <path d="m742.24 953.92.96 1.76.64 2.08V960l-.48 2.08-.96.8-1.12.16" style="fill:none;fill-rule:nonzero;stroke:#d1a5fc;stroke-width:0.96px" transform="matrix(-3.125 0 0 2.13491 2454 -1837.76)"/>
      <path d="m744.32 953.6.16-.16.32.32-.16.16-.16.16h-.16" style="fill:none;fill-rule:nonzero;stroke:#d1a5fc;stroke-width:0.96px" transform="matrix(-3.125 0 0 2.13491 2454 -1817.6)"/>
      <path d="m740.32 953.76-.16-.32m.48.32v-.32" style="fill:none;fill-rule:nonzero;stroke:#d1a5fc;stroke-width:0.96px" transform="matrix(-3.125 0 0 2.13491 2454 -1816.92)"/>
      <path d="M740 963.2h1.12l1.12.48" style="fill:none;fill-rule:nonzero;stroke:#d1a5fc;stroke-width:0.96px" transform="matrix(-3.125 0 0 2.13491 2454 -1858.94)"/>
      <path d="M742.72 964.32h.48v.32l-.16.16h-.16" style="fill:none;fill-rule:nonzero;stroke:#d1a5fc;stroke-width:0.96px" transform="matrix(-3.125 0 0 2.13491 2454 -1863.72)"/>
      <path d="M738.88 954.88v.32m.32-.32.16.32m-5.28 8.64-.8-5.76" style="fill:none;fill-rule:nonzero;stroke:#d1a5fc;stroke-width:0.96px" transform="matrix(-3.125 0 0 2.13491 2454 -1841.52)"/>
      <path d="m733.12 961.12-.96-3.52v-3.52" style="fill:none;fill-rule:nonzero;stroke:#d1a5fc;stroke-width:0.96px" transform="matrix(-3.125 0 0 2.13491 2454 -1834)"/>
      <path d="m0-1.28-.48-.48M2.08-.64v.32m-.64-.16L.64-.8m1.12.48L1.6-.64M.64-.8 0-1.28m-.8.96-.16-1.76m0 1.92-.96-1.28m-.16 1.6h.32m0 .48-.32.16m1.12-.96.16-.16" style="fill:none;fill-rule:nonzero;stroke:#d1a5fc;stroke-width:0.96px" transform="matrix(-3.125 0 0 2.13491 157 220.98)"/>
      <path d="M732.6 952.33h.22l.23-.23v-.22" style="fill:none;fill-rule:nonzero;stroke:#d1a5fc;stroke-width:0.96px" transform="matrix(2.21013 -1.50932 2.20929 1.5099 -3559.6 -109.5)"/>
      <path d="M734.08 954.56v-.16l.48.48" style="fill:none;fill-rule:nonzero;stroke:#d1a5fc;stroke-width:0.96px" transform="matrix(-3.125 0 0 2.13491 2454 -1821.36)"/>
      <path d="m0 1.76.32-.64M2.24 0l-.16-.32M.8.48 1.6 0m.16-.32V0M.32 1.12.8.48M-.64.32l.16 1.76M-.96.48l-.48 1.44" style="fill:none;fill-rule:nonzero;stroke:#d1a5fc;stroke-width:0.96px" transform="matrix(-3.125 0 0 2.13491 161.5 198.78)"/>
      <path d="m733.12 960.96.16.32.32-.64" style="fill:none;fill-rule:nonzero;stroke:#d1a5fc;stroke-width:0.96px" transform="matrix(-3.125 0 0 2.13491 2454 -1848.35)"/>
      <path d="m731.52 962.56.16.16m.16.32-.32.16m1.12.16.32-.16" style="fill:none;fill-rule:nonzero;stroke:#d1a5fc;stroke-width:0.96px" transform="matrix(-3.125 0 0 2.13491 2454 -1856.89)"/>
      <path d="M731.2 963.2h.16l.16-.32-.16-.16h-.16" style="fill:none;fill-rule:nonzero;stroke:#d1a5fc;stroke-width:0.96px" transform="matrix(3.125 0 0 2.13491 -2117 -1856.89)"/>
      <path d="M690.88 844.64v-2.56h-.96v-19.2h.96v19.2" style="fill:none;fill-rule:nonzero;stroke:#d1a5fc;stroke-width:0.96px" transform="matrix(-3.125 0 0 2.13491 2454 -1305.23)"/>
      <path d="M677.06 844.04h3.75l3.71-.8 3.32-1.51 3.26-2.1" style="fill:none;fill-rule:nonzero;stroke:#d1a5fc;stroke-width:0.96px" transform="matrix(-2.40066 -1.36676 2.00061 -1.64007 274.3 2773.18)"/>
      <path d="M673.25 837.04h5.02" style="fill:none;fill-rule:nonzero;stroke:#d1a5fc;stroke-width:0.96px" transform="matrix(-1.8909 -1.69973 2.488 -1.29181 -462.5 2697.68)"/>
      <path d="m671.68 835.04.32-3.36.8-3.2 1.44-3.04" style="fill:none;fill-rule:nonzero;stroke:#d1a5fc;stroke-width:0.96px" transform="matrix(-3.125 0 0 2.13491 2454 -1290.2)"/>
      <path d="M541.12 686.72h-73.76V684h73.76" style="fill:#d1a5fc;fill-rule:nonzero" transform="matrix(-3.125 0 0 2.13491 2454 -671.58)"/>
      <path d="M455.44 703.6h38.24v12.8h-38.24z" style="fill:none;stroke:#d1a5fc;stroke-width:0.96px" transform="matrix(0 -2.13491 3.125 0 -1247.75 1752.14)"/>
      <path d="M502.88 688.32h38.24v12.64h-38.24z" style="fill:none;stroke:#d1a5fc;stroke-width:0.96px" transform="matrix(3.125 0 0 2.13491 -808.5 -711.2)"/>
      <path d="M614.56 714.4v-16h.96v16zl-8 13.76" style="fill:none;fill-rule:nonzero;stroke:#d1a5fc;stroke-width:0.96px" transform="matrix(-3.125 0 0 2.13491 2454 -790.8)"/>
      <path d="m614.56 697.92.96.48-8 13.76-.96-.48" style="fill:none;fill-rule:nonzero;stroke:#d1a5fc;stroke-width:0.96px" transform="matrix(-3.125 0 0 2.13491 2454 -755.61)"/>
      <path d="M603.05 734.74h15.98v1.07h-15.98z" style="fill:none;stroke:#d1a5fc;stroke-width:0.96px" transform="matrix(-1.57069 1.84565 -2.70159 -1.07305 3490.68 346.25)"/>
      <path d="M0 18.08v.16h.16v-.16h.16l3.36-4.16 2.08-3.52.48-1.92.16-1.76-.32-1.92-.8-1.6L4 1.76 2.56.64.8 0l-1.92-.16-1.76.16-2.24.8-3.36 1.44-3.04 2.08-.16.16.16.16.8.96.16-.16.32-.16 2.56-1.6 1.28-.64 2.4-.96" style="fill:none;fill-rule:nonzero;stroke:#d1a5fc;stroke-width:0.96px" transform="matrix(-3.125 0 0 2.13491 592.5 664.02)"/>
      <path d="m0 9.44.8-1.76.32-1.92-.48-1.92-1.12-1.76L-1.92.8-3.84.16-5.76 0l-1.92.64" style="fill:none;fill-rule:nonzero;stroke:#d1a5fc;stroke-width:0.96px" transform="matrix(-3.125 0 0 2.13491 581 667.1)"/>
      <path d="m0-7.2-1.12 1.92-.8 1.28-.96 1.28-.8.8-.48.32v.16l-.32.32v.16l.64.8.16.16" style="fill:none;fill-rule:nonzero;stroke:#d1a5fc;stroke-width:0.96px" transform="matrix(-3.125 0 0 2.13491 581 702.62)"/>
      <path d="M594.22 726.72h1.48" style="fill:none;fill-rule:nonzero;stroke:#d1a5fc;stroke-width:0.96px" transform="matrix(2.37265 1.3894 -2.03375 1.62093 661.09 -1301.3)"/>
      <path d="m591.84 725.92 1.28.32 1.28-.32" style="fill:none;fill-rule:nonzero;stroke:#d1a5fc;stroke-width:0.96px" transform="matrix(-3.125 0 0 2.13491 2454 -845.45)"/>
      <path d="m583.04 726.24 2.56 3.68 3.04 3.52 3.2 3.04" style="fill:none;fill-rule:nonzero;stroke:#d1a5fc;stroke-width:0.96px" transform="matrix(-3.125 0 0 2.13491 2454 -868)"/>
      <path d="m582.88 736.48-.16 1.28.32 1.28" style="fill:none;fill-rule:nonzero;stroke:#d1a5fc;stroke-width:0.96px" transform="matrix(-3.125 0 0 2.13491 2454 -895.32)"/>
      <path d="M0 2.24 1.28.8l.8.96.32.32h.16l1.28-.8L4.96.8 7.68 0h1.28" style="fill:none;fill-rule:nonzero;stroke:#d1a5fc;stroke-width:0.96px" transform="matrix(-3.125 0 0 2.13491 632.5 672.22)"/>
      <path d="M597.6 741.28v-1.6l-.48-1.6-.8-1.28-1.28-1.12-1.6-.64-1.6-.32" style="fill:none;fill-rule:nonzero;stroke:#d1a5fc;stroke-width:0.96px" transform="matrix(-3.125 0 0 2.13491 2454 -896.35)"/>
      <path d="m0-7.52-.32 1.6L-.8-4.8l-.64 1.28-.64.8-.8 1.12-.16.32v.16L-2.08 0" style="fill:none;fill-rule:nonzero;stroke:#d1a5fc;stroke-width:0.96px" transform="matrix(-3.125 0 0 2.13491 586.5 702.28)"/>
      <path d="M0 1.12v.16h-.16l.32.32h.16L1.6.8 2.72.32l2.72-.8h1.28" style="fill:none;fill-rule:nonzero;stroke:#d1a5fc;stroke-width:0.96px" transform="matrix(-3.125 0 0 2.13491 625.5 673.24)"/>
      <path d="M597.6 741.28v-1.6l-.48-1.6-.8-1.28-1.28-1.12-1.6-.64-1.6-.32" style="fill:none;fill-rule:nonzero;stroke:#d1a5fc;stroke-width:0.96px" transform="matrix(-3.125 0 0 2.13491 2454 -896.35)"/>
      <path d="m0 2.08-.32 1.6L-.8 4.8l-.64 1.28-.64.8-.8 1.12-.16.32v.16l.32.32v-.16l1.12-1.12.64-.8.48-.48L0 5.6l.64-1.12 1.44-2.24.32-.64.16-.96.16-1.92-.48-1.92-1.12-1.76-1.6-1.12-1.92-.64h-2.08l-.64.16-.32.16-.64.16-.8.32-.8.48-.8.32-.96.32-.32.16-.96.64-.8.48-.48.32-.16.16h-.16l-.16.16" style="fill:none;fill-rule:nonzero;stroke:#d1a5fc;stroke-width:0.96px" transform="matrix(-3.125 0 0 2.13491 586.5 681.78)"/>
      <path d="M0-18.24h.32l3.36 4.16 2.08 3.68.48 1.76.16 1.76-.32 1.92-.8 1.6L4-1.92 2.56-.8.8-.16-1.12 0l-1.76-.16-2.24-.64-3.36-1.6-3.04-1.92-.16-.32.96-.96h.16l.32.32 2.56 1.44 1.28.64L-4-2.08" style="fill:none;fill-rule:nonzero;stroke:#d1a5fc;stroke-width:0.96px" transform="matrix(-3.125 0 0 2.13491 592.5 770.94)"/>
      <path d="m0-9.44.8 1.76.32 1.92-.48 2.08-1.12 1.6L-1.92-.8l-1.92.64-1.92.16-1.92-.48" style="fill:none;fill-rule:nonzero;stroke:#d1a5fc;stroke-width:0.96px" transform="matrix(-3.125 0 0 2.13491 581 767.52)"/>
      <path d="m0 7.2-1.12-1.92-.8-1.28-.96-1.28-.8-.8-.48-.32v-.16l-.32-.32V.96l.64-.8.16-.16" style="fill:none;fill-rule:nonzero;stroke:#d1a5fc;stroke-width:0.96px" transform="matrix(-3.125 0 0 2.13491 581 732)"/>
      <path d="M594.22 713.6h1.48" style="fill:none;fill-rule:nonzero;stroke:#d1a5fc;stroke-width:0.96px" transform="matrix(2.37265 -1.3894 2.03375 1.62093 -2268.17 401.26)"/>
      <path d="m591.84 714.24 1.28-.16 1.28.16" style="fill:none;fill-rule:nonzero;stroke:#d1a5fc;stroke-width:0.96px" transform="matrix(-3.125 0 0 2.13491 2454 -794.55)"/>
      <path d="m583.04 714.08 2.56-3.84 3.04-3.36 3.2-3.2" style="fill:none;fill-rule:nonzero;stroke:#d1a5fc;stroke-width:0.96px" transform="matrix(-3.125 0 0 2.13491 2454 -772.01)"/>
      <path d="m582.88 703.68-.16-1.44.32-1.12" style="fill:none;fill-rule:nonzero;stroke:#d1a5fc;stroke-width:0.96px" transform="matrix(-3.125 0 0 2.13491 2454 -744.34)"/>
      <path d="M0-2.08 1.28-.8l.8-.8.16-.32.16-.16.16.16 1.28.64 1.12.48 2.72.8h1.28" style="fill:none;fill-rule:nonzero;stroke:#d1a5fc;stroke-width:0.96px" transform="matrix(-3.125 0 0 2.13491 632.5 762.4)"/>
      <path d="M597.6 699.04v1.6l-.48 1.6-.8 1.44-1.28.96-1.6.8-1.6.16" style="fill:none;fill-rule:nonzero;stroke:#d1a5fc;stroke-width:0.96px" transform="matrix(-3.125 0 0 2.13491 2454 -744)"/>
      <path d="m0 7.52-.32-1.6L-.8 4.8l-.64-1.28-.64-.8-.8-1.12-.16-.32v-.16L-2.08 0" style="fill:none;fill-rule:nonzero;stroke:#d1a5fc;stroke-width:0.96px" transform="matrix(-3.125 0 0 2.13491 586.5 732.34)"/>
      <path d="M0-1.28h-.16L0-1.6h.32l1.28.64 1.12.48 2.72.8h1.28" style="fill:none;fill-rule:nonzero;stroke:#d1a5fc;stroke-width:0.96px" transform="matrix(-3.125 0 0 2.13491 625.5 761.71)"/>
      <path d="M597.6 699.04v1.6l-.48 1.6-.8 1.44-1.28.96-1.6.8-1.6.16" style="fill:none;fill-rule:nonzero;stroke:#d1a5fc;stroke-width:0.96px" transform="matrix(-3.125 0 0 2.13491 2454 -744)"/>
      <path d="m0-2.08-.32-1.6L-.8-4.8l-.64-1.28-.64-.8-.8-1.12-.16-.32v-.16l.32-.32v.32l.48.32.64.64.64.8L0-5.44l.64.96 1.44 2.24.32.8.16.8.16 1.92-.48 2.08-1.12 1.6-1.6 1.28-1.92.48h-2.72l-.96-.48-2.4-.96-1.28-.64-.96-.64-.8-.48-.48-.32h-.16l-.32-.32" style="fill:none;fill-rule:nonzero;stroke:#d1a5fc;stroke-width:0.96px" transform="matrix(-3.125 0 0 2.13491 586.5 752.83)"/>
      <path d="m0-13.28 2.08.32 1.76.96 1.6 1.44.96 1.76.32 2.08-.32 2.08-.96 1.76-1.6 1.6-1.76.96L0 0l-2.08-.32-1.76-.96-1.44-1.6-.96-1.76-.32-2.08.32-2.08.96-1.76L-3.84-12l1.76-.96z" style="fill:none;fill-rule:nonzero;stroke:#d1a5fc;stroke-width:0.96px" transform="matrix(-3.125 0 0 2.13491 651 731.65)"/>
      <path d="M2758 384h36v175h-36z" style="fill:#d1a5fc" transform="matrix(0 -.68317 1 0 -96 2254.79)"/>
      <path d="M2758 384h36v175h-36z" style="fill:#d1a5fc" transform="matrix(1.22222 0 0 1.47956 -2556.56 -468.01)"/>
      <path d="M2794 136h164v108h-164z" style="fill:#d1a5fc" transform="matrix(0 -.68317 1 0 -96 2254.79)"/>
      <path d="M279 502h8v230h-8z" style="fill:#d1a5fc" transform="matrix(1 0 0 .68317 0 .32)"/>
      <path d="M3119 442h145v171h-145z" style="fill:#d1a5fc" transform="matrix(0 -.68317 1 0 -96 2254.79)"/>
      <path d="m761.5 1882 24.5 49h-49z" style="fill:#d1a5fc" transform="matrix(-1 0 0 -.47404 2031 2119.43)"/>
      <path d="m761.5 1882 24.5 49h-49z" style="fill:#d1a5fc" transform="matrix(1.22449 0 0 .51587 -376.28 -476.76)"/>
      <path d="M904 94v35h-40v598h-50v64l415.82-.46.18-7.54H872l3-643h38V94z" style="fill:#d1a5fc" transform="matrix(1 0 0 .68317 -1 .32)"/>
      <path d="M142 497h225v7H142z" style="fill:#d1a5fc" transform="matrix(1 0 0 .68317 0 .32)"/>
      <path d="M1931 129v661h60v-6h-51V128z" style="fill:#d1a5fc;stroke:#d1a5fc;stroke-width:1px;stroke-miterlimit:1.5" transform="matrix(1 0 0 .68317 0 .32)"/>
      <path d="M2052 784v7h7v324h6V783z" style="fill:#d1a5fc" transform="matrix(1 0 0 .68317 0 .32)"/>
      <path d="M1938 1045v-75h-569v7h8v134h-9v4h15V993h151v154l24 1-2-135h18v-20h320v15h37v37z" style="fill:#d1a5fc;stroke:#d1a5fc;stroke-width:1px;stroke-miterlimit:1.5" transform="matrix(1 0 0 .68317 0 1)"/>
      <path d="M1731 786h9v114h-9z" style="fill:#d1a5fc" transform="matrix(1 0 0 .68317 2 4.42)"/>
      <path d="M1309 1116v-5h-148v-10h-159V977h-8v139z" style="fill:#d1a5fc" transform="matrix(1 0 0 .68317 0 -5.83)"/>
      <path d="M1012 970h297v9h-297z" style="fill:#d1a5fc" transform="matrix(1 0 0 .68317 -6 -1.73)"/>
      <path d="M753 970h212v8H753z" style="fill:#d1a5fc" transform="matrix(1.25943 0 0 .68317 -202.35 -1.05)"/>
      <path d="M466 428h9v301H355v-9h111V505h-71v-8h72z" style="fill:#d1a5fc" transform="matrix(1 0 0 .68317 0 .32)"/>
      <path d="m749.92 997.6 2.72-.64 4.64-1.6-7.68-16-4.16 2.72-2.08 1.76z" style="fill:#d1a5fc;fill-rule:nonzero" transform="matrix(-3.125 0 0 2.13491 2454 -1965.85)"/>
      <path d="m706.56 1023.52.64-2.72 1.6-4.64 16 7.68-2.72 4.16-1.76 2.24z" style="fill:#d1a5fc;fill-rule:nonzero" transform="matrix(-3.125 0 0 2.13491 2454 -2114.1)"/>
      <path d="M1155 1112h215v10h-215z" style="fill:#d1a5fc" transform="matrix(.69767 0 0 .68317 356.19 .32)"/>
      <path d="M1213.67 2459.1h11.7q3.15 0 5.59 1.45t3.78 4.02 1.35 5.83q0 3.45-1.95 6.13a11 11 0 0 1-4.91 3.87l-.05.35 8.61 13.75v.4h-6.95l-8.29-13.45h-2.82v13.45h-6.06zm11.66 16.15q2.06 0 3.38-1.4a5 5 0 0 0 1.33-3.55q0-2.05-1.24-3.5a4.2 4.2 0 0 0-3.38-1.45h-5.7v9.9zM1241.92 2459.1h20.35v6.4h-14.3v8.3h12.86v6.4h-12.86v8.3h14.3v6.4h-20.35zM1278.05 2495.7q-4.22 0-7.44-2.65-3.24-2.66-4.53-7.5l5.7-2.5a9.7 9.7 0 0 0 2.28 4.55 5.3 5.3 0 0 0 4.03 1.7q2.03 0 3.45-1.12a3.8 3.8 0 0 0 1.44-3.13q0-2-1.37-3.28-1.37-1.26-4.86-2.72l-1.98-.8a13.5 13.5 0 0 1-5.29-3.68 9 9 0 0 1-2.2-6.22q0-2.8 1.3-5.1a9.4 9.4 0 0 1 3.68-3.62 11 11 0 0 1 5.38-1.33q4.35 0 6.86 2.27a12 12 0 0 1 3.45 5.33l-5.33 2.5a6 6 0 0 0-1.73-2.78 4.5 4.5 0 0 0-3.16-1.12q-1.97 0-3.25 1.03a3.3 3.3 0 0 0-1.28 2.67q0 1.6 1.22 2.73 1.2 1.12 3.98 2.17l2.02.75q4.17 1.6 6.39 4.22 2.22 2.63 2.22 6.88 0 3.49-1.61 5.93a10 10 0 0 1-4.15 3.62q-2.54 1.2-5.22 1.2M1300.68 2465.5h-8.96v-6.4h23.98v6.4h-8.96v29.4h-6.06zM1320.4 2459.1h11.7q3.15 0 5.59 1.45 2.45 1.45 3.79 4.02a12.4 12.4 0 0 1 1.34 5.83q0 3.45-1.95 6.13a11 11 0 0 1-4.9 3.87l-.05.35 8.6 13.75v.4h-6.94l-8.3-13.45h-2.82v13.45h-6.05zm11.66 16.15q2.06 0 3.39-1.4a5 5 0 0 0 1.32-3.55q0-2.05-1.23-3.5a4.2 4.2 0 0 0-3.39-1.45h-5.69v9.9zM1363.85 2495.7q-4.71 0-8.54-2.47a17 17 0 0 1-6.03-6.78 20.5 20.5 0 0 1-2.2-9.45q0-5.14 2.2-9.45a17 17 0 0 1 6.03-6.78 15.4 15.4 0 0 1 8.54-2.47q4.7 0 8.54 2.47a17 17 0 0 1 6.03 6.78 20.5 20.5 0 0 1 2.2 9.45q0 5.14-2.2 9.45a17 17 0 0 1-6.03 6.78 15.4 15.4 0 0 1-8.54 2.47m0-6.4q2.95 0 5.4-1.55a11 11 0 0 0 3.85-4.35q1.42-2.8 1.42-6.4t-1.42-6.4a11 11 0 0 0-3.85-4.35 10 10 0 0 0-5.4-1.55 10 10 0 0 0-5.43 1.55 10.7 10.7 0 0 0-3.87 4.35q-1.42 2.8-1.42 6.4t1.41 6.4a10.7 10.7 0 0 0 3.88 4.35 10 10 0 0 0 5.43 1.55M1400.83 2495.7a15.4 15.4 0 0 1-8.54-2.47 17 17 0 0 1-6.03-6.78 20.5 20.5 0 0 1-2.2-9.45q0-5.14 2.2-9.45a17 17 0 0 1 6.03-6.78 15.4 15.4 0 0 1 8.54-2.47q4.7 0 8.54 2.47a17 17 0 0 1 6.03 6.78 20.5 20.5 0 0 1 2.2 9.45q0 5.14-2.2 9.45a17 17 0 0 1-6.03 6.78 15.4 15.4 0 0 1-8.54 2.47m0-6.4q2.95 0 5.4-1.55a11 11 0 0 0 3.86-4.35q1.4-2.8 1.4-6.4t-1.4-6.4a11 11 0 0 0-3.86-4.35 10 10 0 0 0-5.4-1.55 10 10 0 0 0-5.42 1.55 10.7 10.7 0 0 0-3.88 4.35q-1.41 2.8-1.41 6.4t1.4 6.4a10.7 10.7 0 0 0 3.88 4.35 10 10 0 0 0 5.43 1.55M1423.06 2459.1h7.8l8.52 25.15h.36l8.56-25.15h7.8v35.8h-6v-17.65l.35-5.95h-.36l-8.15 23.6h-4.71l-8.2-23.6h-.36l.36 5.95v17.65h-5.97zM1472.91 2495.7q-4.2 0-7.44-2.65-3.22-2.66-4.53-7.5l5.7-2.5a9.7 9.7 0 0 0 2.28 4.55 5.3 5.3 0 0 0 4.04 1.7q2.02 0 3.45-1.12a3.8 3.8 0 0 0 1.43-3.13q0-2-1.36-3.28-1.38-1.26-4.87-2.72l-1.97-.8a13.5 13.5 0 0 1-5.29-3.68 9 9 0 0 1-2.2-6.22q0-2.8 1.3-5.1a9.4 9.4 0 0 1 3.68-3.62 11 11 0 0 1 5.38-1.33q4.35 0 6.86 2.27a12 12 0 0 1 3.45 5.33l-5.34 2.5a6 6 0 0 0-1.72-2.78 4.5 4.5 0 0 0-3.16-1.12q-1.98 0-3.25 1.03a3.3 3.3 0 0 0-1.28 2.67q0 1.6 1.21 2.73 1.2 1.12 4 2.17l2 .75q4.18 1.6 6.4 4.22 2.2 2.63 2.21 6.88 0 3.49-1.6 5.93a10 10 0 0 1-4.16 3.62q-2.53 1.2-5.22 1.2" style="fill:#d1a5fc;fill-rule:nonzero" transform="matrix(1.11539 0 0 .68317 -234.04 -519.58)"/>
      <path d="M1239.13 2450.15h7.05v23.03h.41l13.68-23.03h8.5v.6l-13.51 22.2 14.92 30.3v.6h-8.6l-11.12-22.87-4.28 7.12v15.75h-7.05zM1274.57 2450.15h7.05v53.7h-7.05zM1297.53 2459.75h-10.43v-9.6h27.92v9.6h-10.44v44.1h-7.05zM1336.68 2505.05a15.2 15.2 0 0 1-9.92-3.71q-4.5-3.71-7.07-10.13a38 38 0 0 1-2.59-14.21q0-7.8 2.59-14.21t7.07-10.13q4.5-3.7 9.91-3.71 8.46 0 14 8.78l-4.97 6.9q-3.7-6.09-8.97-6.08-3.5 0-6.37 2.29a15.3 15.3 0 0 0-4.54 6.48 26 26 0 0 0-1.67 9.68q0 5.48 1.67 9.68a15.3 15.3 0 0 0 4.54 6.48 10 10 0 0 0 6.37 2.29q5.85 0 9.8-7.05l5.07 6.82a22 22 0 0 1-6.57 7.32 14.7 14.7 0 0 1-8.36 2.51M1357.86 2450.15h7.05v21.45h15.76v-21.45h7v53.7h-7v-22.65h-15.76v22.65h-7.05zM1395.91 2450.15h23.7v9.6h-16.65v12.45h14.97v9.6h-14.97v12.45h16.64v9.6h-23.69zM1426.65 2450.15h8.2l15.02 36h.42l-.42-10.35v-25.65h7v53.7h-7.41l-15.87-38.03h-.42l.42 10.36v27.67h-6.94z" style="fill:#d1a5fc;fill-rule:nonzero" transform="matrix(1.43706 0 0 .68317 -1380.29 -1125.48)"/>
      <path d="M1280.31 2495.7q-3.62 0-6.61-2.47t-4.72-6.76q-1.72-4.26-1.72-9.47 0-5.2 1.72-9.47a16.6 16.6 0 0 1 4.72-6.76q3-2.46 6.61-2.47 5.64 0 9.32 5.85l-3.3 4.6q-2.47-4.05-5.98-4.05-2.34 0-4.25 1.53a10 10 0 0 0-3.03 4.32 17 17 0 0 0-1.11 6.45q0 3.64 1.11 6.45 1.12 2.8 3.03 4.33a6.7 6.7 0 0 0 4.25 1.52q3.9 0 6.54-4.7l3.37 4.55a15 15 0 0 1-4.38 4.88 10 10 0 0 1-5.57 1.67M1294.44 2459.1h4.7v14.3h10.5v-14.3h4.66v35.8h-4.66v-15.1h-10.5v15.1h-4.7zM1319.8 2459.1h15.8v6.4h-11.1v8.3h9.98v6.4h-9.98v8.3h11.1v6.4h-15.8zM1351.43 2495.7q-3.62 0-6.61-2.47a16.6 16.6 0 0 1-4.72-6.76q-1.72-4.26-1.72-9.47 0-5.2 1.72-9.47a16.6 16.6 0 0 1 4.72-6.76q3-2.46 6.6-2.47 5.64 0 9.33 5.85l-3.3 4.6q-2.47-4.05-5.99-4.05-2.33 0-4.24 1.53a10 10 0 0 0-3.03 4.32 17 17 0 0 0-1.11 6.45q0 3.64 1.11 6.45 1.11 2.8 3.03 4.33a6.7 6.7 0 0 0 4.24 1.52q3.9 0 6.54-4.7l3.38 4.55a15 15 0 0 1-4.39 4.88 10 10 0 0 1-5.56 1.67M1365.55 2459.1h4.7v15.35h.28l9.11-15.35h5.68v.4l-9.02 14.8 9.96 20.2v.4h-5.75l-7.4-15.25-2.86 4.75v10.5h-4.7zM1397.18 2459.1h4.7v35.8h-4.7zM1407.38 2459.1h5.46l10.02 24h.28l-.28-6.9v-17.1h4.66v35.8h-4.94l-10.58-25.35h-.28l.28 6.9v18.45h-4.62z" style="fill:#d1a5fc;fill-rule:nonzero" transform="matrix(1.43706 0 0 .68317 -1159.2 -578.69)"/>
      <path d="M1233.93 2458.82h7.16v29.86h16.1v6.5h-23.26zM1262.92 2458.82h24.1v6.5h-16.94v8.43h15.24v6.5h-15.24v8.43h16.94v6.5h-24.1zM1290.74 2458.82h7.75l7.8 21.94 1.44 4.62h.42l1.44-4.62 8.23-21.94h7.75l-13.91 36.36h-7.49zM1330.45 2458.82h24.1v6.5h-16.93v8.43h15.24v6.5h-15.24v8.43h16.94v6.5h-24.1zM1361.73 2458.82h7.16v29.86h16.09v6.5h-23.26zM1415.88 2495.99q-4.46 0-7.78-1.83a12.7 12.7 0 0 1-5.15-5.28 17 17 0 0 1-1.83-8.17v-21.89h7.17v22.3q0 3.75 1.99 6.06 2 2.3 5.6 2.3 3.66 0 5.65-2.3t2-6.07v-22.29h7.16v21.89q0 4.5-1.8 7.97-1.8 3.45-5.18 5.38a15.5 15.5 0 0 1-7.83 1.93M1438.34 2458.82h13.38q3.6 0 6.58 1.45t4.67 4.06a10.7 10.7 0 0 1 1.7 5.97q0 3.35-1.7 5.99a11.3 11.3 0 0 1-4.67 4.09 15 15 0 0 1-6.58 1.44h-6.21v13.36h-7.17zm13.6 16.5q2.7 0 4.19-1.44a4.8 4.8 0 0 0 1.48-3.58q0-2.09-1.48-3.53-1.5-1.45-4.2-1.45h-6.42v10z" style="fill:#d1a5fc;fill-rule:nonzero" transform="matrix(1.41259 0 0 1.00923 -462.22 -2174.6)"/>
      <g id="LEVEL-UP-CLASSROM" transform="matrix(1 0 0 .68317 1 1)">
        <path d="M922 143h984v621H922z" style="fill:none"/>
      </g>
      <g id="KITCHEN" transform="matrix(1 0 0 .66892 1 12.25)">
        <path d="M805 122.09V789H134V272.59c0-40.91 15.98-80.14 44.39-108.98s66.91-44.93 106.97-44.69z" style="fill:none"/>
      </g>
      <g id="CHECKIN" transform="matrix(1 0 0 .68317 1 1)">
        <path d="M536 1490h451v451H536z" style="fill:none"/>
      </g>
    </g>
  </g>
</svg>